<mxfile host="app.diagrams.net" modified="2023-07-26T19:29:21.097Z" agent="Mozilla/5.0 (Windows NT 10.0; Win64; x64) AppleWebKit/537.36 (KHTML, like Gecko) Chrome/115.0.0.0 Safari/537.36" etag="wUN6oI5TLyhYmMhS1QX8" version="21.6.5" type="device">
  <diagram name="Page-1" id="MzfdwyRjkBcuF9xyF4Ry">
    <mxGraphModel dx="733" dy="359" grid="1" gridSize="10" guides="1" tooltips="1" connect="1" arrows="1" fold="1" page="1" pageScale="1" pageWidth="850" pageHeight="1100" math="0" shadow="0">
      <root>
        <mxCell id="0" />
        <mxCell id="1" parent="0" />
        <mxCell id="Ysqgjk3QRdwO2fdqVnxJ-4" style="edgeStyle=orthogonalEdgeStyle;rounded=0;orthogonalLoop=1;jettySize=auto;html=1;exitX=0;exitY=0.5;exitDx=0;exitDy=0;entryX=0.5;entryY=0;entryDx=0;entryDy=0;" edge="1" parent="1" source="Ysqgjk3QRdwO2fdqVnxJ-1" target="Ysqgjk3QRdwO2fdqVnxJ-2">
          <mxGeometry relative="1" as="geometry" />
        </mxCell>
        <mxCell id="Ysqgjk3QRdwO2fdqVnxJ-1" value="JAVA&lt;br&gt;11" style="rounded=0;whiteSpace=wrap;html=1;" vertex="1" parent="1">
          <mxGeometry x="300" y="40" width="120" height="60" as="geometry" />
        </mxCell>
        <mxCell id="Ysqgjk3QRdwO2fdqVnxJ-2" value="MAVEN" style="ellipse;whiteSpace=wrap;html=1;" vertex="1" parent="1">
          <mxGeometry x="120" y="160" width="120" height="80" as="geometry" />
        </mxCell>
        <mxCell id="Ysqgjk3QRdwO2fdqVnxJ-5" value=".war" style="shape=step;perimeter=stepPerimeter;whiteSpace=wrap;html=1;fixedSize=1;" vertex="1" parent="1">
          <mxGeometry x="290" y="150" width="140" height="40" as="geometry" />
        </mxCell>
        <mxCell id="Ysqgjk3QRdwO2fdqVnxJ-6" value=".jar" style="shape=step;perimeter=stepPerimeter;whiteSpace=wrap;html=1;fixedSize=1;" vertex="1" parent="1">
          <mxGeometry x="290" y="200" width="140" height="40" as="geometry" />
        </mxCell>
        <mxCell id="Ysqgjk3QRdwO2fdqVnxJ-7" value="" style="endArrow=classic;html=1;rounded=0;exitX=1;exitY=0;exitDx=0;exitDy=0;" edge="1" parent="1" source="Ysqgjk3QRdwO2fdqVnxJ-2" target="Ysqgjk3QRdwO2fdqVnxJ-5">
          <mxGeometry width="50" height="50" relative="1" as="geometry">
            <mxPoint x="220" y="210" as="sourcePoint" />
            <mxPoint x="290" y="180" as="targetPoint" />
          </mxGeometry>
        </mxCell>
        <mxCell id="Ysqgjk3QRdwO2fdqVnxJ-8" value="" style="endArrow=classic;html=1;rounded=0;exitX=1;exitY=0.5;exitDx=0;exitDy=0;entryX=0;entryY=0.5;entryDx=0;entryDy=0;" edge="1" parent="1" source="Ysqgjk3QRdwO2fdqVnxJ-2" target="Ysqgjk3QRdwO2fdqVnxJ-6">
          <mxGeometry width="50" height="50" relative="1" as="geometry">
            <mxPoint x="400" y="440" as="sourcePoint" />
            <mxPoint x="450" y="390" as="targetPoint" />
          </mxGeometry>
        </mxCell>
        <mxCell id="Ysqgjk3QRdwO2fdqVnxJ-10" value="En desarrollo(No LTS)&lt;br&gt;&lt;br&gt;LTS =&amp;gt; 8 - 11 - 17" style="shape=process;whiteSpace=wrap;html=1;backgroundOutline=1;fillColor=#dae8fc;strokeColor=#6c8ebf;" vertex="1" parent="1">
          <mxGeometry x="425" y="40" width="235" height="60" as="geometry" />
        </mxCell>
        <mxCell id="Ysqgjk3QRdwO2fdqVnxJ-11" value="" style="shape=flexArrow;endArrow=classic;startArrow=classic;html=1;rounded=0;" edge="1" parent="1">
          <mxGeometry width="100" height="100" relative="1" as="geometry">
            <mxPoint x="30" y="280" as="sourcePoint" />
            <mxPoint x="820" y="280" as="targetPoint" />
          </mxGeometry>
        </mxCell>
        <mxCell id="Ysqgjk3QRdwO2fdqVnxJ-12" value="" style="shape=flexArrow;endArrow=classic;startArrow=classic;html=1;rounded=0;" edge="1" parent="1">
          <mxGeometry width="100" height="100" relative="1" as="geometry">
            <mxPoint x="280" y="440" as="sourcePoint" />
            <mxPoint x="480" y="440" as="targetPoint" />
          </mxGeometry>
        </mxCell>
        <mxCell id="Ysqgjk3QRdwO2fdqVnxJ-13" value="" style="shape=image;verticalLabelPosition=bottom;labelBackgroundColor=default;verticalAlign=top;aspect=fixed;imageAspect=0;image=data:image/jpeg,/9j/4AAQSkZJRgABAQAAAQABAAD/2wCEAAoHCBYWFRgVFRYYGRgZGhoZHBkcHBoYGBgcGBoaGRgYGhwcIy4lHB4rIRgYJjgmKy8xNTU1GiQ7QDs0Py40NTEBDAwMEA8QHxISHzQrIys0NDg2NDQ0NDQ0NDQ0NDQ0NDQ0NDQ0NDQ0NDQ0NDQ0NDQ0NDQ0NDQ0NDQ0NDQ0NDQ0NP/AABEIAMIBBAMBIgACEQEDEQH/xAAbAAACAwEBAQAAAAAAAAAAAAAEBQACAwYBB//EAD0QAAIBAwMCBAQEAwcCBwAAAAECEQADIQQSMQVBIlFhcRMygZEGobHBQlLRFCMzguHw8WJyFXOSorLC4v/EABoBAAIDAQEAAAAAAAAAAAAAAAECAAMEBQb/xAArEQACAgEEAQMEAQUBAAAAAAAAAQIRAwQSITFBEzJRFCJhcYEzQrHB0VL/2gAMAwEAAhEDEQA/ADtQ0Ix8gT+lZ6a+CKG6rqdtlvWFHu3+n6UD0/UY5p9Q05IbSRaizpbb0VbelVm7RSPVBrG1i9FdD0zXj5WPsf2rkUuUZZuxmaidCzgpHc1KT9M6kDCsfY04p07MsotOme1KlSiAlSpUqEJUqVKhCVKlSoQlSpUqEJUqVKhCVKlSoQlSpUqEJUqVKhCVRjV6xuVEQxutWO6vbprMUwhdblaq1BvzW1pqgbN4qV5FSoE4Xpn4TXV6YtcZlYtNthkDbIJI/iBMj/Lgia5PqXR7+jfbdXBPhcZV/Y+foc19t09hURUUQqgKB5ACBWWu06OjK6qyEZVhINJNbnY+OWxUfHtNqaZWb1bdb/CpRi+mJZedhMuv/af4h+fvSPT6iDB5GM4I9Krdrs1xnGStD8XKKt3aU2r00Sj1BqHFm9T7pvVMBW48/KuTt3qMt3qidCSgpHdqwIkZFWrldB1JlMTjyro9PqFcSD9O9PGVmWUHEIqVKlMKSpUqVCEqVKlQh5VHcAScAVekH4q1ZVUtrzcYAnsFUgn9fyqrNk9ODl8EGPTdaLoZhwGIHt2P1INHVz34RB+GZ9B9RIP510NLp5ueNSfkCPalSpV4SVK8mpNQh7Urya8LVCEY1kxqM9VmiAzdKxdYoomsL5ogYFdepY1FY33oVnzUoRumPxcFeUsS+YqVKHs6AmhdQ+KjXaEv3cVKA5C+8c0Fr+iWdQJYbH7OvP8AmHDfWiLrV7ZeKdxTXJVGbjK0cZ1Hot/T5Yb0/nXIH/cOV+uPWs9Pqpr6Il7FI+p/h61cJZP7t/8ApHgPuvb6RVEsTXtNsNUupCJXrdbnegtTpLlgw647OMqfr29jFUS/GRVTfhmpNSVoc2tTTrQ6qDIMGuUS4Dx9qZdP1XANROgSV8Hc6XWBx69x/SiDcrlHdlIZDTG1rAw8R2nz7H6VbGV9mXJja5Q4N6vPjClRdu2R5jP/ABVfimrVGzM5NDhboqwelKXIrYXqjiRTGW6uW/FblmVFMMFDjE8Egn7T+VODfNcr1bXTqwhQkhFUMI/jMx9SR/6aw66li/bQylZ1XRbQSygjbIkjvnifWIo83KVW7pVQCZgATxMd6t/aK14se2CXwgb0MviVU3hSxr5qvxTT7RXMZNfrI6qgXuVi9ym2gc2Nk1INeteFILmpPah26iRzQcSeodEb9WW7XJ3OrEV4nWDQonqo603KF1F2KRHreKC1PVmPFSiPKhjrNWBNK212aAu32bk1gzU6SKnOzoLfURHNSuck1KlIG9nb/wBrJqr3iaXLeq4vVk+oiXbWFGvQaHF+p8aj68SbQ0PVviUELle/GqfURRNhvqbg2NMERkdqS3uhI6hrZ2MRMcofp2+n2onqV7+7Md8UTp3hVHpVEs8ZSp/BbFyj0zk9TpLlo+NcdnGV+/b2MVezcyDXVtcxB4PbtSbXdLU5twp/l7fTy9uKXel0aoZ0+JBOm1sgCiviA81zFsspIYRFN9Pc3CRzVsZX0XuK7GlvVbTRA6weCqn3z+tJfi9jg1s9oOvcHzHbyNRzceienGXY4TWof4Y9j/Wa2S8pxke+R/pXH6XXOpcP4dk7p48Od3sRmi9P1OQJPqfT3NMszEeki+kdKXjmudv22GpRyNxbEDjcuDE9vEDVB18hTtMgEiDB4Pkax6GzsyF2JAJAJHBK/vFYtbk3yhH5ZlngeOW3uzqTcrz4lDXWKmDWXx63+ulwZ3B3Qd8SvPiUuOozV0vUv1Mbom0NZ6HuPVPiVR3o/UIDgY3XoNzRNysHFVS1DB6YI6TVAlFgVUqKVaoPpIxC1VkojbXkU71IFjQGbdVNujttUcUktS0H00BbDXlEVKr+qZPTQWLlT4hoZnPHei9LbnmqVGy2j0Oa0tiiDaFZkRQdpgPSarNWqpNK2QF6i3gj1FGWnwPahdVblfrWoXFVRf3shqz1QvWDua0tnNW7ZNhoD6ppHYb0EkDI7kenn7UlsdRKnOI5FdeHobWaS3c+dBP8ww33HP1q6M3FGnFnUVtkuBNd1wYBlIJHP++3+lE6bqMid2f94NLtZ0hQ4S25kic/w/Uf0oDU9JvplQYBBLBgcA55z+VMsqn0zXDJjlwmdJ1XQrqUlH2NjPIIGdrDuJ8v9Ci1Nq9ZWXTcAJLhi6j3BAK/aPWvNJ1IoVDkZIgExu8x7xNdFo9YrELMD9fSrYq+C62kc/p7ACbmBDswIhiRB5DDj7RzXSJeRPgojj5mJ/mMATjnlh9qr1rp6JsdIG5iCo44ncPLyj1FW6Kiw19hgztMcIOPvzWRpy1VeEjFbnmvwhj1F4ceqg/r/SgviVlr9ZvaRwAB+p/eskOKeabbaMs19zNTcrWy9DLzRCjFUxaborN91eb6H314Xq3aw0bM9ZkTQ73M1ujClkmSiFazZq0uPisN1Uf3UAjPVVesr1DLdq7gg0Z6xd6G+LV+1V5JUhinxKlU21Kz7hR5e04fIw4+ze/r61bTLGDgjtQyOaNDhxkwex/r511dt8rs25sF/dEs5isHasb7spg/fsfavVask391GNmrNWdZXbkVgL9OoOSAa6nJUDzop0ilz3Y2n1rV9VNVYoXNoY0vEVRLkUNcvedZq9dP0eCDJ7woS5rIxWDsTWdq1uYA+/2qnJha5BRFUi4XPcUdbvUqe4xJ8gYq6Xaz4cbcN3zZEbdR0aMhdUUODJYDJH/P60p1CsDvQkCcjt7GmyaiDnjg+cHms72n2OU53xtj+ZgIH1n8q1wT20zo6bJujXx/gNtaYuyOWLAqIB/hnJAH7+lWt2NunYI5IS5tgn+EHZBj1j7V6Cts3HUeFSxHrtwPvRm0JpTuyWABPmzGSfvJrDpVuyTZRF2pSE6PW+6hkStCK3TlBQryZguzWxeKHttArO/crmx4lYpqz1iz1i71j8WujiUZK0FG5uUTZuTQIoixikml0ELciKyQ147dqrZWsE1UhT28MUAqSaZNbmqizFLvcWMCbIq++vbi1gKk3ujYLCgKlYb6lVUANV/Wt7dyKU6TUzRy12DsUMlcEQ2QfuPUUBq7bW++5Tw37HyNaI9FWdRgqwBU4IPBobYy9xRlwKXK7EV3UzQvx44prr+jcvaMryU/iX2/mH5/rVug9FV91y8DsSMcb2PC+w7+4q+MsUVTMLg4umLVvllE9q8W63aug69qU2BEREAMwoAwBSWygiqNNCMpykumyJGRtu3etEWK0IodzFdBMNBasOaY9ECF2ZxIC4HqaXaOySJNa6hii7x2In1FYdZmUIOu/wDordKyuv0wVDA7k/nStVPand1t6+hE1n02yNxNUaXUxhFQYEwOxobkyVxRjWm3o3ZPEfMC0C6+/wAsfanBKoNzGBxQt9wQxX+Xyzl1Bx7FqfPmSdxf7Q8JuL4BNToD8IoW2yQC3OCY3Ae3aqb3dPgvG5HyRxKgj7Z/KidRdJs+JWUggZjOZkQce3tQWkuZn1rFp8ihGTXY6nti4ryapp9uDWnwxWl4yBWVVvM3K5FLMmXNVQZrV0nNU2kcGjKSCZX1EGgCnembITWbaWr9PPYBAiAzRKGvP7ORXjIQa1cSdjLk3Yipa5rFUbyre0vnWLOqkBrk3RxVn4qgSvLhxSbeOSA7msriRXtu8Jg1o7AmKCVrgHYNBr2tdtSp6YaOY0ev24b2ro9LdkAgyKWa23auCSCH/mWAfr/N/vIoPSXntHHiUcx+47V1nGVXRvx5oy4Z1du4DW6kcil+n1KuAwNM0AIpKNF0b6d/IxRWodnQDsskoo+ec7vU+lKrdyGI8s0XZu5kGhKKkqZVPGpLkTay+Jk/ah7O53VEEsxAA966XVaa1dH94vi/nXwt/mHyt9p9aE0XR2R2dXDwrBP4WkwODgYJ4Jp8S9HG/PbpGKWKURJri6O1skHaeRwRzIntWYaaY9Z0rtdRVRt5T5YMnJ/KO9Bt050bxwD/ACzJ+tWfURhiU8joRuuxppCFUTVtRY+IpWYBHJ/Wgr+phYj6URqG3WwVPijK9689rM/qVtfbKZzUlwW0UKu0mYxPnWllIJYYpTptFqHEpbcqMzG0fQmJ+lHafUNGxlIImZrM8WWD3K+RYyfRprtSWIHYdq80twsrE93tj8rjH/4ihwmTPc0ZYGF9bh/9q/8A7rZC4pqTtvssQT1dJtoB3YfoaX2tPAmnGuTCD1n8orLVoAhjmrNtRsYEsOCtUZqz0oO31k15eBFUuDlG0Bo9R6ui5oaIrey85oQ3Nc+ABCoK8LRWthdxqazT4nvWqPt3MYFdpqiJJzWRcjFRGNaMVSVphQxa3isRE1RrrRQZvkGklHcwB9+4BQb6pY5oLX3jyDSNLzkkVfiwqX8BQ8uMAZrOzq80CjPwastsqwY0skoppc/oHQ/S1Ima8oZNWsfN+lSmUJV0E5/U2HTH51lasOc5rqtTZQjkHNDG0q960S1ErpIFsWaZyhn7+vr70402qkeFpBoG6gPFZ6rS7AtxJBI8YHEjG760J1tUn5NeDN/bIb/H2sGbjgnymiUMHBieD2pRpNaCQWEgiDRtttmOVPFJRssbpdPcfUUSlwdqVW7ndTPp3+1EI6txg0ytAaTGdjWMMAmPI8Up1fTjv3qSUPIyWU+RJ5Hkf9ndbjLyJFE2dUAfTgggEUuTHHIqkv1ZnyYYy8CC/p4JbmOKh6jbR0Rx4vmjt7E+VdF1NLEKXRgrGAUmA3kQOO5rneo6XTG4RuJjGec5rk5tNHDLdLlfCOdOCg+gHrH4i1d5ioLIudqpKyO0kZNBdOuar5tr3EHzCJx3MnNdJ0K9tZiQNqrsHrOZq13rGStvw9jxBorO5SUauxVG3dlumG1cYB32Aif9M8UbrrCI9tbbbhDtPOSVX/60k0jhSSQJPej0uglRGQOfQmf9+1GcXji1JK/nz+i1Rfka6wSqnvx+Un/60HdvgCttTf2iDH7k+dL7K7ngnvUbdWguLXJ4jwJrexDCYoXqbFRtFedM1QXwmr4QahvXXka0i2tKgT3oWwW5gx51r1CzLqScE10Gm06FBxjtVvpxlHcuhXFt8CrT3SM1fUaqRFB9S1Ko7LPFLb/UB2NLixOcnF9E2+A93rNW9aX/ANqJGDNYuzHOa1/SbF9rDt4HJ1Aig7oYniqdOss7egp62k4kYFYNQ/Rp3ddlbVCL4ROCKtc0CpDedNXdFmOawvapGiaWeuWxqKfKI5IXamBFD3vEIFMiiXD7Vjf0wWNuZrToM8XBKXavsaMk0Lk0mP8AWvaafA9qlN9Z+UP9pgXxisSCarp76llGDJiOxJwPzijr0BTcVCoHzJnw+omTt9zj242b4QlT8kUfgHRSDkcU+6WEcNuAIUEkHgjaZFI11yNmjulX96XnX+EKnuWMn8h+dVTybotNdBapCy5a2NtIwcqfP09xRWnu/wAJ96YarTq9krHiXxKf5Y5+9c7bvspHmPzpMM3OCb7NWKdqhyh/57j1oh7R+ZTDeY4NDBZh0+Vv/a3ce1aaa+FbYTjyP7VZXyaV+ArTaycMIIrXV2jt3pE8x7VzP4ivvauK6N4WHHamH4Z6t8SUfB7fWg3aGquUM+kdQDqyPwfy7yPsD9KVdb0rJdDGCjDD8Bo59mHcetC6lm0z7GYkGSDESpOCIwR2PcfnT/T61HQBwGQxz2PYzyD6j1qjJjU1+V0U6jTuatAPRUDli/BwI7RWGrswIC7T5k03s6HY4APhJJHqPX1q3X9Kotbx80jPuaxY8NzSkmmn4OaoU/u7RzJxEt+1PNGkqjDyH6nNLdBpLbt4+e0nmnKFbVxLQyAqiOcHz+hrVrdssSb+RotSbSK9d1AVlXvE/SSP2pV0vVn4skEqO9FfiO2DdXJgWx/8nqdB0u+dgmP3pXifpqS5Hk/tow6n1CWiKH0QBeZyaK6ps3ZEGlyMquDNa8UU8G2hKtDnqD7VDHtS7TdXck7DijddqlZQog4pbaKDFZoQlKDgl0NF0Leou7vJmsk0hPem14KTArO5pyODXThHbFIBt0ywJg10b20W3gZNcvpyUIY00braYn0rLn37vt6FlbCtJZ2AscT296NbUqBB70j12sRl8Le2axt9RAgNmK5E4ZpSfw+ytpoM1lsST50Zp+nWGtKwPjxOfEDPikdh/pSh75a4MyCPp6U00yqgMnOczHP71Ysa78dESRmenIobOZ7e9e6R0AO+IHB/oK5/VdSO9tpJE/8ANb3eoKwUKPlGe2argpQk34+BarobOFJmvKT2+pMBEVKnoxDX4Eugv7WUsMqQ2PQzXWaV2F47iYmNv8MTHHt+9Juo6ZlKNtMEbTtAg7Tjc3MkYk8020j7gj8blViO4JAJ/Oa6Gqk5xjNcGprayzfh/wCI9xLRVNnLOYA3Dcg7kmP0rH8N2z/Zt5+ZrriR5IAv6g1l+Ide1m+zCYeypMGJnch942A0tPXHt6dEW3KqW8YkjJLz9j+Rq7JuyQpeRUuDudAu7cp4Kx96+fa/Wi3eZGEhTEjBHuO8ennTPof4j/vSbrkb4VbaqSQSRt9WJmMedT8R/hl7TNeaWV2mInYzRG4EeeJkVMGOUFTGjxIG0fXwoIIlTWHW+qK4DJIYHt98/Skmu3702yqlTuPzA5Agwcd6s9q5cGFG0eKRgnafTOc54q2WN2aY6il0OhcN6ztb5lMg1j0vUFCjTM4JiCGB8S/v7EVro9PIDNIB+ZREjHrxnt2rS1pFAdVJgk45kjKnHDcUqxySH9dN9nSdS0ia2xsJ2uviRwYKtHB/6TwR/QVx/RupXbLFXRgODKnbjHPAPOaL6L1zkL4jHynw5HnPHrTHpmvKOGZZDhmJEkSoZ2EcgxmCKSW5dKxckqkpRf7Xg6TpXUEdFBPfHmD51t+IWBtbEZd+9ARzE8EgZAyD9a5NNQEvO9lWFokHIhVJ5C+mDjtTrrVk3bdt0KmJ3TO7MbdscxnEd6Kgm032DNCMo70JEcg55HNdho7AlGIzst5PPyLXJ6LSvduIiOSWeCGAmJ8Q2mYjP09q6jTDUbzDo6hjG5NhKjCgshgY/wCmqs+JJKvkxbVF8Cz8V3VRxPcBZ8ssf60P0l/hyUYkGDt5n6fas+pdRZ7jB0RB8oBU3FDL4WG9BuOQT8o5oVNMsSjzjCqTJ/7RyftV7xt40l+A1xyEdUMmSP8Af9KAtshUwZI7DkVs+pW2vi3kei7lH+bisRpRvDpMN3xmRPFWwSjGg1QXptLvAZXwfPkVtb6UwYHcDmsPhG14zEmibd2QCFaJnGdx5xRUotWiUG3elgeO7BXtsIB3dl8wYk/SlWtueBVUeLzpqyEbmZWlyIWANkCI+vPrWeq6UfE0z4IRVaGLeZHkPf19DWptRTnwwJ/ILodErCLjqrMkqrFpmDkBQd0GPCDOfOhtVolDFBLsilnAHywckYmACOf6U3OlbbaQeG4o3K4Jhv5lLIcHjkA884FWtbwWe3/ilSWZiGcEFYQzJiCDujI4Pll+plHI1Lnyq8oTc7Ygtom0tBj8s9q1s3LCiSJptqdVutlQgXcTKhZB8Ql8iFEtG4RJMZjwgWtC+0N4SJjBk+QOO0gj3BrZDNCUfHI1pgLXzJZFx2rT/wAUbYV2mT3otunOULCRxA2tnvk9sfbHrBd7TIyKyICSqgtugAgBjuxEkKBjOTPM1Tlliktr6+UR7Tlrtzah2rk+lYJeCq27kj1/anV+6ogvaKblDKDiQZAP5Giek6ZGfesSOViQKzz9LT8yTr5A1GPYL0jXkWwMHJzUppq+mI7Fg7CewAipWB59O+eQb4/Im6prkvpttgsNy71YbQVVgzGTjMRM96YdLdEREgryFDQJySAv82COMYxXD6TWXkG68r4Ey67iI4jdnn1plb6jcYFhDKTkoWbyHiUDEEnHaa7c9PHbSZZe7sffjI+C04EFC1tmY7QysA6wc8FTzA5zWS9Tv2kRLmnlfCyhV2DBaBc2KQynesjvsHmaFGjN8qpZow0NIBMcwflx+czQiXbtl12kMbTFlU4WR8rGIB5nBGVHNDDta23bRLoZ6D8TILvx3VndRtVWW2gVhG9/CBs7iMxu5ni+p67fvB5v4ZvAsEMqkZ8YHPkM8c5pXeHxV33F2t8zuShLsTBG4AEgntJ+kSchrGtAyAI+QLgL5kjkmSInuO8VfsQ1mj6ZLwDbiDxIlVdlz4sZJ7kc9/OjrMqFVlADA7GWCu3H8vv596QL1JnyeQ3fygRH50T/AGgKVIjJJjI55yOMiaaqFbs6FrYZWXgx5e4wfKIigtAzQCckQhnGQJU/lE/0qWtUJ75k/vH6faqPfJCqDJUgiATuHH9f98y0yUa6xLY3llQGJLQATJ8MOM8kVjY1GxtqSshZnaSVMgye5wMce81nZfe7u5IGAqwMkDMEngjkRXunCbybgAgDaQCxP/pP69qVR8h3eAt7m4n5JgbDEEA/MOYkmTxHM0eoQWSDcO9n4U7URRwTLSCxH8JEgjBFLr/wQRtQlSMmYO7meJ57V4+mJU5kTuhiDHmRnGBEc0HFeCbmWu9QuDxW2htwlljdEbcy0DEcZjmmdvrN8IVRgHgASAR5SP8Ag9uKTpYVA+xdxiWAYBlEeIrzJ++K0bSuAWTftiQQC8j6CD/D9qDhF8UTvkn9qywjcw8R3TzIlmVxg/1NElA5BI8aGVmDGRJAaRHPlH51TU6VWQMwXd3VWaT6DEE/sTURGwUZeARumSAMgyM+9Nx0SjH/AMRZLpTduBHiwfFPhgqCRgyBkzHatbLwQgMHwna2JB+Vh5Y/SqazTuzhXC7fmR/41LTKnaRuXynPHJmWFnSAk/xFcklSMcniSATkQYyeJpJ2otkN9Vd2LLEcR/Nx+tLNf1REVXHiJJwwhQQOCoPqs/WmWpZCIedvBI8MTgdjiaQdR6Qzk7GDIu6DK94ncSQBiTMn9ap0ySVAV0Wtdde6wfeu4DCyVUj0yQDM/ejtP1hwypETjkkSCMc8+fsaQ6T8Ia5ySECLHzF1G4Ex4QDnBn710em/Cd1Ff4t5GIEi2ilZJ53Nu9AcetXyXh9EVG2l1F3YwtvbVCzbjJNxpO5l2rLKkEktGTIkACdzc2xcF5SwEQIIXbnbJI8+/rxRGl6IgQTf8R8QlAWWI8BYOC4BJ+/PFVudCst/i6lmgECAiATPigkr3OIrFPSyk7TpLr9FbjXRp0x9+5iSXIAJCnaVAIVEMxtntEEmgbha0t19QxDHFtAdpLkAhiw7KIM45ORW2hvaXT+FTcxDQzwIKxLCBjnGOe9Baa27ub5upt3FUDDezCRkCACo3STg+E4NUy0yh9z7+BXHptHtrqwKG1vLOGMtB8UkyBPfMcAY88Uel2EVJClV8KkuwDjbG7YYMgiJzAJzQatsJL20dl+VgzAYHzFw3n3XbkHtQ+h18sQhKF2AC7/5zO0OkQmWyZ2jjkQkccHe3z4/IXFeBp/Z9yucFwNzhjCqWb+FgGVZJQc+LJHEDzp94fDJXazLAaMmYnuBuMH7iomqe6YL7kQkgqzEHMTBwX58RMwcEVk3TlBCA7IyswskzMbV8IwOfTJqjU1Ph9quf9BnxwYnpat4gzEHM7iPfHvUow2VUAEBjHJaDyew/fNSs22X/op2fk5nqn+G/wD5Z/Q1xOgYi4pBgzyMd6lSvVL2fwaGfT9B86e1UuIM4H+If1NSpWDT/wBVixFPWLSymBkMDgZGMHzpZaUFDIn5uc9jUqV0IjMFRRu4/i/erqOfc/rUqUH7hl0NVHgT3/atNRhkjEkTGJ9/OpUooDKbj8YZ7VtcGD7D9DUqUH0RGNr5fqP1phd+X/NUqVXHsZm2iQFTIB8Y5z2NCraWGbaN0/NA3cHvzUqVYxQ/o3isuWyQRBOSMt50X1z/ABLf/lipUquPkeXZv0VAwAYBh5HI59a3uYUxj+87Y7VKlCftYI+4D1/yNS67yPp+bVKlV6f2hfQo12vuiwIuOPD2Zh396A02ocgSzHPck/xmpUox7Gfkbam621cnmOTxHFcrrLha8gYkj4gwTI+Ydq9qVY/cVro7pbK/C3bRu3um6Bu2qzbUnnaOw4FY6/DAjBIEkYnC8+dSpWfV/wBNiT6CdIx2PntQy2VNq8SoJFtCCQDB3jI8uB9qlSsmk9rEh7WEfhpyVWST425z3pvqv8VvavalczP1L9lb6MQgPIH2qVKlVLoc/9k=;" vertex="1" parent="1">
          <mxGeometry x="50" y="440" width="201.03" height="150" as="geometry" />
        </mxCell>
        <mxCell id="Ysqgjk3QRdwO2fdqVnxJ-14" value="&lt;br&gt;Nativo" style="rounded=1;whiteSpace=wrap;html=1;" vertex="1" parent="1">
          <mxGeometry x="80" y="360" width="120" height="60" as="geometry" />
        </mxCell>
        <mxCell id="Ysqgjk3QRdwO2fdqVnxJ-15" value="Framework" style="rounded=1;whiteSpace=wrap;html=1;" vertex="1" parent="1">
          <mxGeometry x="610" y="350" width="120" height="60" as="geometry" />
        </mxCell>
        <mxCell id="Ysqgjk3QRdwO2fdqVnxJ-17" value="" style="shape=image;verticalLabelPosition=bottom;labelBackgroundColor=default;verticalAlign=top;aspect=fixed;imageAspect=0;image=data:image/jpeg,/9j/4AAQSkZJRgABAQAAAQABAAD/2wCEAAoGBxQUExYUFBQYFhYYFhoaGRkaGh0cHxoaHBoZGRohGSAbHysiHSAoHRwZJDYjKCwuMTExHSE3PDcwOyswMS4BCwsLDw4PHRERHTIpISkzMDIwMDAwOzA5MjAwMDIwMDAwMDAxMDAwMDAyMDAwMDAwMDAwMDAwMDAwMDIwMDAwMP/AABEIAMABBgMBIgACEQEDEQH/xAAbAAABBQEBAAAAAAAAAAAAAAAEAAIDBQYBB//EAEUQAAIBAgQEBAMECAMHAwUAAAECEQMhAAQSMQUiQVEGE2FxMoGRFEKh8AcjUlSSscHSYnLRFRckM4Ki4RZE8TRDU3Sy/8QAGQEAAwEBAQAAAAAAAAAAAAAAAAECAwQF/8QAKxEAAgIBAwMEAgICAwAAAAAAAAECESEDEjEEQVETImGRcdGBsaHxBTLB/9oADAMBAAIRAxEAPwDYoMSqMJVw8Lj1mzzkdXDvLGOBcP2xDZQzyemGVqMTaSOmJhUgzhlRpMnCtjwBU6yMdIPMPukEH6G8euHFcQcczmXpJOYZQvSd5/w9Z9Rihr+MctTIC1jUWOqkx/1b/UH3xL1XHkrbpy/6un4f7NGVxG1PGar/AKQMsAdGomPvcom3UAn8MUub/SLUM6aQVf2lMn6ssfhhvXgu5ltk1hNm7qAASSAO5tioz/ifLUQZfWR0QT+O30nHneb4nmMxdn7lZO/oCTb8MOyVGmpArKdf+IyJ9tvrjGfWJYRpDptSeXhGmzHjHM1Vd8tSUIpgsYZrwAYmOo7/ADg4FyPHM0HU131JqEz93m3tYC9x2GJKedIpmmICsZNvb/QYipAM6r3ZR9SBjj1NaUss64dLFfJ6BlGkC8qfhMbDYD19+0YMVRGMXnOJZmhmavlc1MVG/Vttax0HcbdLYs+H+JEq1AVJRoipScbdmU7bkCRjXpup3JJ+Dm1tKWireVfJoKhwOUxOtdT1+XUYaWHfHoRMmQEdvrhBME2wqIm8e3vitwUNqUSvLHqf6YYFjbE9eoWP5vhgXCTxkKIwpwxlwVow5ctODdQUBhMS06M4nKKPXC1YHKwoQpAY5omYG2+OacSoSARtP1xIwZgcMFDBHsPrjnlzvirFQOUX3/lhaJ9sFCiMI0xhbgoDan6YWJ3GFh2MJVcO04ICY4aYxnuDaQHEVarFyYHqYwU6Y8i8e1a9Ku8NVNPUQGImFsCA0QBq1CP8PXGeprKCXyVHTlPCN3xHxVlqRIaqCwMaVIsfU7D64zfFfH7MIy6N11NvFxEW7fm2MDks4T0VjOzEaj7d8HpxQCxUr6Ef1GOafUyeFg6NPpVzJ3+As8TXMP8A8Uw3sSGlfSTaD6jFgeGZNoFIlp/Z6d5i3Tp3xXDLGqJFMn1/84a/DKSufLzAU3tN/fpq9gCffHK5+TqjpKKwiwGRWlGlQw6sQCSSZ+Vzt/pjrUw1idJPQiZ98BHL5kUg61FrSSIK3t1B3O43jFdmMxXQ/raZSdv1bX9iTBwZGFZ7gLLenbuv3T7Yrsw9VLOpHo1x8uuCM9naiqFisCb6ampZg/dAAJGFlM7XYGKKQd5HN/E1z88O2GCKhxAiNM9tJuPkf6YufD/E1OYpLsS6iCPWbYql4BUqkksqg+sk/wCmLLw3wU083lxqDfrB6HqduuMtVpQbXhlxvcg7iniukMxWDBj+tqXH+Y98V9fjq1GBVDqBlWWdQPpH8sUrVv1rkoDqdmg73JPt17Yscjn99PKRuLA/TBGKjFL4Fds2vh/xGanLWVqbzAYiA/8AocaWm072P88earxF4ggEHv1xe8L495VFGqyVd3URcqFC/NhzY69Lq3BqMvwcWr0vMofX6NmlIzghrCO+K/KcWXQHkNTO7C8DufQde1z0wfpm++PQWopM5UsDVGHgYQp4kVPXFNgOQDrhzthLGOFZ7n8MSWRaZw4KBvh2n2GHhcDZNEY9BGG6MT45fv8ATCsdEQpnth2jEgXCMYLChkRhjLiQnDCDgQiIrhYeUOFirAOAw+q8x7YrvEfFvs1Bq2gvpI5Rbe2Me/iutVqqqsUDKXAEdgIP3rTO1/wxzT1FF5N4abksG3zddUUsxgCPqTA/EjGH4txelUqONa1aVV0TQFK25plpm41TA7XE4fU4hXqIAz+bTbdSezBhBAB2BO/SL4pszw+iHLKGBBL2sJIHoZHT1xx6upHUaTXB1aWm4JtMizvg7KVKYdGelrYWjXpiQQIjqR0O2KQ+FMzSqTRfzwl4QkNHYSp6du+NTRz33TTYi4Hwx1tuDMsLEdcHeE6Y+1JAIBDSCIhdBiDN74UE3KmxypK0jH56u9RihKhG8w+WIMcjkcoEi4HW++OtQVqakKzMFAkQll8y5m+8RGLDOoUfQUBKvWgy0NpFQ9Ftb+vzbTqMgXU625DoUEkmo68pOqPgLbXHbo3tTwCtoP8ACObWnTkgmVYWbTchN+/W3TriXM5Z1DMC4BJaTeDNiCOhn8DbAnBKBFMMjMpEmbkW0za/z7W7YsqmdefLZUg2DarECwDKVB/E4mUleRxTrAJmOPtR0s6+bl3VDVpsFeJEalnsQJHWehmZuI+GRWQVsm4qUmv5diVB/wDxkxt2Mn32wNnMpICNGkoVm5mxAiOxnfFRwPjtXh9Y0n+CZvtfYiJgnrbD2xawK2mQjIiSrmpqBhlLRBHS1vli98I0qa10hkGkltJEN8JuLkHp164sM/UyPEKTVixWsqmCraSxEWIFm6X3xPlfBVPKt5yVWYmnUXS4UkE0yZ1Dfbtjn6iFabZpCa3Iw9TMUgJIYrHKwW/qATYj5xHtgRMwkaGQtp9Nv8pFx/L0xsaeQQZerTTUx0HSrFRAC9DsbAHobWJ2OE47k6iVtDPdrqAxOlSxCyOhtsMb7M0iHOlbLPO8WmnRpaHXQCNTkGZC+u1j2GJs9mwMtlpdRLVj8W/MgtEz8OIX8I+WZZ6jkqxMUtIgC92a4uJ9MWPFvDdIUaAZnVadNyvmMiai1VpDGYBsNjsRhT0/fFPz/wCCWp7G0VeR8SnLkmm4YH4qZDFW7gyABPePrtjaeF/FK1KcIdLU1B8okkhLWknm/G0TfGQ4pwrLaKbZejVViQSHYOHBHKqRvLEdNgcF/o94V/xpNQS1MBomBqLqOm++23TGl7HV+P8ALOfUjvz3/R675eHKuGfaFXSGYAsYWTuYJgdzAOCBjv3HPR1UwqYAM4cHwiBhWVQ2BhEYcIwpGCwoZGOxh4Ax3SMG4KIiMLTiYKMOAwbg2kGj0w5vhj1/1xNGGsMLcPaDFMLExXCw94tpR+O6yDLlHBiowWRFjIM3InY7XxhMuiB6SqrQFMORdj222kzv6RYY2v6QADl1k6RruZiBpbtftbrjBmtTSoqIdZDbkmwtN2Wfim3cn3xx6kvdR1acfaXArVIA0oQduUg7fehv5DpgTO1njmVFKmba5AsGBERPT54noVFUNFIQp7gxP/THcfXE1aprdOQXYC4BUA7a4InYfm+Mu5t2IsnlptWYrTLEM4Utp3+EASdztiw4GyfbaQptqTnGrTo1DQxmIH3vni1pFJ+4SSCQQN9N4jlB/wDOG0sxTpPqTywEa3w25qoj0EQPniounZNWqMbx6g/2hykSlZyDp5uZz1Jgi4sMRcSy5BIZoBRWAELfW2leltLn5DFh44zOtRUpsNNWqGTqSGSnEfP89cUa5rVUgB2GhT8MGVNMAjXuOvz98Jp2CpKiy4SCiBahIKwGOr4epJIN7A2nqcXVTM0XFHRUVmDrsQdyA1jPTGf4FVnXqJJ1KNhNg4+skfy64umy+kF1kEEdFmBZ9rgnmFvlBwmgTIEpgaUKyLwJ6be282xDx7g1KvGqATcMANQmbW6T0239MTuLyCWKsdpvAWBvPTEuerBVB0S0kG8XUWsB1n8nCsdWVPAuJZYUhTqujNTpuGD2khqQXTO/JTWNN8HeHc7WqJqqMXK5SoSB+0y6RE7nTAnuDjOZfwq9Wg7omusaiFdLcyLKDmEwJGs9fhPaMaHhgNOjXDDS6Zcoy2EN5gB2t94fk4jqHu06+V/ZUNOSk8PCz8HMvWU/PAua4AlfMrVepGkTpC9iSLza5/lhIwiNvQ4u82adDL5V6jhdYqEtEyWNOBYG8EfNcdGtahceTPTUXKpcEedyqgAQCoYA2IOgkB4Mz2N94PyZx7IVXFPRW0oFJVSPva3iSASNwOu2DcvVUoQoUBtIEgkkNB6bTPvvOJK+ZVRTnmYU1N5iWkzaJm97i2OGO/cn3OmXp1XYqstk6xAphVYAkhxIAkaRqJ6+09e84EHDfs1XMalFUmlSMMOVnasYAn1Vb274uqfE2mTyoCbWA39vUYbm8mCMxJmaVKLGxl6g2vYkY1lHakry2n/nJhNp3JLhMGfiNatxCnSdBTZUR0vqVZM3uCWZl0mNo+eNTx8Vhl6pWpBFNiCikNYTYljGMpx51+15XMUoIdGQkGxZdNVb3tLt9Djeq2PQUuTkceATw2SaCyWMSJYkk3nc3IviyjESVJw/Vh7hbR0Y7hmvHC+DcPaPAx2cTZciBtv/AFGHEj069u2FuHtIAcdnBAI9N/6nAa1JwbhbSWcdxHqx3VgsdDjhYaThYVi2mc8bUxUy6REmom8SIDbA9ZOMXmOHwYFUFyRyEyZG+rSIiAAPbGz47kq1OirOpU+YQGlLag8HlJ2PTvGMc+SYEVJB5heB2jc36D3+WOeT9x0QXtDShAOm5ne8HqsXmZm/rir8T5qrSpq6sJsCsAwOa/cbnf1xeUKTRqERPQrIIuBO/wBMUfiyiRlnkidat73K7TvBGITyW1go6HiWsDBphrdNUkG0WMfha+FR4+aw8qoUQOWRnewVGBkntBA/limYz0n54gzjHSbd8a7URbN+hbyaaPWDCnOiybppMi42CzucNo06QBOp5VRzBlPI5iSArWkCAN77RjlA/qqB8xVu5uUtrZlJEzsNB363nHMuhDVJqBppaZDITKMhG0SJPyxDvyUFeH6SEE6heXkGRq1W3BMR6W7YvqtCUDU6nWG1XgzLAgaY73P4DFD4ZpVAnwnoDdRBvII94xbjKVRMAyzTciCeUjc9xHzPfEy55KXHAyjkPMZuYdzAkHVItBPVbj1xFX0LmKEkAtXBaeUgGWW0X5hg/h9MqSGseTsDZm2jAHiem9WtTVBqZVqOAbzpWAPcm0YwepJS2o9DS6bTnBNuvP2GZpWyWYWqqzRqfdiLH4lvsRuPp3wT46yivl3r0zPm0lUEbEebTdTPTrP/AIxS+EeG18y9R6lQLqAkFeYr0PtMD0+eJamdajRrUKy6lp1aYKAwRr1sYPUHSG+Z74UpKKV8Nr+Mm3UQuDz74qn8p8Gdy+bmmwiXWeX5iRg7xRXq5jJ0RSVmekWZ4O9MrAIAMtcCYnb1tW0MqM5mD9nYoACfMNlgLqi0MSADuLbYv+FZVkoB3LNHwqAbkmJeBIFwT2GO+LjO43xlnhy3Qppc8GKFSotEO7zUcDy6cnlQ/faSexgdlJxY8Zytarmlp0wGPl0wS06VC0qZJN4CjVOG8a4e8F3Kk16lO+qIGmouxsBeIHTGv4klQa0SkYLoJJ0+Z+rUCJGw0qLdQPTHmampsmni2n/HB1Vui1nt/Jnk4TTSsmgxojUyjSW1cgdeyq5URvzgk9BZeHs0KaZx6tQJNcKaj3jkIG5udgN8SUE1HQaZ8wBoCujHYhgVkGCJBH9RiTgvBDVp1BUA0vmGqFW0nl0LAdbw15jcWNsaqUcU7doxcNS/cnVFH/tdKiZanRqKwpVxsGBgrVP3wOW4Ex2xucnxqrpYOaQZTpBAqG0AgtKRqIIsLe+MnxzwmMvWpV6IYoaiq4AUBRESQBuTBnv74n4dl6lWtXf9W1IVCq69QJYEKRy35QI7TOOtzlVxM3F8I1a+IIX4gTJvoI6kbE9MRvx0kR5hBkSQl47fFGM/xLVl0LKaQXqpLtqY6mgStv6d8MyFfzFUkCWQMBDQP8x2xnLU1FnAR0pS4aNA/HCf/vOLdKa3+px1fEJAALs0dfLF/wDuxQZqhVYQrU1IvYOTcbTP9MGZbLEIoa7AXb4ZuSSReT0+WM/Xn5/waLp33ZaVPEhPwhv4RP8APA+Y45mCQaZA760HpEQRiAUAN5+pw5csvYfn3w/Vn5K9Bd2dp8fzgFqlIE9BSZvx1YWW4pm9XNUQrewQqfrJj6YcxjEVSqdvyB/r6YfqS8lejAWazWZZpGYZRKkIo7AyCdyDjrcQzIqKWqnSDOlVKhiQRcliYvMemGAxfsJ+fTDM0/Q9hv1w/Vn5F6MAx+PVuqt9cLFWM5FiY7E3BHz2It+ZhYPUl5D0oGm8Z+Icvmss1PL1PMcEORpqABVkEsYEXI67xjJcVRlakodSCdUSQdR1AzzGfyLYEoeLKOtqWVpVZaCQvlgmB95mlQv03xoOM5p6NJDURqtRlGlAmo7TuFNt/wCgw9SdNYsiKwA5Ik2JEEaiC1rEQBMehxW+K6pGWdT1cbEwRqiTcix+d98XOSzfEqnO9SlQU3CeXrYDfmOoAH3/AAxZ57NVDlazVNNU6gqgDyw3wyG3IvN7+2OPV6p6VSa7pc+X+Ddablg8Ydo+p/EWwPmGJBJH4fX8cbvOioXDJRpImmCjVGcEzOqQqmYgRMYB4rlalWmbU6YIAJXWV/7id/ftjddUn4+yPRfyE0KkU6cTbSJAUgyzR8W+53tPvhlCoGkHUb6vhWwlQdrQSRb/AAjvg1GyKhEOZYMLCabbzPQENzHDqoyghhmkEjSdeoTcG0gdQMX6sH5+mLZJf7LHwbTNWgwLFd5gA3EqJn0gfPBAzmtCFMgMvKTtTLBSYJizSY7EYC4L9jpLP2+kJJMBwOvo0xYWxZ8Ky+SrOyUcx5jlZITV8IZb7EbwPnjGfUacbcrpfD/RUYy7AUq5IMm5BtuoIN+gO/vHsBUcW4tXoVaNSkdPKVBgMfiBAvMdNvX5XX27h9IvFeoGRirRTMyLECUvft/LEdWpkq1N2C13VF1hiioCR8MTBYyQIHtgXU6fNP6a/sWyb/2Z4+KMzQzZugmowWwEBmKyenrHoNsbOhS+3065qmYqhUYLpJVA6iY3HO0H1x5zxuozpRqGmzM71dLkCWTUrLtvGpja1zje/YmpoKdOqAyMXBZ9MKaavMGQQC5+g7Yx6maVK6t/0bxlKVuWeED8NyrMappUdFMFlgDSESQCsdDpsfc40PFcnQ8sU3qPT1iIA1GVakenwnnHWL3xW8H4s9JW1VKDu7ltYqIpk2uA0bdhgzMVRXqIyMvJqZkSqhLM5UkMQJCyoJjf6g3p68NOO218/JnPTcpWCZzwlRqIheo/l0pZQrfHCq4Fxe+q/QHHePJpzIqeayil8AJEAlirWiWsBcmOg7YHr8MzT1/M+0aodA1PSkU01CVXSbDRIuJ6nvgmpnKfmlVfXUetDVGXUtMk6iFAACkC8sT+M45tbX05N98Oq7WXCElX5J62QNc+YyMjLVNSnpYB2AEAAn4Qw0kz9MEZXPGtQLU6YWpSOmoh1QsmAYkEzEbzO9hgPiWeTWNLsWFV2BUb2RYvvsQcW/B8xq89loOfMVdZGncBgJBaZg/hiugg1BSkn37N/Rpr6kXHb3XGePgrqz66Lhx90mOzpDiJ/wCkj3E4x2S4jCjSIBJY32kzvje5khWEIyyT8SwBvv8AIKLY89o8LqyZUMWmdJBvJmY2vj0I60Fhtfzg43BvNGrylNGVPMGoFCRN51ST62UDt03wzgvDxq8r9kaQY6Cek2Fv5YsPDmTBQkhhoSIeRMUwtgehgYBOeCNaoqsYtt0MCZ9cOck42shppphRpwTsL9uxxCxHzm/vP0/HA1TOCb1FPva0yevqN53GIzm5+/TkAm56ASfawnGJ0WFF9u523/P8sMqVexv+I/0/N8CrmiWiU0nlXmJZiYnVyjSQYEeo22xGa5MKCBFoDQJi1yJgx0F49xhiCZM77b2sv+p9PS+OlwL/AE7knqcReaLAR0sCPf8AP12vhvmQ0k+1xYf+BBnABO33RG9zh9XKyvmTu2nTHoYIv6YG865J3PqPfv2wjmDsdREzHTvYdbSbb4YgavRSoulhqAMx9f6H8ccxLTYgm0fjPUX/AD1xzDsQW3HGU6aNHKWuB5gWO1m0j6TglOLmoKdR4DVTBA2EKSQN+0fM4wD5umRGo33/ACcErn3WnTCMCadTWvcCGDA++o4qenjBENRXk9Fq/CBqKFiqhwmuGdtKtp6we9hMmwxW+KFAyubCiB5y7SI/V0iSwNhJM8tr7Yj4N4io100swR4urHSb9iP5j+uAfGy00oU2VmJDqsM5YkBGgmwLmw5icYy0o6kVF4pp/TKk2m5LgyNFjSqkI2nzFKN/iUgSD3/pOJzxat5TUmfUrKilSBA0lSpWBY8o9+uKj7U7VBoEsTAE7/yAxzh+efLVGVhEGHEIzAwfhLSBc7jf6Y6nG80ZKVYLvh7msfs4po4LllYyfKIbUSpBHXp1ntgjOeDymmaqTUcqgCkszfExImAALzPUDqMQ+B8xNaoYIBEiRsCZ/Pvi9zma159lJtSoKq+hqSzn/wDn+EYxdqWPBqkms92WPA/DdCnHIDH32EsT89tthGLThnl/bSNOl0osqzILIWRiRPxDVpE9x64lp1Vp01L6tJaDoEtflsNrd+gnA+TJXiGgFmWlldCISS0GooJkm9lWSTOOXq9Nz6eWctDU6ml2GcQrZGgXrGixOqGIpVDLM0WBEGW6jecU/iDxdlEAprRfW0EQijTpYGDJsYHSYwb4v0pl6xZSQT8MkEg1TAlZjlj8Mee8XzSP5Omk1KmswTLgm33oBJFwQSemI0v+OjiUm3+WU+olWEvo2Ge8a+RTpOmXJWqhKKSLRp/ZG5n8BE474h4+1BW0gU6gRV1vBUo1JSABYMRchb7m2M7xvLVfs2SqU5CLTILalUiSgB5jv/Uj0xBnvEpdlWutOroUMDTNtQgACQY5QouJEG94xUeh001KvN55zjkHrPKvwHcGFc0mrAs4VhqRKcalsWBYRBIOwJxccNaquWKBKlIEl/MGlYCUi2mQSQZEn2InA1PjNKjqo6DS5JBXmDEqCRtHcSZ2m+OcM40lXNNTAAQ0nVQZio8QTBmOXVvuAJjYaT0oya9vyClS5BjR4n5NPyqzg/eGpVC2BM6t7zsMUOQ4/WWabZhlLuZeNQViILWuSdvSxi2N1xmn5WUrMN9GkXP3iFP8zjzGkYc2YNJ3tYkg6e/zx0Q0Yq1tX0jKU26ab+z0vwwDWfU7EsQATYkzzE36kkWj5Y1vhSgaVetTmQ1OZj/FHT0/EnvjC+A+Kr5pDQdpBA2IjG84Pmz5lSqoEHlA7X1HY9WM/M40XtMnlj/FFYJLEEhVZyACTt0AuTKtt3x4O+aU1HIQFGYsabnaTfU0AyLwdxb1n27xBLaqYfTUI1uQA0JsIG1yABNrHeDjO/7OUSa1FTYAPUOtmJPwtI0jYQSSJNuxlz2s0jC0N8H8SVcuyQYMBdZR2HYIyE6twJsfTB9Fzpu5YNJ5pEWvAOw2kGw66cV3Cqiw2lQhB5lG8rGkaSJiDsVAvbBmXq+ZOw01AhMSdRCzABksZsDAUXi2MZqM3lI1gnFcktUKRJVDpEmUWbtaLTckx1JmAd8MFFNWny00EAWDKSxEEEBgBYLY7ddgMOzMc8jRTSCXnmEFpFp1OSBF95t3jq6gUHwalDVCxgUaV5G12YajePwvn6Ueyr8F7mD1KSllKKqqAWJOoyqrJO8kSCgm5kxYYhqZWl1pmxUFZvqfSEpmDGo2ZugAEbAg7heXby5gKHqAgMZK0QTUEkm5hNztJ+YnDaTVBQZUJDVajG/wqR8Zn4ng7Cwm+2L0+XXbBMmCtwtJ0qWkutNTNi6sWrNtZV0kbzIncyYxkVYqfMcI3muJIE06dw1gILEjtG4gzgjK5hYoNG9epTEm4JMF9tyASRYY6K6pTutkdsswjYMTcHfRYiN77zjTJOABqEAuZJWgtZrXAZoImYgaZ9YmAbmSqnl6gG06KiDUbRrAKuZm3T+YJvgivUVfNFQsRSp+TVAmSrEFH9hPxTPNhVaKMxR21FqfOAbvTW6VFiCSLbeuHYitzblAWCsxWo1NlAJKkXBIIYwwuD17m0LBasBpqeaA7LpOoEBwhjV1OofCQb2wsOwMtVycTKR26YGqBl2+gjHrGd8I5WpfSaR35WkfMMCB8oxTJ4NyzHlzLEXvpW97wQe+NHOPcw9Ns87I6kYk88dUtjbcT8BmZpPrnoykX9xI/AYyOby5puQNwStiCJBg32+eFGSfDE4SiO4dRZXWoLQZUMsyRfa1vnifJ5qg9dmzAJDm7ISCh/aAvItcGbYBfM1CImTBFunc2G8T9cMyaohl6WserlPnbf2xTeB3RoXyS5aoK1HM0qtIiILDWZNwqgb29PXEGa4jpzZq3AYKGBERyADf1/A4sPDuXNRWqUqvkxystJCDvKySzSPWBscAZjLMahWolWoZUVHqK3KmqAyvcwR6W+Rxjabd8mqbrg9A4bnVq01IbpIK9D+ZBGCsvlVkVWcvUVdGsSjMJnmIhYmO/wA8Zfh/CTSdRRq6AVOqkzBiW+6QDtInFhniXhEzBWY5QU1C8te42gWAv9MQp4qhuO52UH6Q/EAc/Z6ZHQuR0jZQZ7R8vfGNpKC6Bp0a11xPwyNUR1iceiZfwhSppq0Gqwn4uYTI2Cz9Yxz/ANKZdqZ5OYsGIBYKG7DUZAM7D0xS1IoPTbK2r4iyRy4y7KWprHLpYMACCsGR+yOu3vjMcXzOVqMpoUmphdWvV97bSAAxHQ9pnG0fwjljTI8vSWKy+o36kLuBMRPqffFfV8DI1TlYhZ5VABMwLFiRN9rdROCMoLyOUZPsjO8a40a7IVUq4porTfUVESLWwZ4Hq0KNVqtVyuimwAbmlmiY0ibKD9caOl4MpIwNTWTIW5jcfdCWPNE+xvGD6fhvLU25kB8xjCwWZtgI7AQ0i4A+eK3xXBPpyfJFn+L5evlmFNiVdhSQkEL5hhlBmI6YpKnho1EKMpSpS2cEhKqNdhr0ypUzuDEm0HGvGRp0EGkKLaadOIEybi0wBuegBxDxeVASkBrcgsZgIt5feYA29fmRD1Gy1ppIoeE+Daa1Boq1SIlYIZetiy6STbpg/IAUKdSqzVIVgrBH1FI5pe8lYIYwduuLCo+upSNIkLSDkqsGeUqNh3P1xAckrGrUMhap1VJ06WZYERIiw2npthKbHsQVxHM1KtSoERdZWnUpvBNOoFjlfqG3g9oI2jHDlXdi5c6YOpQJF/iQkiKizMAqSMD8Po1EMVFYhi5VSVkAaQoYgaVFybH0vsbCoSdDalDbLq+FP8qmCXOwPrO1iDQDlAIamKegKBpgipy6r7mUUR8OkEYXnSDUBQKjaKbqxCgkglh6kH/EDtfrPmlVKyU2H7TkiSzMCARJEgXAgXIkCBMicT01KwPlp5qErSphwLjSddRQLaLbk9OpGARMtNHzA3ZqYlluFk/CzWg7/iTgfiNVHpJWcnSKumVtqklRAWzKWPr03OJTldTGgKmsmWzNSP2gIQAXFthNliemBsw6iqKugfZsvTYU7MvMwA5JF5YaQfXrvhpCDeIVg1KooZlapLbHkplhSuDcctM+zN64WVzJp1eVQEXLlQ24sHZgke6g+o74qMznXNBg9quaqmksgrCTuIEgAMwt+1gjMUv1+Vy6q2lBLbWAEiQggdL7XxOmml9scuQdUZcvlQCAwrA6dpOgsSY2vfbcY5nEkZ9BuH80KOuny6kiBO0fOfXE3Dqnm183UeGp0mbytUaQygiRAsdyT6+mBUzBXJVcyx1VHlRy2v8AqwDAGpYAvPoNr6Ek9TMAVKDvAXMUPKqerAACPcEH64ArF1UkIfPybMv+ejfVvuApDD01Ym4iwXL5ZVGoFlJYAjSdNjEElSD90X0xO0F5yogzVNNRWr5SksDAq7BZncMJF5sNxc4YikzTUaagtSDZaoddNGHwOZ1i0xvawBWN4x3FpwjLKWq00C1EV/gYWpsABADb7kT0AAwsO0Kj0AcNb/F0EEt/I+2Ia3CH3SB2JQG83vFsXZzC/mfXDftI/Hsf2p7dsNpE2zO1OE5iL1yt9wD1Hrv+GKDiXgRajFzX5yZMqGDH5mR7jG9znwj1I9Pu4r3oSdgMTVcDu+TzvPeDMwvwrrXvTM/gebFHnsg6GHp1NW3wOP6Y9RqcMqEmapCk3UTtPuNxbD04LSJ1NqqH/ESQPYdMPfLwLZHyeccC8O13qKyq1NZu5OmwNwAYnaNo741bcPql7sFXawHraZ6k/ji34tkqhQJRRFEEG+mIiAIH44h4XwysV01bEdQwMj0gW+eMprdyWoxoznEMmGP6ymsA2AAI3g7j1GxxPlM6KCyqUwqkgQm/zsZkY1FDhcXYyIIAF5Fomd+vXADcPaeWAV3949sRsa4YlDOGBLxqSCUAAUswi7CQJJGwFx/XfE75+lUTmJpoo1adwxueY9V6mSJjtgStwi5kXgCV7bmY6Tjlek19QIWQApiLX0i3zn5Yn3LkfuXctKebHlgqfNqGGAUi02GkmFAAJJj1tsMNo1fLE1AC8NoAlVt0g7GLX9dtsVdZGpmQALfEZsO1jI69euFXrM7AtUIjeVKq1gbE77bjApYthvaWSyVm1+b2EamICr0AQG953uf5YJo5RvNYuZBF2IvfYL2A7TijpeIAshhu/KbE9LfOPycFrxsQ4gqTsWNyTMaSbCSRfbftat0eLH6kX3Cq5EhSWJsdKyXcgjaDyLYCTbvGFXpLqCFASw/5XxNEQS5mFExJ26Xw0Z1KYGXSo3mAfrKzgEASp+IwJgmBHRrGDLxQb/lhmpUhdqhJ11OrAE7WI5t7kcpGKaRSkLIchKAKaoYyqDlUGw1sd+hk3N7DbEVSSxKtCg6aqLL99wPh/rPpiTh2b1Vmp0l8ukijU+kw5ayhWIg+pHYD25xTM0lOi6mqQoFM88sY1C9gCZttc74KyMDzObXSwqkaVLCWEgrqB3B5egDd/bE9RVdVhpUwyuwVrksVgrBAsb+m9sVvCeHmjFDMgClSV2kLyVdRjnkdAxEex9rbOpqbU4C6JNPURoAWCCxG5tPQCPSS3gXIIOJ1DTqTRlqRhtIckEm0WM94BtGHJwUU6q1nkZl4JChmDvE6QSJC2vtFvm7h/FgrmrXY8qBvvGnTU0yQUIs7EmJME3iBixq8Vo0lOZqmPhsQ0qA3KiqdupMXOmfa1FUQ5Oyj4ZkMyq1aZhXq1dZ+LUlIwTqndot6Te2BvFeUH6jL0qZqeUyak+FPhIAci4IAmLbg3xoclnglJqpJarVUFVhjJKbAROkQfocVfEaq5alWqu3NUqEyZJDMzAFY3iJgdrwBOG13QJ3hgdIrVza1JUpQUIOuq01CNp0nSsiSpC2wuA1g5r5s6QCWEiSNNMvB9DotBP8AoB/LbK8NOmNbqFkH71TTcSBfS097XxzML5GQRG1KpTQzAajLkwNDCGsIvEAgx1CoZFkFK8LrOYJqU3c/5mOm31Nup+mJOIJ5fDAoI2pjVFoY6SLdYZvkb9sd4pVZOHhmi4p6E0DlJsVcRDiATfsOww7xHU1cOLjY+XFt+ZRNtrAGNrYff+Q/RB4qpuMvlQsaVqIoIaDOkgagBaCOhO8Ww7xQwWvlnBJ+4x1CQUOuLxpaDaLwIi+H+KCpyOtRAVqRQwAI1AdLD4mt6GemH+KMzPD0qFWDrVp1b2AliDMmblh03AOwGGuxLK7xSWpZrzaepBVpAllBOppgzE7QPycLBPFcv9ry9FwYMsZiSs/EpEjqN5OwwsCYNWenahjsjECNH/xiRWwCHlMNKYctTC1YAIiuGMuJyMR6cAETg4hfMMN1HyvgiMLyz7e+EwG0azETb6dMJqSvdlE9/wDTHJ74ruIZ9qY1adQgxBA2E9fpbCaGmWFbKpEwZAMad/l64rjTkKWBUg2VjJE3vGM7mOI5iqwdXJSAQATEyJBiP2ok9xtghKGacmIWVkEyTMgRLG9pviLXYv8AJZZvh4JLNMWsYgReen52wDm+Eu3wt90gWmIMkEEQLHF9Sy9hru0dIHbbc9MSNl4BIBHSZ/lhOC8CpMy68OUIQGWVM2iwFyIFtx1vgN6DMwCabbauW9xaQOk40WZyjxaNOxA6g+o6f6YBrcPkwSwKsGDTuR0vvab+uJenEl6cWA5bidN0ZKtPUAQGhuxKx01AgTIjeDtiwPGVqgeW0oogiYJsfhPvNx+G+Ac/w2VOkrLTssb23+uAq3Dqqp5boQdqbzIEk2Py79vXBlLBLUlwaRuLISFpqNIESI0i0XjtAHuBgenlqT5o1dWp0pfq7nTpBYEqPcyJvYbdc5TzVbLgKwghbW0mOsx1HWduuJX4gyL5lM6WcBSRtEDtbebfXbApNch6j7ovczTNbMLUMmkilYuCX+IkqdwCVg9z0IxJkVStUZnRRfUjE86k7ho9RMAkRikXNZlENNV8xF1QRaATLAmw1Tee49cVnCfEFQsPMRgFJVZPwGCva+5uR3xW7Fj9Rdy549W05qhSriaYZRTK7EliOaL2lFgyDE+mHO32zNaAAaFKoSSYIeqsqYvYaT0/kcQvxFaseaB+rbUN5B5o0ERYEg/9K9sF5fO+WAaaqJY6hMFlIMlJAAbUZvAt0sMEdSL45GpJguYJzWbWmjTRosZgFeeecm4AAi3v9Fx7NebnKGXUBqdIszTMhl21COUfDc/FNiOsvgzyqL1aYZ0HKVFUAaySUJDdZ5bEWLeuH+F+HmnWapmINUkyFNgskwRaYNpOwGNMIfJXeNq6vVp5fzOVXllKtI5VMyJBhTM/4jttiX9Iag/ZqJOkFzPaAAsk7Ab/AJnHMtkzmc6alRSiUjCkzLid5sSNiZ7xN8QeKK7V+ICisEU2EjbUSOa8TGkkGOg6xZrlA+5J43JTJ0aVgNaCTuVQGALcwBg4n8RDVw8s/IStPUJkD4W1EKJEkAQJHNiL9JBHk0RGxfSGkaYKiFAtPqTsTv0J40xHCkZishUBBsGuCisJMjY7g26TGBcL8h3f4BKWSL8LalABMaAYiZBVZEXJIg/z3LOFA1snVUkAhXVi+oQ5AUSI+EadumnpGH+Cl83K16Rm6sFIE6QRpOmegmYN8AeDs0FY5bnDS9x3BtETJt2iJscPyLwO8JcdpigoqVtLi0FisKCYFoJP4C2O4pjlWoV6iqwIvDAqsraPij5x1HTCw2kxJtHstNsPU4yy+P8Ah/7wB/0VP7cOHj/h/wC8j+Cp/Zh0ybRqQ+HhsZX/AHgcP/eV/gqf2Y7/ALwuHfvA/gqf24KYWjV0mv6WwqkSe02xlD+kPh37wP4Kn9uOj9IXD/3lf4Kn9uCmFo1BFsROffGeH6Q+HfvI/gqX/wC3HP8AeJw6P/qR/BU/swtrC0X7rgevSmJ79pMeh6d8U4/SFw795H8FT+zDH/SBw/8AeR/BU/swbfgLRf0cuq7ASbkwAT6n1x2RYRYfTGf/AN4HD/3kfwVP7cN/9f8ADx/7gfwVP7cG0e4t8xmhTLDTex3JJkgbE+p2nbp1LpG0iRPfGZzHjrh7Aj7SBPZKn9uFlfG/DkEDNTebrU/DksMLaw3KjWBB1nENbLqZgCfUdsZ4fpB4eP8A3A/gqf2YX+8Dh/7yP4Kn9mFs+B7vkLrZOpLQnLJgAkSbb/8AjbEqq+g6rGBa0SOs7jAB/SBw794H8FT+3ELeN+Gkn/iBffkqf274NjHvQdn+FiqBqEL1AIMkiL+w/kMU+T4EtMXll1EIDeLg80AdYPuMFU/G3DlNsysdBoqW+qe+JH8dcO/eR/BUv78uJcG+wNxZziFFqN8ueQxLKV6m8EyNx17fSnfhaVFe3lOrawTJ19+WL3mxk322OCq/jDIapXMKPUJUvva6e3fA1Xxbk4EZhZ9EeLtqMApGFsfgPb5Kv7G65tgo1ArI1ddNjEWtbp88F1qYQkAELdQYjvGo/dHZj3OEnivJTIqhWAkHQ17yNlF+427d8Q5nxDkihXztWrrpYQbnURpvvFj8tsRLSbeURtj5CP8AaL0jpKFyRysIKwBB2+8DIwfUzA8tKtGzaDqMjm5SsNCkiG5+twZFzOcpeKqKEIrwBbzADtYbaZA033MkYkbxJllOlaoKiSpIe3eTpm49Dg9OceBLHc01XiAB103U0ll6gVSagEEMAsmwHcEGAe5Dsq1Bcw5JAqgM4LG8hajAITciB8M2LGd8ZKhx/Kh580jWxLGGEbkSAN+kj09cNfxLQFlqklbozKxHQ6WtMSPlfFJzunEe8v8AjuWTMtRqVKpSYYLpLKUIA+EHYQZaT2nYYn8RTXyxy9NQHCo6qxg+Wrb9xIuBE7jvjOjxXSBJNRWLXJIZhcRChltBvHf3wPm+P0QCaNfTb4dDEEmZN/ZNyTbe2Li7rD+h70arwNl/KpOAysxZi5FwjBeUSPkYPrjOKT9pU0CUd2135TpjUZB1KY0t0F7WwdwHxPkxQK1azCqCSGmrzi9p6G5HyBvtitfjmTZmrs7ecW1EqpWeZeXQRpIABOqVMxvNrSdsdqkFfpGypFSlU0AhkII0yAwN9pub/Qx2wsczfimgwUGsLTB0MbWgOGRubsekNe91hK12BtPued49K/R14By+aoU8xWLtztqpnkR1DeXCkMHaCVYuvKPh3nHmuNDwjxznsvSWjRraKazpHl02gFtZEspaNV4nvjcwNxlP0SZZlps1euNYRSCiBg7MiyVJlAdanQ3MAL72qOL/AKP6FPL+fTq1SGydTMqGCg8oybKrR/8AsNMfsjFO36R+JGP+J2YN/wAql8QKsCeS5lVN9+u5xLl/H9X7FVytVTUL0/KRyUUU6emioAVaeonTSUTrg2JBIkgGQwsLCwALCwsLAAsLCwsACwsLCwALCwsLAAsLCwsACwsLCwALCwsLAAsLCwsACwsLCwALCwsLAAsLCwsABuSp0Sv6x3VtVtIkR3OCDlssCP1rsumSQsQ3LA69NXzET1wRS8X5tQqiosKqqP1aGy7brckWJ6jfHKfi7NKCAyAFmb/lU/iadR+HcyfrgAHpU8rpGqpU1ReAIn6fkfTEGeWiAvlMzHm1ahtfliw3G4vHc74sX8X5klW1LqUsdWhZMlTBtsNIgerDYkYC4txutmNHnMG0AhYVViYn4QOwwAV2FhYWAD//2Q==;" vertex="1" parent="1">
          <mxGeometry x="550" y="440" width="204.69" height="150" as="geometry" />
        </mxCell>
        <mxCell id="Ysqgjk3QRdwO2fdqVnxJ-18" value="Natural&lt;br&gt;Laborioso&lt;br&gt;Artesanal&lt;br&gt;Más tiempo&lt;br&gt;Auténtico&lt;br&gt;Preciso" style="whiteSpace=wrap;html=1;aspect=fixed;" vertex="1" parent="1">
          <mxGeometry x="50" y="600" width="100" height="100" as="geometry" />
        </mxCell>
        <mxCell id="Ysqgjk3QRdwO2fdqVnxJ-19" value="Estandar&lt;br&gt;Automatizado&lt;br&gt;Más herramientas&lt;br&gt;Máquinas&lt;br&gt;Menos tiempo&lt;br&gt;Más costo &quot; &quot;" style="whiteSpace=wrap;html=1;aspect=fixed;" vertex="1" parent="1">
          <mxGeometry x="560" y="600" width="110" height="110" as="geometry" />
        </mxCell>
        <mxCell id="Ysqgjk3QRdwO2fdqVnxJ-20" value="Ventajas&amp;nbsp;&lt;br&gt;Desventajas" style="rounded=1;whiteSpace=wrap;html=1;fillColor=#f8cecc;strokeColor=#b85450;" vertex="1" parent="1">
          <mxGeometry x="340" y="485" width="120" height="60" as="geometry" />
        </mxCell>
        <mxCell id="Ysqgjk3QRdwO2fdqVnxJ-21" value="" style="shape=flexArrow;endArrow=classic;startArrow=classic;html=1;rounded=0;" edge="1" parent="1">
          <mxGeometry width="100" height="100" relative="1" as="geometry">
            <mxPoint x="40" y="790" as="sourcePoint" />
            <mxPoint x="800" y="790" as="targetPoint" />
          </mxGeometry>
        </mxCell>
        <mxCell id="Ysqgjk3QRdwO2fdqVnxJ-22" value="Spring Boot&lt;br&gt;3.1.2" style="rounded=1;whiteSpace=wrap;html=1;" vertex="1" parent="1">
          <mxGeometry x="251.03" y="835" width="120" height="60" as="geometry" />
        </mxCell>
        <mxCell id="Ysqgjk3QRdwO2fdqVnxJ-23" value="" style="shape=flexArrow;endArrow=classic;html=1;rounded=0;exitX=1;exitY=0.5;exitDx=0;exitDy=0;entryX=-0.017;entryY=0.433;entryDx=0;entryDy=0;entryPerimeter=0;" edge="1" parent="1" source="Ysqgjk3QRdwO2fdqVnxJ-22" target="Ysqgjk3QRdwO2fdqVnxJ-24">
          <mxGeometry width="50" height="50" relative="1" as="geometry">
            <mxPoint x="410" y="990" as="sourcePoint" />
            <mxPoint x="490" y="850" as="targetPoint" />
          </mxGeometry>
        </mxCell>
        <mxCell id="Ysqgjk3QRdwO2fdqVnxJ-24" value="Spring Boot Tools&lt;br&gt;&lt;br&gt;Dependencias&lt;br&gt;Anotaciones&lt;br&gt;Librerias" style="rounded=1;whiteSpace=wrap;html=1;" vertex="1" parent="1">
          <mxGeometry x="500" y="805" width="160" height="90" as="geometry" />
        </mxCell>
        <mxCell id="Ysqgjk3QRdwO2fdqVnxJ-25" value="Crear el proyecto spring boot&lt;br&gt;&lt;br&gt;Página:&amp;nbsp;https://start.spring.io/&lt;br&gt;&lt;br&gt;IDE: Intellij IDEA, NetBeans, Visual Studio Code, Ecipse" style="rounded=1;whiteSpace=wrap;html=1;" vertex="1" parent="1">
          <mxGeometry x="210" y="1000" width="240" height="110" as="geometry" />
        </mxCell>
        <mxCell id="Ysqgjk3QRdwO2fdqVnxJ-26" value="" style="shape=flexArrow;endArrow=classic;html=1;rounded=0;entryX=1;entryY=0;entryDx=0;entryDy=0;exitX=0.004;exitY=0.594;exitDx=0;exitDy=0;exitPerimeter=0;" edge="1" parent="1" source="Ysqgjk3QRdwO2fdqVnxJ-24" target="Ysqgjk3QRdwO2fdqVnxJ-25">
          <mxGeometry width="50" height="50" relative="1" as="geometry">
            <mxPoint x="410" y="990" as="sourcePoint" />
            <mxPoint x="460" y="940" as="targetPoint" />
          </mxGeometry>
        </mxCell>
        <mxCell id="Ysqgjk3QRdwO2fdqVnxJ-28" value="" style="shape=flexArrow;endArrow=classic;html=1;rounded=0;fillColor=#f8cecc;strokeColor=#b85450;endWidth=21.142857142857142;endSize=4.331428571428572;width=26.857142857142858;" edge="1" parent="1">
          <mxGeometry width="50" height="50" relative="1" as="geometry">
            <mxPoint x="1190" y="1080" as="sourcePoint" />
            <mxPoint x="1100" y="1270" as="targetPoint" />
          </mxGeometry>
        </mxCell>
        <mxCell id="Ysqgjk3QRdwO2fdqVnxJ-29" value="Dependencias&lt;br&gt;&lt;br&gt;&lt;ul&gt;&lt;li style=&quot;text-align: left;&quot;&gt;Spring Boot Dev Tools&lt;/li&gt;&lt;li style=&quot;text-align: left;&quot;&gt;Spring WEB&lt;/li&gt;&lt;li style=&quot;text-align: left;&quot;&gt;Spring Date JPA ORM(JPA)&lt;/li&gt;&lt;li style=&quot;text-align: left;&quot;&gt;Driver de BD [mysql, h2, sqlserve, postgrest]&lt;/li&gt;&lt;/ul&gt;" style="rounded=1;whiteSpace=wrap;html=1;fillColor=#d5e8d4;strokeColor=#82b366;" vertex="1" parent="1">
          <mxGeometry x="1100" y="930" width="220" height="130" as="geometry" />
        </mxCell>
        <mxCell id="Ysqgjk3QRdwO2fdqVnxJ-30" value="En desarrollo(No LTS)&lt;br&gt;&lt;br&gt;LTS =&amp;gt;&amp;nbsp;&lt;br&gt;3.1.2&lt;br&gt;3.0.9&lt;br&gt;2.7.14" style="shape=process;whiteSpace=wrap;html=1;backgroundOutline=1;fillColor=#dae8fc;strokeColor=#6c8ebf;" vertex="1" parent="1">
          <mxGeometry x="5" y="835" width="235" height="95" as="geometry" />
        </mxCell>
        <mxCell id="Ysqgjk3QRdwO2fdqVnxJ-33" value="" style="shape=image;verticalLabelPosition=bottom;labelBackgroundColor=default;verticalAlign=top;aspect=fixed;imageAspect=0;image=data:image/png,iVBORw0KGgoAAAANSUhEUgAABeQAAAPACAYAAABU1XlyAAAgAElEQVR4AezdedAlVX3/8ScVTKJZSpOy4h9JlYlKKpWqVKVMopZJUH4mLvkRzKMTY4Kh/BmNWRA0LGIixTD8NIpBXMYN4/Jz0EQjwRn2ZVifGWGGAWZgGIYdhhmGYVgGRhiB5/zq293f0+ecPt237719++m+9/3HU3frPn2WV3ff/nQ/feeOWn2I4Y8+wAAGMIABDGAAAxjAAAYwgAEMYAADGMAABjCAAQxM1sAcHTzZDqZ/6V8MYAADGMAABjCAAQxgAAMYwAAGMIABDGAAAxgQAwTy/IcA/yGBAQxgAAMYwAAGMIABDGAAAxjAAAYwgAEMYAADLRggkG+hkzn7xdkvDGAAAxjAAAYwgAEMYAADGMAABjCAAQxgAAMYIJAnkOfMFwYwgAEMYAADGMAABjCAAQxgAAMYwAAGMIABDLRggEC+hU7mzBdnvjCAAQxgAAMYwAAGMIABDGAAAxjAAAYwgAEMYIBAnkCeM18YwAAGMIABDGAAAxjAAAYwgAEMYAADGMAABjDQggEC+RY6mTNfnPnCAAYwgAEMYAADGMAABjCAAQxgAAMYwAAGMIABAnkCec58YQADGMAABjCAAQxgAAMYwAAGMIABDGAAAxjAQAsGCORb6GTOfHHmCwMYwAAGMIABDGAAAxjAAAYwgAEMYAADGMAABgjkCeQ584UBDGAAAxjAAAYwgAEMYAADGMAABjCAAQxgAAMtGCCQb6GTOfPFmS8MYAADGMAABjCAAQxgAAMYwAAGMIABDGAAAxggkCeQ58wXBjCAAQxgAAOdNrDG7FpcNPv3rCwZp0Gf1//Ce/aefWZx35qK5ewz225Oy0umPbDRnN1U3917t1lcXHT+8mWNctCysG+xoi31+8Rf9kqz7cCi2XXvqPM3NZ+Med4/1WOR+hi1zknZi11os+Ou1Gh1/1b7lnnT8fUcjrisxM3NG81+Z5x8S9V1jU+bjqVbv/LtwijlM0+83+kX+gUDGMAABjCAgWYNEMg3dRBJOSUH782CZQNAf2IAAxjAwOwZyAL3A/siQXAeIDYRzFUHlsOEwEM6TcL4u82C+30qC+hHDZIn46SPgfyQY+GOwep0zHft22cWmzz54i1juPpVG60uq3redGz99Shbv7rQ9mx96Gz9xhjTyayr1RZYJv2DAQxgAAMYwMBSGiCQ58sjQToGMIABDGAAA502kAbyu/ZsNPvDq3XlCtwDd5tdB/wr6JPg0V5tnl9JnX7pTMuzV9lmZXrzFAJIfx4JyZPps2VrWdGwUOtRKDM/CCi7mt19X57v37MmuUI9XZ7TrqQfNpptclW8LG/fGlOcd2PynwZaVy/od6/OP5CVE/Z1cPV03la/b/z/MMhPmOhy7XzJ1dN3mwV32bLM5H39T4HgJEXi1F/e4LFIp9f2euM86OptqZuMW1Inp7+lHpH33D4Xa8nrbPz370n7P62HXyeZNvWk/3Hht1H71Kt7mSe3P5Nlp304cN5Ie5L1xX0/eR4Zs2z7Ie1N1tNkufvMtl3OFfLZvNvkv1CyPvFPcvhW0nK0z4v9la7Lsg75JxKkDtrXuhwd+3SeeN/m5eXrJe/RFxjAAAYwgAEMYGAyBgjkO30APplBZ2WiXzGAAQxgAAN9MqBhnARvfkArIaOG1Br0+sHmIeaoJKDU+bQsbb8f5iXzFoJonVbm1YAwC1DdW5kky9HP/XLFWxjWugbTsFTn1eX5jxru2nDRXV4SdvonJdzlpfPm5afLy/okm9cvt+x2N2m77LTJFeTu7VzcdqfPNUyW9nrtzJZrP9fXizpWbll+XxyVXbnu3T6odCycMfcshDbCZaRjlrqK1CWpb96n4Rh7fazjb+vo1Cn7Lp5Mn4Ts4bL818l0ZUZdE0m56XK0jyvnzcZSp3V92uc6RvZkQFo3nSd1puMXnLTQeW3d07rpepvMG5ar61s4buHxi3yezVtpvdJrcfxtu8Pl8ZqT2BjAAAYwgAEMYGAsAwTyABoLEF/UOXjBAAYwgAEMTNpAHl5KoJiHwRIGSiDqBpYyrR+SyvhISCfBXzSQTILCNESMfm6/K/llJ9PaAFH6IK9nchLA+0w/L9ZN/aRBol4ZXgzEk89tmCnlOe0eEA4X5nWmL7bZD1m1fulj+pmOQXFeDWGdUNb2n36W9YFTB7dsDWjlvWj5SXlDjEU4LjbwH+A2rF8YCoefa+iejJHfT0n7kun15IVjJeuf3JMzrm7fudN5Dqrb4Y59eX9mZWR11CvLF8N1KdJm94SXu6y8zWXj7Z6k8sczmdc5uZD3TUlbk3ql5qrqEG2/M2+y3Eif835Jv9NXHEdiAAMYwAAGMDCiAQL5ETuOL6Z8McUABjCAAQxgoB0DTngp4ZmGkfI8Cb2dADMJ15xQW2+Nkf0obBLWOe/lwWOzgXwS/EWXUx7I532ZtkfrpuG31N0Nq2V6Gz4m7fbLtp+50+n3Pmf6ynJ1evvoB83JMqLt9AN5f7qygNYvW9oXDVCTuvgBbjGwdcy4gXxw2x3t27zv83W6uGy3zODkQtY/eZ/79UvLd+d3n6fL9NqQhNGZ4+DETrFeeZ1tO8L1IFtnas2rYx2rQ1KuP7burXvy9md1cpy502k97fQDyvX6RuvnPjrz2zL1c6cOyWc1vGr9eIzY0n7lkQAGAxjAAAYwgIExDBDIj9F5fEnlSyoGMIABDGAAA5M34IaXEtqmga6EdGlAnQa5yXMnfIvVqxDWBd+DqgNLP2QthoR5PYufjebELUfq3slAXk+QBH0p/W8DUA2V3fFxnyfzthHI5+Ng6xZeBZ7UJR1LPSniPcbakrU99+VbSS3mPrz/psjmdcfa2k36KAvm64TqzvR6siGvU9UJjrxf7LKzenl1TcpvP5B3r8Iv1i+79VA2Lm57k2kdZ4XPbBur2s9n0T6n7whhMIABDGAAAxgYwwCB/Bidx5czvqBjAAMYwAAGMDB5A26QmYaK6X3j9YpwJ5D3roYujk009HS+CyWflwbMfshaLMupZ3h7E2cZxf5y5gunc8opholOu53QUct3p3efJ5870xfbnJar9wXX8tJHPzQv9oHb535/hcstXjHtly3TF+um5ftlF+vh9qn7XOfXR6cP3b53+t1rf/J+2RX+zn8sZFfiayiet73OLWu0bs6jU5/yPon3lzv2A+fVkw1uXwy4NZIblrvLyttcp7/88Uzmdfu6cr32x7CqDkUnTh97beZ9zz19Q+CCAQxgAAMYwEDDBgjkG+5QvrzxBR4DGMAABjCAgWYNBIFqEiYv2h9x9O6lriGud59wd/70uXuluRvSVQWW0R8S9QJMdzlpSOiF2k6oGvZPstzCldqRoNGdxi3PCdi1bDeYdJ8nn7vTZ/1pw+Ok3OI97NNy0zrZabOgNN6fbn/IOpG+tvcld+uQfB8Ny44HzGk9pCw9IZNNVzoWTj3cPpNlFuqQrruF/rLfl90xScu1bc/6Ucc8HdP8avKkTPujrmk5Oq3tm6QN7jKK9akymnzm9ENah3wsq+a1dQhPSLl9FrQxXPcK/eb2r/s86093+uS5rXvWP84Yp8F/+F8i2XR2PvekSLYd9pYbjJluL5z5df3hMes/a5/XmMAABjCAAQxgoDkDBPJ8yeIsFwYwgAEMYAADnTbgBKpJPcPAMnzt3Colu190HiBrCOvcZ94N4zRw9AL9/IunhqoSwobhpwaa+bLSeue3O8nD2eiXeQ3CnXtc52Vp0Hi32WU/zwPpWLBcCDvdoNULKbNbfmi5BzaabZHb42idw5A3XXZJf3ptkvo6gWhYh8hV5VUBcv2x8P3ofDoubh8nbcwMFN7P1pG0/dlYuu07sNEs7Nln8pDdd7h/z0bvJILfb3ebBSlLLVqHkfvI289injTIzm9z49W3cl5xHswvJrRO0v5k/n1m1759Rvuv0N4yZ9m8224O1ic7vb/sXXs2mv2F9TBcp8KAXteTNfk2PVyu7YNi3yZ95ba309vFvB913eSRPsEABjCAAQxgoC8GCOT5opl/Yacv6AsMYAADGMAABjpqwA3YJ/1FW5Zlr/zuaH9Mug+aL1/CZOckSh/7NQy3J9mGZFmxkw4caDdvkz6lTzGAAQxgAAMYaNcAgfwkv0hTNqEGBjCAAQxgAAMYaMTApAL5wlXBbYauU2uj+F8bhX7uY9snZsP/LwY5IJ6Udw622z3Ypr/pbwxgAAMYwAAGYgYI5Pt4MECdGzmwj60QvMeGEgMYwAAGMNBNA5MLKP1bhdh7vPN9a7zvW0l4XXIrn7727cQC+eC2SXKrHHsrm26uj2wnGRcMYAADGMAABjAwugEC+b4eEFDv8Q4S6T/6DwMYwAAGMIABDGAAAxjAAAYwgAEMYAADGGjZAIF8yx3O2aPRzx7Rd/QdBjCAAQxgAAMYwAAGMIABDGAAAxjAAAYw0GcDBPIE8pwFwwAGMIABDGAAAxjAAAYwgAEMYAADGMAABjCAgRYMEMi30Ml9PmND3TnjiAEMYAADGMAABjCAAQxgAAMYwAAGMIABDGCgGQME8gTynPnCAAYwgAEMYAADGMAABjCAAQxgAAMYwAAGMICBFgwQyLfQyZw9aubsEf1IP2IAAxjAAAYwgAEMYAADGMAABjCAAQxgAAN9NkAgTyDPmS8MYAADGMAABjCAAQxgAAMYwAAGMIABDGAAAxhowQCBfAud3OczNtSdM44YwAAGMIABDGAAAxjAAAYwgAEMYAADGMAABpoxQCBPIM+ZLwxgAAMYwAAGMIABDGAAAxjAAAYwgAEMYAADGGjBAIF8C53M2aNmzh7Rj/QjBjCAAQxgAAMYwAAGMIABDGAAAxjAAAYw0GcDBPIE8pz5wgAGMIABDGAAAxjAAAYwgAEMYAADGMAABjCAgRYMEMi30Ml9PmND3TnjiAEMYAADGMAABjCAAQxgAAMYwAAGMIABDGCgGQME8gTynPnCAAYwgAEMYAADGMAABjCAAQxgAAMYwAAGMICBFgzMLS4uGv7oAwxgAAMYwAAGMIABDGAAAxjAAAYwgAEMYAADGMDAZA0QyHNCghMyGMAABjCAAQxgAAMYwAAGMIABDGAAAxjAAAYw0IIBAvkWOpmzSpM9q0T/0r8YwAAGMIABDGAAAxjAAAYwgAEMYAADGMBAHwwQyBPIc+YLAxjAAAYwgAEMYAADGMAABjCAAQxgAAMYwAAGWjBAIN9CJ/fhzAx15AwiBjCAAQxgAAMYwAAGMIABDGAAAxjAAAYwgIHJGiCQJ5DnzBcGMIABDGAAAxjAAAYwgAEMYAADGMAABjCAAQy0YIBAvoVO5qzSZM8q0b/0LwYwgAEMYAADGMAABjCAAQxgAAMYwAAGMNAHAwTyBPKc+cIABjCAAQxgAAMYwAAGMIABDGAAAxjAAAYwgIEWDBDIt9DJfTgzQx05g4gBDGAAAxjAAAYwgAEMYAADGMAABjCAAQxgYLIGCOQJ5DnzhQEMYAADGMAABjCAAQxgAAMYwAAGMIABDGAAAy0YIJBvoZM5qzTZs0r0L/2LAQxgAAMYwAAGMIABDGAAAxjAAAYwgAEM9MEAgTyBPGe+MIABDGAAAxjAAAYwgAEMYAADGMAABjCAAQxgoAUDBPItdHIfzsxQR84gYgADGMAABjCAAQxgAAMYwAAGMIABDGAAAxiYrAECeQJ5znxhAAMYwAAGMIABDGAAAxjAAAYwgAEMYAADGMBACwYI5FvoZM4qTfasEv1L/2IAAxjAAAYwgAEMYAADGMAABjCAAQxgAAN9MEAgTyDPmS8MYAADGMAABjCAAQxgAAMYwAAGMIABDGAAAxhowQCBfAud3IczM9SRM4gYwAAGMIABDGAAAxjAAAYwgAEMYAADGMAABiZrgECeQJ4zXxjAAAYwgAEMYAADGMAABjCAAQxgAAMYwAAGMNCCAQL5FjqZs0qTPatE/9K/GMAABjCAAQxgAAMYwAAGMIABDGAAAxjAQB8MEMgTyHPmCwMYwAAGMIABDGAAAxjAAAYwgAEMYAADGMAABlowQCDfQif34cwMdeQMIgYwgAEMYAADGMAABjCAAQxgAAMYwAAGMICByRogkCeQ58wXBjCAAQxgAAMYwAAGMIABDGAAAxjAAAYwgAEMtGCAQL6FTuas0mTPKtG/9C8GMIABDGAAAxjAAAYwgAEMYAADGMAABjDQBwME8gTynPnCAAYwgAEMYAADGMAABjCAAQxgAAMYwAAGMICBFgwQyLfQyX04M0MdOYOIAQxgAAMYwAAGMIABDGAAAxjAAAYwgAEMYGCyBgjkCeQ584UBDGAAAxjAAAYwgAEMYAADGMAABjCAAQxgAAMtGCCQb6GTOas02bNK9C/9iwEMYAADGMAABjCAAQxgAAMYwAAGMIABDPTBAIE8gTxnvjCAAQxgAAMYwAAGMIABDGAAAxjAAAYwgAEMYKAFAwTyLXRyH87MUEfOIGIAAxjAAAYwgAEMYAADGMAABjCAAQxgAAMYmKwBAnkCec58YQADGMAABjCAAQxgAAMYwAAGMIABDGAAAxjAQAsGCORb6GTOKk32rBL9S/9iAAMYwAAGMIABDGAAAxjAAAYwgAEMYAADfTBAIE8gz5kvDGAAAxjAAAYwgAEMYAADGMAABjCAAQxgAAMYaMEAgXwLndyHMzPUkTOIGMAABjCAAQxgAAMYwAAGMIABDGAAAxjAAAYma4BAnkCeM18YwAAGMIABDGAAAxjAAAYwgAEMYAADGMAABjDQggEC+RY6mbNKkz2rRP/SvxjAAAYwgAEMYAADGMAABjCAAQxgAAMYwEAfDBDIE8hz5gsDGMAABjCAAQxgAAMYwAAGMIABDGAAAxjAAAZaMNDbQP6pZ/ab7Xs2NfrXhzMo1JEzfRjAAAYwgAEMYAADGMAABjCAAQxgAAMYwAAG+mmgd4H8hh2Xmi/88Hhz1OpDGv878cLDzbdu+Li599Ft0bNBl9z+bXPn3i3Rz1gB+rkCMG6MGwYwgAEMYAADGMAABjCAAQxgAAMYwAAGMNCWgV4F8lfc9f3GQ/hYsP+vF8+bW3b/sBC8y/tn37yy8H5bg8Vy2DBgAAMYwAAGMIABDGAAAxjAAAYwgAEMYAADGOivgd4E8lfedXYrYbwb0N+192Ybvn9vyxnmPzacZFasfZd9D/j9hc/YMXYYwAAGMIABDGAAAxjAAAYwgAEMYAADGMBA2wZ6Ecg/8fSjZvllf9V6IP8fG09OwvdbH9qQLFsG5+RL32nueeRWQvkWfuCg7ZWB5bEBxgAGMIABDGAAAxjAAAYwgAEMYAADGMAABiZpoBeB/OqtX2k9jNcr5Tc9cHlyMuDyO7+XhPBypfyld/wngTyBPAYwgAEMYAADGMAABjCAAQxgAAMYwAAGMIABDAxloPOB/P2P3W7++bw/WbJA/iMXvdWcfs0/2U69+cH15svXfsS+nuTZkj6UvXf/LvPojx6a2v44++yzzTHHHGMOPvhgc/rpp5s9e/a02tZzzjnHHH/88WZubs6cfPLJZu3atY0uf9LlN2H4a1/7mjnssMPM6173OvPZz3629TFoog2UwZl1DGAAAxjAAAYwgAEMYAADGMAABjCAATHQ+UD+W5s+tmRhvFwlf/Klf1kIQI+/4E8L783iCnXOLV+yY/P9mz83lX0iIbCE4fon4XCbYx0u/x/+4R8aXf6ky6/qqyOPPNKEf+H0d911l3nxi19s+1/Goe0xCOvEa3aeGMAABjCAAQxgAAMYwAAGMIABDGAAA6Ma6HQgL1ej661jluLRvTLe7eD/t+n/mtv2XN9oMOqW34fne57c4Y3N0Wtebw4889RU9clNN93kBcESBr/tbW9rrY2x5Us4XeZDrp4P/8qmlfeHLb+qrFE+e+1rX+v176te9apC2+SKeD0Zoo9tjsEo7WIedsgYwAAGMIABDGAAAxjAAAYwgAEMYAADZQY6Hch/bv0/e6Fvm6H8NzedWggHtRPlvvJrbv1q6ec63TQ/Pv3Mj8yx57/Jjs+/XtxeUN1mv77yla/0AuG2r84Oly+3zylrvwbW+ii3uCmbVt8fpnydp6nHOoH8pk2bvP6XtrU9Bk21l3LYEWMAAxjAAAYwgAEMYAADGMAABjCAAQx0NpBfuGeNDXvbDOJPuvQvzc7H76oMMh/ev9P8+9X/WDnNLKxct+y+1px06TvMxy5/t7n7kVumsj8k1H7pS1+ahMJvfetbjdxCpc2xleX/1m/9VrL8V7/61UbuaV+2fA3i9bFOID9M+WXLHfX9OoG8lP3+97/f/MzP/EzSB8uWLWt9DEZtH/Oxg8UABjCAAQxgAAMYwAAGMIABDGAAAxgIDXQykP/Rj58wp15+ZKuB/D+f90Zz0fZVpWFn2HEy/VM/frL29OH8vO7Xyrhly5YlHes6P+aqQbw+1gnk1WGd8nXaph7rBvKyvN27d5sdO3Ys6Rg01W7K6de6z3gxXhjAAAYwgAEMYAADGMAABjCAAQw0aaCTgfx5277eShj/wXPfYL507UdGuh/8aVf9ndmya4GAcJEVsskVcpyyNIjXx2EC+XGWO+q8wwTyoy6D+Vg/MYABDGAAAxjAAAYwgAEMYAADGMAABrpkoHOB/K59d5vjL/jTsQP5o9ccaj503p+YEy743+akS/7CfPyK/2PknvTfuek0c+19F5onnn50rDD9Wzd8zFxw2zfHKqNLEPpYFxnDex/d1osx2L9/v7nxxhvN9ddfb556ajI/fqtBvD62EchLu+THYa+99lrz2GOPDTUWfQ/kn376abN9+3Zz7733DtXuPq5r1JkvLhjAAAYwgAEMYAADGMAABjCAAQxgoBkDnQvkv33jJ0cK40+88HBz5nUfNTv3tXOP70tu/7b56oaTxg7i7nlkqzlv29fMyZf+pW33B9a83nxu3YeM3Ed//4+fKCzjrr1bzJeuPdGcdMk7zNk3f977/NaHNphVN3zcfOyKdycnJGSaL/7wBPO9LZ8x2x7a6E3rrkQPPH6n+eRVf2fkx1k37rjUTifzrFx/XHJiY8XavzHr7z3ffnb7wzeaU9YeYT677hiza9899v0nDzye9I2cWPnB1i+Z5557NvnsucXnjPwg7mcWjkmW86Fz/9j825V/a+QHdK+7/2Lz7HPP2DLcurnPH35yp/nvLZ81n7jyvba/jjv/LUkbpQx32v/afLoRF2csHG3uePgm77NND1xh1tx6plm99Svmvkdv8z5zy3jd615n3L9YyL1q1SpzyCGHeH+PPPKIefbZZ80ZZ5xhfv/3f9/7YdKf+ImfML/9279tPv/5z5vnnnuudNlSD3fZ+rysfhrE66NO7z6689YpP5xe2vWZz3zG/NEf/ZH55V/+Za9dstwXv/jF5i1veYtZv359Zbuk3DqBvNxKx62/PA9vr3P33Xd7fR+OxaDX73vf+wp1fdOb3uSVedppp9lp7rnnHvOe97zH/ORP/mTS/pNOGn87EPYzr5vZwdGP9CMGMIABDGAAAxjAAAYwgAEMYAADXTPQqUBewuRhf8D13658j7n7ka02LJtEB3/z+hWF8m/adbVZftlfFd4fZvkSBg9qr1zpL4G6/OeAlv0fG06y88l/Aex7+hEjQfW3Nn3Mvl9W7g+2ftmWo+XJ44q17/Lm3f3E/ea/Nn/ae0/KlHvna3AuddPlfOrqv7flnnXjJ+z78vkP77vA3PPIrcmPv+r0scczrvmAOfDs07Yct37yfP1953vlxsqQvpFpH/3RHm9aOYGh5T3w+F1GfpD2/G1fN+vuPa/ytwM03NbHWCD/sY99rBBMy4+/Snis85U9yjQPPfSQrZvWUR/D+WR6/Uwe6yxDywjnlfn1M32MTSPTbdq0ybz97W83z3ve8wrz6Lzh46Cgum4gH5YbBvJyf/9wmmFe/97v/Z7Xp9Len/3Zn/XKfO9735tM853vfMc8//nP9z4b1E4pjz/6AAMYwAAGMIABDGAAAxjAAAYwgAEMYEAMdCqQl+A5FrLG3pPb0NzwwBWtBF1y1Xi4wux47I6krhpOh58Pen3+bd+o3VZp/0mXvsPWIeyP7Xs2JVeah++Xvf78+mNtWVpPuSrfnf6rGz7qvdbPjjn3DeaZ535s7n9se+FzOTEg5cnV/Tq9PH5t48lGrmJ33yt7LmG+1sl9LJs+9r4sS/ok/EzLu+PhzUau4j/31q8mYfyNO68ycvW+fu4+hsFu3UD+D//wD73QNizHfX344YdHly31cKeT52Fg3lYgf8011xTqEtYt9vrjH/94adu6Esi/5jWvKdQxDOTlKvovfvGL0T4gkGdn6m4zeI4HDGAAAxjAAAYwgAEMYAADGMAABqoMdCaQl6uowwC17LXcrqSqUU1+9uVrP2Kuuvt/osuTK8Q1hB5mmXIbGvlBWbd9H7norebr1y9Pbl/z3c2f9m5ho9P9KLt9jb7Wx69vPNkr66MXv9186up/MKdefmRpEH7jziu9NmlZ+nh0ENDL+xLGX37n95L5qgL5z677oFcfLbPuY3gLmdVbvxwtT9opV8TLbXvktjTHnv9mO90Xfni8fa7L1TF69rlnzbp7zzVym57Nu64xG+6/xOsLnU4ew5C5biDvzvfzP//zyW1rXvrSlxq5XY37mT6/9NL8NkFVy1+qQF7qJLd+0fpKYH3kkUcaCaPl79hjjzW/+Zu/aT/X6eS2Lps3b472b1OB/M0331xYri6/zuM73pGf7NK+DwP5N7/5zeYFL3iBXY6067DDDkvaHl6xr2XwyM4XAxjAAAYwgAEMYAADGMAABjCAAQxgIDTQiUBeblPyb1e8pxCgapDqPsp9zsNGTOr1/gP7kuC8rHy5XcyDTwz/g4437LzCa+tnFo42EhK7y5ErtmW60656v/nwhYeZi29fZT93+8N9/q8XzycBs1uOPP/2jad5y9N5Hnpyx8AyZVq5Ol+W77Z1lEBerpSXH2E98MxTZu/+B6kV4RUAACAASURBVJMg3A3RtV5y73dtw1M/3h/9kd+zb1lpp9FppT1fue5fo22VsnU6eRRzW3dfZ7Y/fIP3vjuNPA8D3WEC+d/4jd8w5557rlf+rbfeal7+8pcXyv3zP/9zbzqtR7j8MJDX6erW1Z0+Nk9V+RdccIF51ateZb761a+aJ598slBfuWe+hPNhneVWN+Fy5XVTgbzURULxQX9HHHFEoW6veMUrzN69ewv1CwN5bZOcUPnwhz9sHnzwwcI8sTbyHjtdDGAAAxjAAAYwgAEMYAADGMAABjCAAddAJwL5i7Z/qzRE1ZBWHo+/4C2thmBypffp1/xT6TKPOfd/mbV3frf0c7ej3edX3vV9r71lt2lx53Gfu32izwfdz/7mB9d7y5T5JLzWcrWc8FF+uDZ2X/dhA3m56l+X5T7Gyvm/lx9pp5UfvA3rJD9265YRPi87ARFOV+e1BrH6WDeQf8lLXmIeeOCBaD3lR0F/6qd+yguH5Sr62A+86nL1sSow12n0MVbXsM06rT5WlR/OW/b6DW94g9e2n/u5n0t+4DacvqlAPiw39vqiiy6yP8KqbX3Ri15k5F7/seljgbxcIX/JJeX/TRErh/fY4WIAAxjAAAYwgAEMYAADGMAABjCAAQy4BjoRyH+85tXx1z+wNhqeuQ1q6vkVd/63kdu2bKq4T/2x573JrFx/3NB1Cm/PI1eJS8gcXiVf1pYwoJbXcuV52fT6fhhUyxX1+lmsTLldT1mdYkG63r4nvGXNCRf8byNXuuuywke5ct5dvvxwrE7zH8FnKyP3v9dp9VH6wi1Pn+vnwzxqeKuPsZA79qOuchV51XL+/u//3gutpfzYVde6XH2sCsx1Gn2M1TWsk06rj1Xlh/OWvf7e975XaNvWrcUfXm4rkL/lllsKP9IqP067sLBQOkaxQP4zn/lM6fRlfcH77HAxgAEMYAADGMAABjCAAQxgAAMYwAAGXANLHsjLbWE0MK16POWyI1oLw7bvucHIj5x+4/pTKpf5wXP/2Bx//p9WTuN2tj7f8+SOaJuXX/bXyb3NnzzwWGWZYT995bp/qZxel3v7wzcWlvvwkzuTecMyj1nzv8xjT+0pLXeYQP7L132ktByp2zX3/KBQr2eePZDMI+Pu1u3Ku86uLEvbGrt1jX42zKMG1foYC7ljgfzOnWm/li0rFlrH7rWuy9XHqsBcp9HHWF3D+ui0+lhVvs77xBNPmG9+85vJ7WmWL19uvvCFL5jvf//7ZsuWLcnYSPiu5elj7B75bQTyDz30kPmVX/mVQn1WrcpvAaXtch/DQP6FL3yheeqpp2rZc8vhOTtcDGAAAxjAAAYwgAEMYAADGMAABjCAAdfAkgfy2/ds8gJXN3x1n0uY7FZ8Us+ffe4ZIz/WetIlfzFweVo/acOw9fmfW75Q2u4PrH6d+eRV7zNyJX3sCnVdrj6u3vqVWst/6In7C8vc8uC6ZF4tSx9X3fDxyjKHCeTPvrl4v3e3v7Y9tLFQL7lNzpMHHi+8f9feNPR15489j93qJjbdoPc0UNbHWMgdC+RjV7u7y1q/fn0hJL7hhuL97HW5+lgVmOs0+hirq1sHea7T6mNV+XfccYd55zvfaX76p3+6MJ/O/6u/+qvmr//6rwufS2AfLnvSgbwE6L/7u79bqIvc5z6sS/g6DOTf9ra3DZwnLIPX7GwxgAEMYAADGMAABjCAAQxgAAMYwAAGQgNLHsg/8fSjhdBVQ2H3Maz4pF7LfeHlVjW3PrSxMoC759Fbk3q7t1cZpk7yo62rbz0zCf/ddobP5d7wcv93t+xwmpt2Xe197k7rPv/xswcKfX3J7d9O5g3LlJMB7rzh82EC+XNu+WJlWfLDquHyJZCPnawJ61H2epx53TI1aNbHWMg9C4G8XNEf3vde+6TOY9uBvNyPX0L0sG51g/UwkP/bv/3bSsOuGZ6zo8UABjCAAQxgAAMYwAAGMIABDGAAAxgoM7DkgbxULLwtSRjOrlj7rlbCsOPOf3MSDA+6OlzqLD/mKvX80rUnjlW3vft3mf+86VOVwbxcMb9xx6V2OWH/rLv3XPtZ2UDL+/siJz+uu/8iIycHwjJv2f3DyjLbCOQf+dHuQr12Ph7/Ec6w3XJrm7BN4TR1XoeB7iwG8ldffXXhB1GlX175ylea97znPebDH/6wOeKII8zrX/968wu/8AuFEFymPfvs4q2GJnmF/Iknnliox2te85rat50JA/n3vve9letDHUtMw44YAxjAAAYwgAEMYAADGMAABjCAAQxgoBOB/H9tPr0Qnrph6qlr/2aiYdiNO6+yyz/9mn+stazTr/mnZB75MdYmViT50VO5fcxZN37CyI+guu2X5x8694+TW7jIssLPvrv5jFp1uP+x2wvz3vfobdFA/taHNlSW2UYgL22VH55127v+vvMr66Vj8e0bP+nNJ2XoZ8M8Esgvmle84hVeuP1Lv/RLZtOm+G2a5Mr0K664wpte+rDNK+Tl/vDhuL30pS81e/furW2AQJ6d4zDbCabFCwYwgAEMYAADGMAABjCAAQxgAAN1DXQikH/oyR3mIxe9tRCgahB72lXvrx2k1W24TnfWDZ+wy/3ElfWvgj32vDeZYabX5dV5fOa5H5vL7/xe8sOy2gfyeO19Fyb94L4nzz92+bvNU8/sH9hHl97+HdtWmU/ulf/0M091OpD/4rUf9uosJywG9aHcmuffrvxbbz5p76D5Yp+Hwe6sXSF/3XXXFcLtb3zjG5V9+cADDxTmaSuQX1hYMM973vO85ctV+7fddltlncOxJ5BnJxqa4DUmMIABDGAAAxjAAAYwgAEMYAADGGjCQCcCeWnIxbefVQhQNXj++BXvGSpMq9Mxdz+yNQmydRmnXl7/KvzNDy4kdd26+7rG6+XW/ds3nub1ifxQqXyudXYfP7/+2IF1caeX5xJaS3mxW9Z05Qr52I/f3rL72sq2XrT9W9E+cvu27vNZD+S/+93veuG29Mett95a2f+bN28uzNNGIC+h+4te9CJv2RLOX3755ZX1jVkgkGcHG3PBe7jAAAYwgAEMYAADGMAABjCAAQxgYFwDnQnkn3nuGfPJq/4uGqR+8Nw3DB2olXXMPY9sM5+48n3e1ecnX/qXQ5UvQbbc975sGVXvP/3Mj8zXNp5sjjn3Deabm041e/c/WFrOf2/5rNcfct96KTsM1vX1dzd/2sjV4eHydz9xX7RvL96+Kpm2y4H8XXtvLrRX/ptC7n0ftlNey0kL7Y/wMTb9oPf6HMi/9a1vjfaR2+awfa973eu8eS666CIv4JbpL7nkEm8atzy5Zc1hhx1WmGfSgbzcjkZuSxO2R25f49av7nMCeXauda0wHVYwgAEMYAADGMAABjCAAQxgAAMYGMZAZwJ5qfSGHZeUhqnr7j1vpGBNO0OC+E9d/feF8v/tivQqcZ1u0OOVd/+PkR9ZvWnnVSPVx71fvQTGctuYL1/7EXPDziuM3KpGl3/d/Rd7Jw1kWrkHvHweBs3uazlZIPeUl/Lkvw7O3PDR6PSnXfV3dlldDuSlvXICw22jPpf35cdbN++6JgniV64/NjqdTC/34Ne+HeYxDHi7fMsaCdPd+r7whS80Eqg/9thj5oILLjAbNhR/F8CdXp6HgbwE3QcddJBX7iGHHGKeeeaZQn/KtH/2Z3/mTavlTzKQP3DggPmDP/iDwnJ/7dd+zZx00kkD/z796U8X2kIgz450mO0E0+IFAxjAAAYwgAEMYAADGMAABjCAgboGOhXIS6XLAuSTL31nITQb1MjdT9xv5KrxU9YeUQhq5ar7H2z98tBlHn/Bn5ov/vCEoefTusZ+WFUD5qrH/9hwkl1mON3qrV8ptC+cJnz95IHHbHldD+Sl78L6D3od9smKte+y7dWxqPOogbI+djmQP/bYYwuhtNZbHt/3vvcV+sD9XJ6Hgbz00bve9a5CuS9/+cuN9MU555xj5Cr0D37wg+YFL3hBYTot/+yzzy4s+7Wvfa03/ate9arCNGvXrvWmkfLkPXfsvv71rxem0eXWefz1X/91rzwpm0CenahrjOd4wAAGMIABDGAAAxjAAAYwgAEMYKApA50L5O/Yu7k0fL3gtm8WgrOwI27YeaWRK6VPuOCw0nJOXXukeXj/roFlhWXLvew/dN6fmAPPPDX0vG5ZW3dfa0665C9K6xeGzcsv+yvz5IHH7TLDz7fv2VR5qxZ3+s+t+5DZ9/Qjtiyt17Hnv8mrz72PbitMo9PK44NP3OtNL8v40Y+fTOY58zr/qvyLb6++bciOx+/wyvrn895onnvuWW/5+w/sM3JSwm1L2XO5bY1YcT9fuf44rzy3LVXPw0C3y4H8li1bBgbTd9xxh9cPYftigfyePXuit4MJ59XXb3rTmwr1mOQV8l/5ylcKy9O61HmUW92EBgjk2cmGJniNCQxgAAMYwAAGMIABDGAAAxjAAAaaMNC5QF4a9d83f84LUzVYPXrN6wtXtd/zyFbz/Zs/Zz5+xf8xx6w5NDqfzC+3hvnoJW83/3PLFwvhW52OPHXt3yRlX3vfhSPNHy5D7vUut1uRe9Fr+8JHuVe6/EDp/h8/4S0znE4CeSn/+gfWmtOv+adoeadefmSyvLAe+nr1rWfa+c645gPJD73qZ2WP37/583YeqadOJz8I+4E1r08+kxMjjz21x36m04SPskxt1zm3fKl0ernlT+zWQzKvtF36QMr+0rUn2vLks2/f+MnSMsO6uK/DQLfLgbzUW+oX1llf/+Iv/mLyeVX7YoG8TC9B/u/8zu+Uli3LkB9Q/dCHPmTuv//+wnQE8uywXHc8xwMGMIABDGAAAxjAAAYwgAEMYAADs2qgk4H8Iz/abT568du9QFXDWnk8Y+EDyZXqci939/3wuQT0crX1N64/xUiZowzyll3XmI9esixZjtzrfZQyBs3z+FN7jfx4qfxQ6UXbVyX3f39w372loXjYTg3kdTkSiK+/7/wkzN+44zLz8JM7a9Vb7sW+7t5zoz8Mq2WHjzLPbdkJAfezHY/dbuRHaOuE8TKfnKBYuGeN2fLgukJd5T8SpI3yg7i6jMeeethseuDypI3SVmmzfuaeKNC+kqvm9fNhHiXgDv/C+a+66qrCfcqfeMI/iRLOI6F1eH/zXbuK/7URLlteh2WFr6VsuYXMa17zmiQYl0d5vXnz5sK8w5Qv942XYP29732vefWrX53c1uUlL3mJOfTQQ80nP/lJs2PHjqT8ffv2Fdq2devWwrJPPPFEE/6FbZHb04R1DG9Zs3HjxsLywr6teh27h/ypp57qlfmDH/ygUP+wrrzmiwQGMIABDGAAAxjAAAYwgAEMYAADGMDAIAOdDOSl0mvv+C8vbJd7t8uPeJ521fu99zVwdR/l6uyVPzzO3P7wDSOHaDseu6NwJfb2PaOXN2gghvncbas8DwP5Ycrq+rQ7H7/L+y+Cb994mim7nc5de7dEb2sjt/zpejupHxtrDGAAAxjAAAYwgAEMYAADGMAABjCAAQxMv4HOBvKC79+v/sckfJf7nt/9yC1JqCphrATzYSgtP9L6+fXHmtsfvnGk8FXuKX/V3Wcntzr514vnC+XLj8N2ZYUI2z7Ngbxc2R62V15/+MI/M6esfZc5/Zp/TG5XJLf3iU0n721zrp7vyhhSj+nfuDLGjDEGMIABDGAAAxjAAAYwgAEMYAADGMBAaKDTgfwND1yRhKzf3HSqF4bLrVAkaJXb0ciV81V/H77wMHPihYebf7noz5Pb4Jx0yTuSx3+5aD55//jz32Lvd14W6Mq8e558wKtD2JFtvg7rOc2B/Nbd11X+QG/YF+HrDfdf0plxa9MIy2JjjwEMYAADGMAABjCAAQxgAAMYwAAGMICB7hnodCAvYL6+cbn59DVHeaHq168/pfRq6DCQbeL1Jbd/21v+UkN2f7D02PPfbA48+3Sn6td0/8jtg87Z+iWz/LK/rj3u/3PLF4a6F37Tdaa87m3sGBPGBAMYwAAGMIABDGAAAxjAAAYwgAEMYGCpDXQ+kL/nka1Gfpz1zA0fTX7A83tbzqgdyjYRxss965997tlOBd53PHyTOWPhaCNX+8sPmi41ojaXL/8NsObWM81/bT7dfP365clvBcgJiv+86VPmgtu+mfSH+wOvbdaNZbFBxwAGMIABDGAAAxjAAAYwgAEMYAADGMAABqoMdD6Ql8qfc8sXWw3h3SB/445LZyrwrsLCZ2xMMIABDGAAAxjAAAYwgAEMYAADGMAABjCAAQyMbqAXgfzjT+01J1/6ztZD+a9uOIkwfnF0XKyY9B0GMIABDGAAAxjAAAYwgAEMYAADGMAABjCAgdxALwJ5GbAr7zq79UD+zr1bCOQJ5DGAAQxgAAMYwAAGMIABDGAAAxjAAAYwgAEMYKARA70J5CWUv+Ku77cWyl//wNpGOpizP/nZH/qCvsAABjCAAQxgAAMYwAAGMIABDGAAAxjAAAZm2UCvAnkZqA07LjX/fvU/TiyYX7H2bwxhPBuFWd4o0Hb8YwADGMAABjCAAQxgAAMYwAAGMIABDGBgMgZ6F8grhDv3bjbnbftao3/3PrqNq+L51xMMYAADGMAABjCAAQxgAAMYwAAGMIABDGAAAxiYiIHeBvIazPM4mTM19Cv9igEMYAADGMAABjCAAQxgAAMYwAAGMIABDGCgWQME8pzpmciZHlbUZldU+pP+xAAGMIABDGAAAxjAAAYwgAEMYAADGMBA/w0QyBPIE8hjAAMYwAAGMIABDGAAAxjAAAYwgAEMYAADGMBACwYI5FvoZM5c9f/MFWPIGGIAAxjAAAYwgAEMYAADGMAABjCAAQxgAAPjGiCQJ5DnzBcGMIABDGAAAxjAAAYwgAEMYAADGMAABjCAAQy0YIBAvoVOHvesCfNz5g0DGMAABjCAAQxgAAMYwAAGMIABDGAAAxjAQP8NEMgTyHPmCwMYwAAGMIABDGAAAxjAAAYwgAEMYAADGMAABlowQCDfQidz5qr/Z64YQ8YQAxjAAAYwgAEMYAADGMAABjCAAQxgAAMYGNcAgTyBPGe+MIABDGAAAxjAAAYwgAEMYAADGMAABjCAAQxgoAUDBPItdPK4Z02YnzNvGMAABjCAAQxgAAMYwAAGMIABDGAAAxjAAAb6b4BAnkCeM18YwAAGMIABDGAAAxjAAAYwgAEMYAADGMAABjDQggEC+RY6mTNX/T9zxRgyhhjAAAYwgAEMYAADGMAABjCAAQxgAAMYwMC4BgjkCeQ584UBDGAAAxjAAAYwgAEMYAADGMAABjCAAQxgAAMtGCCQb6GTxz1rwvycecMABjCAAQxgAAMYwAAGMIABDGAAAxjAAAYw0H8DBPIE8pz5wgAGMIABDGAAAxjAAAYwgAEMYAADGMAABjCAgRYMEMi30Mmcuer/mSvGkDHEAAYwgAEMYAADGMAABjCAAQxgAAMYwAAGxjVAIE8gz5kvDGAAAxjAAAYwgAEMYAADGMAABjCAAQxgAAMYaMEAgXwLnTzuWRPm58wbBjCAAQxgAAMYwAAGMIABDGAAAxjAAAYwgIH+GyCQJ5DnzBcGMIABDGAAAxjAAAYwgAEMYAADGMAABjCAAQy0YIBAvoVO5sxV/89cMYaMIQYwgAEMYAADGMAABjCAAQxgAAMYwAAGMDCuAQJ5AnnOfGEAAxjAAAYwgAEMYAADGMAABjCAAQxgAAMYwEALBgjkW+jkcc+aMD9n3jCAAQxgAAMYwAAGMIABDGAAAxjAAAYwgAEM9N8AgTyBPGe+MIABDGAAAxjAAAYwgAEMYAADGMAABjCAAQxgoAUDBPItdDJnrvp/5ooxZAwxgAEMYAADGMAABjCAAQxgAAMYwAAGMICBcQ0QyBPIc+YLAxjAAAYwgAEMYAADGMAABjCAAQxgAAMYwAAGWjBAIN9CJ4971oT5OfOGAQxgAAMYwAAGMIABDGAAAxjAAAYwgAEMYKD/BgjkCeQ584UBDGAAAxjAAAYwgAEMYAADGMAABjCAAQxgAAMtGCCQb6GTOXPV/zNXjCFjiAEMYAADGMAABjCAAQxgAAMYwAAGMIABDIxrgECeQJ4zXxjAAAYwgAEMYAADGMAABjCAAQxgAAMYwAAGMNCCAQL5Fjp53LMmzM+ZNwxgAAMYwAAGMIABDGAAAxjAAAYwgAEMYAAD/TdAIE8gz5kvDGAAAxjAAAYwgAEMYAADGMAABjCAAQxgAAMYaMEAgXwLncyZq/6fuWIMGUMMYAADGMAABjCAAQxgAAMYwAAGMIABDGBgXAME8gTynPnCAAYwgAEMYAADGMAABjCAAQxgAAMYwAAGMICBFgwQyLfQyeOeNWF+zrxhAAMYwAAGMIABDGAAAxjAAAYwgAEMYAADGOi/AQJ5AnnOfGEAAxjAAAYwgAEMYAADGMAABjCAAQxgAAMYwEALBgjkW+hkzlz1/8wVY8gYYgADGMAABjCAAQxgAAMYwAAGMIABDGAAA+MaIJAnkOfMFwYwgAEMYAADGMAABjCAAQxgAAMYwAAGMIABDLRggEC+hU4e96wJ83PmDQMYwAAGMIABDGAAAxjAAAYwgAEMYAADGMBA/w0QyBPIc+YLAxjAAAYwgAEMYAADGMAABjCAAQxgAAMYwAAGWjCw5IH87bt2Gf7oAwxgAAMYwAAGMIABDGAAAxjAAAYwgAEMYAADGOi6gXH/S2HJA/lxG8D8/f83DcaQMcQABjCAAQxgAAMYwAAGMIABDGAAAxjAAAZmwQCBfAv/hjALkGgjG0wMYAADGMAABjCAAQxgAAMYwAAGMIABDGAAA9UGCOQJ5Lk3FAYwgAEMYAADGMAABjCAAQxgAAMYwAAGMIABDLRggEC+hU7mrFD1WSH6h/7BAAYwgAEMYAADGMAABjCAAQxgAAMYwAAGZsEAgTyBPGe+MIABDGAAAxjAAAYwgAEMYAADGMAABjCAAQxgoAUDBPItdPIsnNmhjZzBxAAGMIABDGAAAxjAAAYwgAEMYAADGMAABjBQbYBAnkCeM18YwAAGMIABDGAAAxjAAAYwgAEMYAADGMAABjDQggEC+RY6mbNC1WeF6B/6BwMYwAAGMIABDGAAAxjAAAYwgAEMYAADGJgFAwTyBPKc+cIABjCAAQxgAAMYwAAGMIABDGAAAxjAAAYwgIEWDBDIt9DJs3BmhzZyBhMDGMAABjCAAQxgAAMYwAAGMIABDGAAAxjAQLUBAnkCec58YQADGMAABjCAAQxgAAMYwAAGMIABDGAAAxjAQAsGCORb6GTOClWfFaJ/6B8MYAADGMAABjCAAQxgAAMYwAAGMIABDGBgFgwQyBPIc+YLAxjAAAYwgAEMYAADGMAABjCAAQxgAAMYwAAGWjBAIN9CJ8/CmR3ayBlMDGAAAxjAAAYwgAEMYAADGMAABjCAAQxgAAPVBgjkCeQ584UBDGAAAxjAAAYwgAEMYAADGMAABjCAAQxgAAMtGCCQb6GTOStUfVaI/qF/MIABDGAAAxjAAAYwgAEMYAADGMAABjCAgVkwQCBPIM+ZLwxgAAMYwAAGMIABDGAAAxjAAAYwgAEMYAADGGjBAIF8C508C2d2aCNnMDGAAQxgAAMYwAAGMIABDGAAAxjAAAYwgAEMVBsgkCeQ58wXBjCAAQxgAAMYwAAGMIABDGAAAxjAAAYwgAEMtGCAQL6FTuasUPVZIfqH/sEABjCAAQxgAAMYwAAGMIABDGAAAxjAAAZmwQCBPIE8Z74wgAEMYAADGMAABjCAAQxgAAMYwAAGMIABDGCgBQME8i108iyc2aGNnMHEAAYwgAEMYAADGMAABjCAAQxgAAMYwAAGMFBtgECeQJ4zXxjAAAYwgAEMYAADGMAABjCAAQxgAAMYwAAGMNCCAQL5FjqZs0LVZ4XoH/oHAxjAAAYwgAEMYAADGMAABjCAAQxgAAMYmAUDBPIE8pz5wgAGMIABDGAAAxjAAAYwgAEMYAADGMAABjCAgRYMEMi30MmzcGaHNnIGEwMYwAAGMIABDGAAAxjAAAYwgAEMYAADGMBAtQECeQJ5znxhAAMYwAAGMIABDGAAAxjAAAYwgAEMYAADGMBACwYI5FvoZM4KVZ8Von/oHwxgAAMYwAAGMIABDGAAAxjAAAYwgAEMYGAWDBDIE8hz5gsDGMAABjCAAQxgAAMYwAAGMIABDGAAAxjAAAZaMEAg30Inz8KZHdrIGUwMYAADGMAABjCAAQxgAAMYwAAGMIABDGAAA9UGCOQJ5DnzhQEMYAADGMAABjAwhQZu37WLcZ3CceUAt/oAl/6hfzCAAQxgAAMY6LoBAnm+pHOghgEMYAADGMAABjAwhQYI5DkY7frBKPXDKAYwgAEMYAADs2iAQH4KD75mETJtZgOOAQxgAAMYwAAGfAME8n5/4IP+wAAGMIABDGAAAxjoggECeQJ5rojDAAYwgAEMYAADGJhCAwTyHHB24YCTOuAQAxjAAAYwgAEM+AYI5Kfw4AvkPnL6g/7AAAYwgAEMYGAWDRDI434W3dNm3GMAAxjAAAYw0HUDBPIE8lwRhwEMYAADGMAABjAwhQYI5DkY7frBKPXDKAYwgAEMYAADs2iAQH4KD75mETJtZgOOAQxgAAMYwAAGfAME8n5/4IP+wAAGMIABDGAAAxjoggECeQJ5rojDAAYwgAEMYAADGJhCAwTyHHB24YCTOuAQAxjAAAYwgAEM+AYI5Kfw4AvkPnL6g/7AAAYwgAEMYGAWDRDI434W3dNm3GMAAxjAAAYw0HUDBPIE8lwRhwEMYAADGMAABjAwhQYI5DkY7frBKPXDKAYw0FUDGzZsMIcffrh5/vOfb+bm5vijDzAw4wZkWyDbBNk2NLHdIpCfwoOvJmBQBl+MMIABDGAAAxjAQL8NEMj3e/xY/xg/DGAAA0tjQAI3gnhOQnAiBgMxA7Jt9fFCpgAAIABJREFUaCKUJ5AnkG/kzA5fFJbmiwL9Tr9jAAMYwAAGMFBmgEAeG2U2eB8bGMAABsoNyFWwEsS9+93vNrt37yYzITfDAAaSbYFsE2TbINuIcbehBPKgGhvRuAiZv/yLAH1D32AAAxjAAAYwMKoBAnnsjGqH+bCDAQzMsgG9Op4wnvVgltcD2l70L9sECeRlGzFu/xDIE8iPjWhchMxfXMnpE/oEAxjAAAYwgIFxDRDIY2hcQ8yPIQxgYBYN6G0qZrHttJl1HgPVBpraPhDIE8gTyGMAAxjAAAYwgAEMTKEBAvnqAyoOOOkfDGAAAxiIGWgqcIuVzXuYw0C/DTS1fSCQn8KDL1bufq/cjB/jhwEMYAADGMBAEwYI5HHUhCPKwBEGMDBrBpoK3Gat32gv24pZMNDU9qEDgfyCWTFX9cu9K8xCw6H5wvJsecsXJnc12LoVZm7ZKrOz4brPAm7ayEYcA20b2GlWLUu3i/Nn7ZzcdpHtIX2LAQxgoFUDBPJt709ZHt/hMIABDEyDgaYCt2noC9rAOo0B30BT24ceBPISEjUbyk86kN951nxyk38CeR8tKzH9gYGuGiCQx2ZXbVIvbGJgHAME8vgZxw/z4gcDGJhVA00FbrPaf7Sbbcc0G2hq+9CpQH7FugDtfavMfHb1fJ+u2iSQD8aRq+FavRpumjd8tG1S6xaBPLYmZYtysYWBpTRAII+/pfTHsvGHAQz01UBTgVtf20+9WXcxUG6gqe1DtwP5xTwkmstuL+Ne3W6fz82bVfdpZxVvgROG+Xa+8JY1cpsZ9/Y54edJsOzUSad1prNl62dzcyZcPrB1rHjEAga6YSDfrtXaXjknS3Wb6c7nnZQMp3W2l9p2O32y3ZT/iMq343qi1m5bg/kHvm+3xZH/tArqJsuKl5f3T9ped5+DYR1HHrGAge4ZIJDv3piwnjAmGMAABrpvQI9xGKvujxVjxBi1baCp7UO3A3knINewx4YlNmSZy+/V7kyvHWQfnRDHluG85wdCzj3tvfvA5yGRLVfrkZVly9b3CeS5Opz/EMBA5w3kgbNua0t3akGI7W4Ldd7S7Wm2XdTpZBmDph0lkI9th9N6OqF8RTuSae3+oXy7r3Ur7avOjztf3hg7DEy7AQJ5jE+7cdqHcQxgYBIG9BhnEmVTJmYx0G8DTW0fOhXIa6OKj3mI4gYtfhiSB0revdudkF6nt2Vo4GKDGfeqx7w8nS8PjpzpbPn5e3Y6L8zvNzg2GIwfBqbZQL69c8Py2Jjr9jOfLp9X/5PJbgO9E5LOdHbb6ITduj1edK5Sn5szuv3V5eoytG6F9+32PN9vLEa203Y+9zdK7HRzRpdjp3PqZ8uz7ZhmG7RNrfGIhT4aIJDHbR/dUmfcYgADS21AM6mlrgfLZ13AQPcMNLV96H4g74YgblATBiE2hMmD8RSuEwJlZRUCFjeEca5s106uDGYiV0DaMCqsY2RaVq7urVyMCWMyewby7WQetA92YLelut3MtrF2G+iG3e7V8LptLN1u50H90IG8u5215et/Pen+oby9tk1JW/Lp7P5A25o8anmD+2r2TNEnjDkGumCAQB6HXXBIHXCIAQz0zYB+9+9bvakv6xoGJm+gqe1DpwJ5DV6qANmwRAMdDV9sqO5cFZl9ZucpCeTz8EhDm+AxCGYGBVa2vLCOWlceuYUJBjDQKQN58Dxo+2avDveC6WybGQbywTawsG0s3W6PE8jnbdEdZf6oAXqxfN3v+PuLfLq8DHf/oOVNfqev9eORvsYABoYx0NVA3u4PYvsS57+jhmlrF6e17Qz2h23X1d+3sQ613f8sD3MY6J8B/e7P2PVv7BgzxmzSBpraPvQ3kM+CH9vR9krIMCBxwpmSQD4PmIphvi3fvTo/XHYQrHXly7dbd56zUcIABsoN5NvJ6kDeCahtuJDPq/9NVLYNLLxfut3Ol6Mnam2YYJcr41mxbDfQscG/7h/y+cL22uUk2/ny6cr7Emf0DQYw0B0DfQ3kkwOdAd+3++CssN8LjhnaaoO/b+uOz7baz3IYcwxgYFgDTQVuwy6X6bGKge4baGr7MD2B/GIe4Ix+D/k5k4czeXkaCNkv1XMa6iyaRRso5fc6ttN5wVH3UbHiM0YYmFUDNYPnyPbO3QYOHci7220neLHBgROq5+85J05t0B6557uz/c3nzbfd+Xs1y3Nuv8M2flbXE9rNPqJ/BjofyDvbavWVb5/z79b6Wd8e2V/0b53pmzHqizEMTMZAU4FbdHycYyo9fnKns/uO8L/Ign1m3encsuV57fnceoZ1scdpeW6mfaaPebbm/0aYfm4ftV12efkxW1p3XUZ23Ganc/9zWZ4H85VOl86nOZ/93uEcj7r95LZD3rfTa59o/bOT7tq/hfJ1evcxmNc7tpbpws8ncmJf+zfvT627dwGcW2/7PB0TbbMdU/t5MCZy/D6xNhXbkdYnqEMDfajtTH2Ovg2aokB+0eRXuueQtKPcDZ1dgZwVzr5n4WRleFjKBthfUQoYneWMO2DMPzp2+o6+w0CZgTyQt9vMcFuYbMcGTJdt6+w20Nt+Ol/+nPfttO7yls2b+ey1/TLghu/utPpct7OV0zk74+gXtHkzvyzb9mt50enSaWzdGtipY7PMJu9jAwPjGOhjIO8d/Om2ODjI1X1V6UHy8oUgcHC2/3abHe7Twmny7/2yvfePFcJpxWk+fVI/tw7Ofk/GM9z3VbUjPL4Jp42VN+ecRJbPbd2H7E9vXt3fhoGH7U/WVekv/ugDDEyHAd3PTGI8/X2Ac3FQyb5O65I+5tP75YQZWD5d2Iba81UcB0ld0mOhYN9n9xVpfXSfZfdDwedJm3Qf6S5P30v6RJeRtcmdLlKePUarOZ1bNzuvs6/WNnjfTwrLzftb+1fLcsv3x9LPEQvfI3QZXl80vH5lx85a18RK1m95u/NlJm0LvkvIPJXvu99JJh7IF7+fpeORj0+4PozyWsdxlHndeaYrkPdW1nyD5OEa4ktp2ZmbwgpVABl8wS98noN2B4Pn9AsGMLA0BoJtlu783Ue7HdMvRM6XLBuCpzs6/RISbkMHvi/LS75w5Mtwt992/qxe8iXBbo9t/cKgQ+qUt8/7YuF9SUt33rHyYl+O3HotzZixrtDvGMDAYAP9DOTd7Xh+AGW3z+6+SZ472//SabJ58m13vp/Rgyp9rDNNOm1et9h+QstLHp2D6dI6jtQOJ2wP+8U5ALbLrLOMOtM4ZbMeDl4P6SP6CAP9M6Db8ObHTvc/K8yK5enxVL7fSftJj3m84xbneEb3e3WnC9tQez49VnL2YWFZ+f7P3Sc6F8tm+xTdD4Vt9crT5WX7s7z9eZ8tSOan0wX10nbZk9Il03nLdPPBZLl5O7Q8rYe+9o9xtW753TZ0Om1rrbZLu/SY2u6HtexiyBy2YbTXaflaT6+MpC55X+hnSdts/fL1uux99WGXMVIgL/Ws0wcl0yUOim3RNo3y2NT2oQOBfD6Io3TE8PPkwYxuyIYvo+06szzGCAMYmEYD+iVDg/isjfplpNaOd7R+0S9G/r825vXRL164G61/6Tf6DQPdMNDXQN4elGrwa/cL7gGVbrPzg7R8265X7sk46HT5vsZO5x5U6jLsAb4zn9bDPWC2Vwe6JxDyutjAQA7wtUxdhluerV8+r62fswyvHVpvDRvm8iDAnU73ZbY8na9WPfJjJi0nVjbrejfWdcaBccBAswaaCtwK46LbX9keu8+Ti0vTNmigm297s7bpNj/bp9SdLqxD7fmC5YXlpK91X+nun4vhsu6HbDDrtNeWq8uzJ5i1zGAZOp3uW21Zut/K9qel0/lWtG465trvfj8FZdtlZm3V/ateLe7sv7X8yrZLeVpfZ17bN+7ymnqe+NM+9vukbLlJnzht1enK3tfvDbbtsszCuA1atox//h1Jl1l8jE8nddMxLc4zaNnxz9XKuOXNViCvG7zCGbd4J4/bucxPv2IAAxioNqBfUHSn5j0OvbOuXpY3FsH+wFturR3+EMtq6ksT5XArAAxgYEgD0xLI60Gxv63O/xtWD7TsPiU8WLTbfDnw1IPqfH6/XD3o0wDADbtl25+/nx5gOuUFy7X1DsITf3l5PQrtCPaDhfZ57SrfL4Xz2XrZ0COvg9StUA+Ondj2DLnt8b5zMS9+emhAt9NNW9btcbr/0P2JH4rqNlq3xXkd/OnrTpfPn+4nas/nBMTaH/mj1lnr5O9HdDoNYrXd+r77aNupy1u2yiycNW+SaZL9qi4jW6Yz3c7Ali4nWa5OF93Xaf3z/zRbsU6Xk34P8Psp+yzYL4d9K691vqHanrTD+T5h65zXM7ascd5L6lmjPe4yknmC7zq2zWXvuxchyPeWIZeZfu/S72bl33Xc72eur9xR1bzDfablu30zyvOZCuR1xUg6b2gEww3QKIPBPPQxBjAwiwb0i5Pu2FrbRtsgw/0CWWdnj9NZdEqbcd9HA30N5PPv7OmBaHQ/YQ9WIwFyeFBot/dSnh5wu9t+97nuB/Lp9KA6NRC+nx9A21AhCwhsO7LjjnHbYefP2heWX2Y0nM++dvrQ3Qfn7cjb5n4uz/0+YftQ1ve8jw0M9NOAbvOaHT/df+Qhq26P3W2qbtvzbbH2oT9/3enCNtSer1agrXVy96Ppc7dN2k7tV/fRtlOXl+wz83LzoDzrN2867Zv0UZeTLFuni+7r4mOgfSOhsZ4USOun9cnnC/tVX2sZ2n6tk9tmfW7b7pxYKE6v30v8turyRn1M6jlkLprME37Hck5CaLvyx6C/agfy5d8/7C2JnD5L+0DGKNJXyXfAyPuF+ev3r7Zv1L7X+WYqkNdG81gfGn1FX2EAAxjAAAYwgIF+GuhrIG8PRkcNnsMDTC+Qzw/yYgfCuXU9+A7D5+L7YX21DD0o16vBwtc6XfhYVl7hfa9d5UbD+erWI6yXnU/CjbCPxziwDZfD6/KxpG/oGwy0Y6CpwM0bL7vNLobX7jZVt7WFfZQGzNn2t+50Xh2c8HRQ+fYWKpXbe90nBsFrsE/Q/ZCG1GGdktdB++wtfZbNm/kkVM+WEU5nl6X79yx8LZ3ON+TXTcuYM/PL0qv0037S9yPBroyr00c6LtpWv3x/2dF+sO3Rvs0vPKiefpiy9bZC1eMWLi9pW1kg776f9X3BWNBXYfnx19IPkX63/aTtLpsuHbtCXQrzazmDH5vaPhDIjzEIcSyDB4/56CMMYAADGMAABjCAgUkb6GMgrweycrCjB7P2oNx9Tw+0nYM0Pej15nWviM8OmPPp8gNRu1x7UJ0fCNt6JMcNxfftvE5dbJDhhtdOGGPLrGqHe3Dr/vCcvm/ndQ/WNTTIf/DWtlfnq1WPvJ3uQWze1rzvJu2Y8tlWYgADbRtoKnDL6+1sm6NXbOeBo25n3W2vlKPbcn2/7nR5HVJHtefTfYzdL8Yc6r6iep+gdbf7vlgOF1mezpeOR7aMyHRJG3XfpvUtmy5Yti7D1k3ny8Yp7G83fPduk5LtY7V/tbxC+cHydXx0Pl2evB97T6cf/zEdO62nV17SB7lJ/Sypj36XcNoRfT8bD698eU/Hx5lfy48/Sj2LdSlOWzZduu559ai97Jj5xfR2SnNzY9+OjEB+zIEoIogPGNPRLxjAAAYwgAEMYAADbRrofCAfDSWyKwe9A76KIMOZTg96NUjxH52DueBg250uP2DTkME5MZAcN8Tez99zy7LP7cHnkO1w2iZubPuc9+17hb7M22unsfPVq4cGAbYdzjLcwKBN0yyLbSgGMNCGAd3uNbYsu98pBte6jdbtatW2171dR93pwjbUns/WOXJFv/29Ed3/FdvlLlfbqP3qP1YF7Vq+1CGYztknueXZ/Xit+uf7VjufE4RLuTouXvheWHbefu1fLa9W2+X7RWl9dX+ufRH0g37H0Pn1dZ2sMxaaazn2O0O+zUnaNsT7adu1/tlV+cPUz37vcsoobZf0T2S6pI35+LguR32u3kadX+cjkC8dzByddhaP9AkGMIABDGAAAxjAQF8M9DOQjxxMZd/XCwe1wUGh/Vzezw4y04OmWJl6YJsHDXrwnI5v/vmw7yfLXL5gr2wLrwaz9dQD+qp2OMcqdr5ger+tTmgR9lswny2vpB5JP3j9mPZVHk6wLejLtoB6YhUDwxloKnDTfteQdi7YDief63Y2CyrttLpt1scgyKw7ndZBH2vPp8GsLj94TPcFuq+sDjwL+xuvrJKAOduH5fUNpvPKkP1TsK+vVf94IO+G7+E+r9CWknHR7w6F6b16B/1WqLPbpqCvdVpdfvja+f6gYx991Pmcemndw+mTsYgYLnt/cVEvAMjaqdadZSXrmrahbp2j02n/5N/ryr8DDrc9CPuhqe0DgXx0IMcbnHCweE1/YgADGMAABjCAAQy0baCrgfyk+sEe9EYOFie1TMplvcYABjAwfQaaCtywMX02GFPGtKntA4E8gfzY9z1ig8QGCQMYwAAGMIABDHTPAIF898aE9YQxwQAGMNB9A00Fbox198eaMWKMhjXQ1PaBQJ5AnkAeAxjAAAYwgAEMYGAKDRDIc5A57EEm02MGAxjAQHM/2khfsj5hYPoMEMhP4UETK+r0raiMKWOKAQxgAAMYwMBSGZi1QH6p+pnlso5jAAMYmC4DTQVuuJguF4wn4ykGmto+cIU8wT5XxGEAAxjAAAYwgAEMTKEBAnkOHAkPMIABDGBgeANNBW70/fB9T5/RZ1030NT2gUB+Cg++uo6X+rGBxQAGMIABDGAAA5M3QCA/+T7GMX2MAQxgYPoMNBW4YWP6bDCmjGlT2wcCeQJ5rojDAAYwgAEMYAADGJhCAwTyHDQSHGAAAxjAwPAGmgrc6Pvh+54+o8+6bqCp7UMnA/mFhQXz/ve/3xx88MHmoIMOSv7kubwnn3V9cKhfvzcg+Ov3+LH+NTN+d+7dYr5z06fMKZcdYY5Zc6g5es2hyXN5Tz6jn4fvZ7Ytw/fZqM7o6/b6etQxYr52xohAvp1+xjP9jAEMYGC6DDQVuOFiulwwnoynGGhq+9C5QF5Cd21c2aNMw4rAijAJA/jD1SRc9a1MCd2PWn1I5Z9M07d2LWV92ba0t22hr9vr66Vcp1h2vXEmkK/XT3iinzCAAQxgwDWgWZT7Hs8xggEMiIGmtg+dCuTf+MY32oYdd9xx5rrrrjNPP/108ifP5T1tuEzLysDK0KQB/OGpSU99LWvl+uMqg3g3qJdp+9rONuvNtqW9bQt93V5ft7kOsazRx5VAfvS+wx19hwEMYGB2DWjuhIHZNcDYM/ZlBpraPnQmkNcr2l72speZDRs2lIY88plMIx0g85R1UOn7960y83NzNthPOnL5pG6Ds2BWzM2ZFetSyAvL58zcxJYVriw7zaplQTvnVpiFKbw/aulYD9HW1vwttjsurrmdZ82buWWrzM4h+mXovl23wszFnNn1bt6sui+0WvZ6p1lYtzNbx/11qZW2TLKfOlp2nSvj3UBeno98pfzuNWbF6hPMhbvLxn863p/stiXdnsyfpetJ3mfJui/7uiH2OTvXLdjtg7eOJevvMOtuXo+htyFjrBuT7WunTXZ75uxjh+jnNvuEZTnjNoatPvcjgTwG+uyXuuMXAxhYKgNNBW5LVX+Wy7qDgckZaGr70IlAXu71qg2qCuMVlEyj08u8+v6gxzSgCEMFDUgnEVb7IaIbjg6q61ifJ6HonAlDmiRgcU4QjLWMKTqwbcvf4hKMi2vOC9gmNX6xQF7Dq6ECqzBo9Ncl7Da/c5H7wodhe93XI91TfgYC+clvW8L1JHUR39dVmwm3D+Hrrq9zk+/rqr6d5PeI6nHr+rhQv6UfPwL5pR8D1gPGAAMYwED/DGjexNj1b+wYM8Zs0gaa2j50IpDXq9rkljR1O05vXyPz1ponCQrDMF6hxkONWuVWBpt+iOiGo+OXrXUPH9NlhmG8Lq9vIYvWe5KPrfhbXJpxcc21MvZhID9SGC+mw3XSX5cm6WFWyx7l6ngN7Ee6Sn4GAvnJb1vC9WTRjBLGi/lw+xC+7vp6Mfm+XjTpSdW2v0eE+3hed91i1+pHIM860zWT1AeTGMBAHww8//nPTy4C3b17d728qTIXYsz7MObUEad1DMg2QQJ52UbUmb5qmk4E8gcffHDSILlPfFVl3c9kWukEmdd9v+y5G0yWTWPfT0LEFWaV3OJD/uVfb/ORXeGsZ0Pk0Q++09BQP58/a9WAW9boVXX6b+8NXKUfBqKVOwap77xZdZbcZkTqkC8/DXW0XpEAIuiLvB+KAVHSr1qv5DEoL+nv4L3Keje7oWjDXxrk5P1rrcXaObI/DeOycVu2yqxybpMUC9gGjnOsflXv6TjLNIPCeP1cbyFlr6AP1otk/fMDea8t6medfzsqvVVUZV9XtWXGPjvlsiNGvkJe5h26nwuB/MPmwovCH5JdaW6QcShMm24Dbrj6EHPU1VvSZSfTBPPrZ0s0lpPftvjb20FhfNn6nqxPuh7KPuG+IKDXdSy53ZSui+H+rnjbnKFNjDFOk+/rbPtqt1MD9kNJn0W+RxRuW1bcL5SNU3w/ogZuTG9TF9QvKSt4r81xYVkDnIxhvm7fEsgv/RjUHSumY6wwgAEMdMfA4YcfnmQk7373uw2hfHfGhXWEsVhKA7ItkG2C5KeyjRi3Lp0I5A866KCkQfIDrnUbJNNKJ8i8g+fRAKEmXg0K3YNYL5BIy0lDDA2SsxDRzpOHihoM+gfGaZ3yIDsLQJxQfHC7iu3xl1H83C8zC1T0hENyYJjV23nPb6fWU9udB6/alnR6P2TI61XSbmd5fh0HtWH8zyfvb5QgJ7j380B/Oi55v9uQLTOZvLb9HHoddPVnzX7WQD62DrnBQzJd/vsKi9l/EOT3u07rp6b0c12XvLbosmzbin3Rtqk+Lu/oNYeOHMgfs+bQGtvhwFAQsnvhemJlizlztQbuWVjvBezp52dul3Ld59lytq9M2pN+HizbtTjB55PftuTrSbKNzcL0or+a2/VwHdLX3vYn22+4+6rYidYJ9muxfYvJdwH5TtDp7xGF7ZyeRNXt9qBxKu4/0xOfzkkUd1yy5el2M9ZvvLc024Y2+51AfvrHuE1PLAtPGMDArBiQ2yTrVfLpxYt6sSKP9AcGZt2AbBvq3G590PZyhgP57MDXXhXoXAmfBXwDD2LdkEKDSDeECMrJQ+ks/NSww86ThyuDBq7sc28ZWbk2mLVt1TC9+uA+X4ZbL/d5/oXEC0gLIUC6HO3PpI627fHy8mXny5jUe5MPzeKBfOm4BG5K2+36K/S59Fvatxpye2OUzKshUN7HMT+ly7du8/n1PvmygZ5flv6HSR6q59NFl+OtQ6EL31CxLW64ryeJ1Hm+3KHaEmvfFL8nobregmbYRwnzh+7bIJCPze+F9EnAnl0xL+MQvi6MTSSkL0wzWRuT37Zk63iybZ8388kPeRfXaze0zfvZX8e8dSq8hU1kW+Ov1/76mS9jsv3rLmfyfR1ro9v/+X8mJT+cHduOe9s47RunXK+f9fNhx8nZFkaXp+Xy6PqZ5ucE8lifZt+0Dd8YwMAkDUjgJlfBEswTQM96AE3703VAtgWyTWgijJdtVycC+cn/q7lzwFsSyHhhRPSgWHd2aVk5SOfKNBsy+9N6QbR7tbINyP0NnB90aFn1HqNBp9tmr22Rfik5gE/6J6l7ZB4pPyk3D4K8eoRlJq+zsNSrT702Nr3Tnby/eCDvtcPtB/e5O3bJ87i/eODmL9cznoyB786atv/lMcJ4ZOWq4WSZhat2/YAp7wdpm4bo4TS+O68tsf6KvVfoyxHaN8VlLP0ta9Lx2LXpBP/EgL0q3g/YvbDejkvxtjdLeYX85LctGgjrtjfbPoTrcLgNzvor365n/1Xi7MPK1zF/XUzX39h77a5fk+/rwW0s77O0L7zPrdl0O51sM2uMk7+tD7eTmYds/L39sLO8fJvb7hix3KXpbwL5pel3vNPvGMAABjCAAQxgAANVBjoRyLfxY2yDDky9A+VYmJe8lwaYGja6B8be/PbA1z+Ad+uQPHfCj6pBSj5zlp8Ep2XzlhzQ2/K9tvn1S6YpmT+ve2QeaW84n/Na5rV9lvRNHiLE+63dlbYNf4X+sUaytrrj4j7X6Zzxt33pTuc+13kWywP5pN+9WxsM6vN03G1oXzavM+6puTAwlOXk429dSp29NoTT+O48N958kf50+sNbHu97V7Uv9Y+6JgG73KJmdX4VfBi6568lnD/BXLhb3aZhfXJlf0mAvxRjP/ltS7ie6LY42OYW1su03/Ltev8D+cn3tb89jXkatF3yPrfbH2cMa4yTt/1Mtn16MiZbF2wZ/jYzVl/e0+3HdD8SyE/3+LIeM74YwAAGMIABDGCgnwY6EcgvLCwk94OXsK/Opf8yjQaDMm8tfMlBql59Wxws70A5EvB5n+uBtFumPQh2yk7Kyf99vBB+lIWaWv5Ij+lBuA1twzK8tkUO2L3PtS1OYFASphb7Jyv7LPmhzWK/J9MvX5X8CF1pXcO6T+h1K/6yW8qUttXtd/d51uZi/2rwpn0bGcuqW9a4dpvs14r1QG+dI+uruy7Y9deb1zUnDv32ef0R6S8/3FfHPNq+joz5nXu3+FemJ+F48COpJe/JvFVly2d5mJ6NQ3LLGg3f/avf07Ii943PblNzoVxFf9Eas0vbEbt9TfYjr0t5hfzkty3hepL2bbJ+udvd2DoSbMu9darGLWv0P7/SsfLXz0EWJvH55Ps63OYWtydeH8b63NvG6fxO38XmCcZJ+k6X4/5od96nUp7+WHsQ1uv6wuPA7VXenzpO/X0kkO/v2E2TQ9qCQwxgAAMYwAAGMOAb6EQgL4OiV7e97GUvqwzlJYyXaSSQl3mGGdDkIHYuD8jTedNAQ8qzAUPkoDid1zm4TaaRK+bLi37aAAAgAElEQVQ1EM3KsbcKKJbrh5DpQbgbUqYholOPUQ+atW62Lumga/vzZTpBgF1WVm/nCvx0Pm2n/mBm/lrrHYbNdnlOWXa8tI62/3yYdjpbr8l+3oY/7ae8/0vGZSR/Oi65Udv/mYPktR2L4jhr6B2O41BjEQ2ctG7OVbvJdK714voQW190HfXaEukvAvnR1pdRrpKXeeoYSW9FowH8okle21A9DeRXbHrYlmWvmLdXvEub8lvSuNOm95OPXzG/lIG89Mtkty3pelxcZ7P1yZ70La7v6fbB2Y4H6275Ohbbb8TeG81gHUtl00y2r/3ttW6L0rpk/Tvge4RuY919QHryRLfbNcYp2Sfq+Lrb0Ly/0zKDHwZvaV9aNja8n49P231BIL90fd/2WLM8xhoDGMAABjCAAQz0x0BnAnlB88Y3vtFe+X7ccceZ6667zjz99NPJnzyX9/TKeJl2JGg2CHbunx0E12Vhnj3IzX5Ab9V96UFxHobkB+VSz/mzVpkVzgG6HzAKkvygWtvlH+SPA8mvS1q+HvRrueUhSrGtOk/2mAWqWu+8D5zpsr6OfqZXb9uA2JlviYKDVvxpu73fDwjGJRYw61Xldj4J0kJ/efCdjMuyVca9gtIL2JI+LhqJj9UQYxOEeu46qqas8XBdDNdDa0z6x7fqtSXWX7H3lsiV2wd9eL5y/XG1r5SXaYdpkw3Zg1vTJGVkV7TbH5S9eksa2ju3sJHp0mDfDd9Tn+G958/cHrnCfokMTG7bkq7D0fVW1y9nG6vrYLrddsL4pF/y/ZGso+XrmL8upuMfe2+I7UaD4zK5vnbao31rt8eR8Lt0GxRud4Ptf3Rb7yw766t0LIvzJuORbTvttrbB/k3Hu1gf3u9unxDId3dsWG8YGwxgAAMYwAAGMDC7BjoVyAtEvcJNg97Yo0wD2r6jrQiSljA8wF/fXVH/JraNda6Ur3tlfBP1mYYy2La0t27OfF9XnBidhnWJNgy3LhHID9df+KK/MIABDGAAAxjAAAbaMNC5QF4aLfeClQPqgw8+2Bx00EHJnzyX9+SzNjqGZUx4BUyuHiy5um8JA3n8TXjcl3hsWa/rj6/cF15C91MuO8IcveZQc8yaQ5Pn8l6de8bT18W+Zt9W7JNJOZnlvpar56P/NcH2dya/PxLIt7fdmdT2jHIZQwxgAAMYwAAGMDB9BjoZyANt+qC5Y6q3TeDf6ad7nN0x5zljjQEMYGDCBvRWOs5tiujzCfd5D05ydDWQl3rxRx9gAAMYwAAGMIABDPTVwLjHWgTyPTiYGneQmZ8DcgxgAAMYwAAGMDB7BuQAh3GfvXFnzBlzDGAAAxjAAAYw0G0DBPIE8hyoYQADGMAABjCAAQxMoQEC+W4fiHGgzPhgAAMYwAAGMICB2TRAID+FB1+szLO5MjPujDsGMIABDGAAA64BAnk8uB54jgcMYAADGMAABjDQDQME8gTyXBGHAQxgAAMYwAAGMDCFBgjku3HAxYEv44ABDGAAAxjAAAYw4BogkJ/Cgy93gHnOCo8BDGAAAxjAAAZm0wCB/GyOO+s7444BDGAAAxjAAAa6bYBAnkCeK+IwgAEMYAADGMAABqbQAIF8tw/EOFBmfDCAAQxgAAMYwMBsGiCQn8KDL1bm2VyZGXfGHQMYwAAGMIAB1wCBPB5cDzzHAwYwgAEMYAADGOiGAQJ5AnmuiMMABjCAAQxgAAMYmEIDBPLdOODiwJdxwAAGMIABDGAAAxhwDRDIT+HBlzvAPGeFxwAGMIABDGAAA7NpgEB+Nsed9Z1xxwAGMIABDGAAA902QCBPIM8VcRjAAAYwgAEMYAADU2iAQL7bB2IcKDM+GMAABjCAAQxgYDYNEMhP4cEXK/NsrsyMO+OOAQxgAAMYwIBrgEAeD64HnuMBAxjAAAYwgAEMdMMAgTyBPFfEYQADGMAABjCAAQxMoQEC+W4ccHHgyzhgAAMYwAAGMIABDLgGCOSn8ODLHWCes8JjAAMYwAAGMICB2TRAID+b4876zrhjAAMYwAAGMICBbhvoZCB/594t5js3fcqcctkR5pg1h5qj1xyaPJf35DNQdRsV48P4YAADGMAABjCAgaU3QCC/9GPAesAYYAADGMAABjCAAQyEBjoXyEvoftTqQyr/ZJqwIbwGNwYwgAEMYAADGMAABnIDBPJ5X+CCvsAABjCAAQxgAAMY6IqBTgXyK9cfVxnEu0G9TNuVTqQerNAYwAAGMIABDGAAA10zQCCPyXFNusdffX0+bh8wP+sRBjCAAQxgAANNG+hMIF/nyvjwS2D9K+UfNhdedIg56uqK291sX5mcDDhzO8iaRkZ5mMIABjCAAQxgAAPtGyCQb7/Pp815ePzVx9fTNia0h/UaAxjAAAYw0H8DnQjk5b7wo365q3dP+TSQX3HRCWbFpocjV9ZvMWfKZ6sPMQTy/UfNhokxxAAGMIABDGAAA4uGQJ71YNz1YNRjtC7NN24fMD/rEQYwgAEMYAADTRvoRCA/ytXx+iWv3lXyWSC/aY0586I1ZtdiAGn7SrNCPiOQj5ysCPoq7Dte02cYwAAGMIABDGCgkwYI5PkeO+7Box5z9flx3D5gftYjDGAAAxjAAAaaNtCJQP6Uy44Y+Qp5mXdwp2gg/7C54erwKnj57ARz4e4thUBepvW/fMp0gjAvz1t2ctubleYGPSjNboOjZXhX5+9eY1asPsFcuF0e8+VwhT4ruWdKLfFYYz3HDnYwgAEMYAADrgECeTy4HkZ5rscxfX4cpd3Mw7qDAQxgAAMYwMAkDXQikD96zaFB8J0H1IO+/B2z5tAaQZ0ToEtI7t5LXoLx5Kp5P5DftekEc5R3NX1ahr6XfL7aCd8XF5OwX8sufp6Wb0P5JJA/xFtGcR7wTxI/ZeMLAxjAAAYwgIFpNtD9QH6nWbVszszNOX/LF2p8tx/S7X2rzHyyjHmz6r4h5x35oginbWGb1q3I2xx8tvOs+eyzFWah5rIXlmf9F5TVhO1Bx2J9+LyJfqCMttYbloM1DGAAAxiYDQOdCOQlVB/1y5yE+YOxOoH8ogTjeZAuIXgakvuBfKzMJDC3IX04vfs6XV7hanf3CvoskPem0avmk6vwZwNgrJ95j7HHAAYwgAEMYAAD4xvodiC/YFa4Qbz7fNkqs7NmGF3LyZIE8ovGBuVBe+z7SZvd4L0ixK/oD1segXz0mLKWkYr+Zf7xt0X0IX2IAQxgAAMY8A10IpBv85Y1AiC/bY0E53obGjdQdzopuO2MXiGv5egV8Ytu2J6E/mVX+WcnA2Lhe+w9vhzWOOHijBf9RX9hAAMYwAAGMICBxECnA3l7lbhz1bp9b86sWDcF3+9se9zQPTwR4bR/Mf9s/qydtdfjJQ/k7707qev+PSttIH72nn1Z/e82C3p7zps3mv2ybu5bY47S57F1VT5ffYhZ2Fdi4MBGc7aWWeORAKCkH2N9z3u11ztc4QoDGMAABsYx0IlAvr0fdX043cHqbWskAC+54j29fYyE6hrYLxr/CvlF44bwEvKHt6Pxrn4Pv9zEwvfYe+F8vOZLEgYwgAEMYAADGMBADQNdDuTjt2bJrxC3gbR3dXseWCe3uQmuCHeDaft8bt6surZ4yxq7fLl63S6j/NYvdnp7VXtel9KTB065dhoN6ZetMCuy2/XE25of5PrLnjN2+syAbevyBeNP64b9eXnDHDzW+i9mDdezIP2o1SvNtgO6vH1m283ZhUpucF+Yp3gxUxrIO/NL+J6VkYT6NcJ4qf8w7WVaHTcesYABDGAAAxiYpIFOBPJ37t1ir6ao9aXP+fIl8w7uIPeWNQJKroZfaS60t6vR9/QHX8PpU4TJj7zaAN+ZZ1P2A632VjPp1fY2oI8dMMXC99h7sXl5r8aYp2M22AbT0UcYwAAGMIABDEyngS4H8otOWB0L163JcDr31jby3LkdjA2m3Wm8wD0PqP3g2rmHfTavG3oPmtaG7YXv6Hlor+XZstzwPDuxYD+by6+oj7ZJ6uicjCidJmlL3mbbp4V6lvuvd2y2xuxKytSr4fV1Wu6ue9Ow3QvYRw3kV2dlD3GV/CjtZp5yE/QNfYMBDGAAAxgY30AnAnkZyFGukpd56iEIA/b0tXv1exrS+4G8vR3NYnZ1vJwI8AL5Qe/nV9dLPb1APxa+x94b4gtzvb4YHw3LoQ8xgAEMYAADGMBA9w10OpBfXAyu5tZQPA+jE2NuIO+E73l4nd/exg2mvZDclpGH0+78GpYvLuZX6OdBfx6ql4Xg3rKC7+62TkmAnpefzKNXy2cBvD/tolkMPk/XOa1P3hY731zeF4vO7W/ceg+73tYL5PX2MtnV7NlV7Lv2OLeosVfNZ6H9qIG8e5W9c5FWVT2HbTPTd3/bxhgxRhjAAAYw0HcDnQnkpSNXrj+u9pXyMm39zg8D+cjtZ7L7vue3mUmvcrdf7iSIT+4T74fsi0mI7tyuxvkSnt/2JvsXTDfMj4Xvsfec8uq3lxWTvsIABjCAAQxgAAOzbqDrgXw6PhowayCfPtqQOxKmp/Pl4bYG6jaYdoL7ZNpIGXkg758AsO9rGZF5w3rbuka+t9vyJHS3Zekyte0Srhfbk8/r903yHwVz+a1rbLudq+aljvn8urzhtwn2WGhA+K33jJer4dPnEs5nt65JrmYPrmzXQD7SZ/4V9ZE6D3F1vNQ/Ha9IOZFlMy39hAEMYAADGMBAGwY6FchLg+tcKV//yngQtYGIZeAMAxjAAAYwgAEMdM9APwJ5p99sYO3cisa+l18RnlorBtg2mNYwXQPXSBk2rA6mLbwfvUpd6qxhuntVutOWyLJXLJ834e15tM7zy1eY+eAWM/qZBvDhY+FERBDIx6+wj9RR6xp5rBvI673d9+9Zk94/PgvN7W1q7k2vlrc//KqBvL3vfM17yOt8i3p7nOJ8YZ3ZNg035vQX/YUBDGAAAxiYvIHOBfIy6HJfeAndT7nsCHP0mkPNMWsOTZ7Le/XuGT/5jgMnfYwBDGAAAxjAAAYw0GUD3Q3k8zC9cDuVMAC3YXoYfOdlDAymbRl5qF8I3rMwuvB+ZN50zGsG8k5wr4G61lfKscvL7l0/59w/3n4WnDQIzdngPpjOzu+UGc476HUYbpe/1ivg95n90pcatOstZg7sS65U16vfj9JgXaeLXIFvw3z9UdhsmrL3y+o2qI18znYcAxjAAAYwgIG2DXQykG+7E1geKx4GMIABDGAAAxjAwLQZ6G4g7wbReUgevYe7DcSdq+aDIFtvGWOD6fBKcVtGviwbVpeF2Pb9PHh3Tx7YZXn3bY+tQ/mJgzSQz+uQeLN1y25LY5fr3kPeORlhp8/LidclXu9hjZeF3MX3s9vTZCc2CsF78n52j3kJ1gnkuZVOZmVYk0wf287wHi4wgAEM9M0AgTxfBPgyiAEMYAADGMAABjAwhQa6HMi7t3zRK8fdRw3ZF20AHb+PejQkbzSQd08eOHVYNp/dYsYJy0sM2fBfroJ3A/dkej+wd6+e905Q2Cvoszo4bXQDebcPoycASupYdhBbDN7LbxGTXrkugYATvNsfc100i+6930cO5PVK/I3m7MhV9bH6lrWN9wlvMIABDGAAAxhYKgME8kN+KV2qgWK5bCQwgAEMYAADGMAABoYx0O1AXsbSD6OjAbIN5OWK8GB6J5SWfrHBdPB+HurnV5XbkDwIyAe+b0P1/Ap0e/Kg7LjC3oYn/yFWdxxtvUuutnc/T/ooaJ/9fPlCcAucvL3u8oZ5Hgu4S9/Lbk/jBe+rDzE2qHdvT6OBfKzPvPvPx9b5+vePl7oO016mjfU37+ECAxjAAAYw0LQBAvnYl0De44srBjCAAQxgAAMYwEDPDXQ/kK9xcOcF8jWmb3zM8uDdu7rdhuzjh95NH+A1WV5p+F7z6vQuzN9kf1DWUqyDLBN3GMAABjAwfQYI5Bv/0j59SFjxGVMMYAADGMAABjDQPwME8s2Mmb0CPbxtjL1avpnldHEd60KgPm4dutiv1Gl61xnGlrHFAAYwgIE6BgjkCeS5+g0DGMAABjCAAQxgYAoNEMg3d0AYDeWD293UOfjq2zTjhuFdmL9vfU59m1tv6Uv6EgMYwAAGumqAQH4KD766io16sSHEAAYwgAEMYAAD7RmYikCe7+pLerKsC4H6uHVgm9PeNoe+pq8xgAEMYAAD9QwQyPMlf0m/5LOi1ltR6Sf6CQMYwAAGMICBYQ0QyGNmWDPh9OOG4V2YP2wTr1kvMIABDGAAAxhYagME8gTyBPIYwAAGMIABDGAAA1NogECeg81xDza7EKiPW4dx+4D5WY8wgAEMYAADGGjaAIH8FB58NY2E8tjwYAADGMAABjCAgf4ZIJDv35ixnjFmGMAABjCAAQxgYPoNEMgTyHNFHAYwgAEMYAADGMDAFBogkJ/+gzkO2BljDGAAAxjAAAYw0D8DBPJTePDFiti/FZExY8wwgAEMYAADGGjaAIE8ppo2RXmYwgAGMIABDGAAA+MbIJAnkOeKOAxgAAMYwAAGMICBKTRAID/+wRIHnPQhBjCAAQxgAAMYwEDTBgjkp/Dgq2kklMeGBwMYwAAGMIABDPTPAIF8/8aM9YwxwwAGMIABDGAAA9NvgECeQJ4r4jCAAQxgAAMYwAAGptAAgfz0H8xxwM4YYwADGMAABjCAgf4ZIJCfwoMvVsT+rYiMGWOGAQxgAAMYwEDTBgjkMdW0KcrDFAYwgAEMYAADGBjfAIE8gTxXxGEAAxjAAAYwgAEMTKGBzgby61aYubm54t+yVWbnMONw3yozPzdvVt2XHhQtLJ8zc8sXSi3vPGvezA27jGHq40w7qC4DD2SDtg2c3ll2cdoFs2JuzqxYN8bBo1efBsqrrO+iScYqZkTe88Z4p1m1LGLJzrvCLLjLithz+yUZNztvpFzHTz5tsAx3efrc678xxkHLa+DRWx8ar99Os7Bup10Xx14fGmhvcb2oOQ6N9018uUXz+bZt5LovLppJ931a76p1IN1eJOtt0pdzZv6s3Ibftmx9dtYz+Txf17J1MvjcLyPWv2m5ZcuddB8Nrl/exrI61ilj5GmaNh7Zzvr7/GZsj9zesu3JugV/f1E2XWPvL5gFu1+e/H618f5qrB9i6+xsvEcgDyL7RYkVdDZWesaZccYABjCAAQzMhoFuB/JhgBMPYoaxOihU8QLICR8DDKrLMO0af9oGDvSbDmwG9H/5WDnhXlJGddDm9l00OKwKCKvaXPVZrG3DTh8ro+H3yvt43O1j/TFxx2eWnyfbizBkzkJN94RRF/sodTRv5sP6Z14Xlstn+Ym0aFvVdrY+2jZnr/2TcBpeh/uQKrfVJpd+e51u1+aXzZu5uWHaVdXmIT6b6Papuu87YzpZ39rs+3C/HL4eYvx0/eGxd9kmgTxoe4e2Mxtt7GAHAxjAAAYwgIEOG+hXIL9oFsc8IB4UqkwugCweOA+qS7vfZxs40J9oYFPsv8qx8pzUDXvKpytdVlWbvToU618Y36qylmgbUtru/8/eu/PIslx3vmWcb0LgfA0CdOg3sD19ADqE5BzoulvtXpfWuL1xPRmkM2PIEnoP5lAY4UIyhAEGgo6xiQFnHAICKKdzEI8VsdaKlY96dlb1z2hUVWY81uMXURH/zMo+2575WA9xObuvDbHffR/z43Nf80gca+Ho5XN01/Pr9PzpZXrRv17KYyf+xU5uqwnShSMvxheGls5Fdi4z+e5xlvkkzxNxbK46dq46Py3H/qp+HTP2JQfH1DmrrB/3/nPEMcd2w8tZue95RJC/UCAfDQz86YOEWBALGIABGIABGICBe2Tg3gV5EXr0Y2zMMScieFGliDvy2JHn6WX2kTWBYODaTvm37VdBqD3exN5ZV8q+2MepmEetrIwp17/0nV+lT39HahW62qMBWn92o29iWPdCw7Hcv8TuMD1/0Y8Hitt7TfEV25qoVv1cbG+MxWCP2rOVvEq8g9ypsn3c1ny1mIx99rLa5lFkLP332KRHTET2mmMun0Nfgc0m1zmuyhZp74t+/JM6/1ZzlPPWbW13Hr/VxwIJQ9JeffzT25vnW7ctdyj3dg/t0VGuXm1f+G1+Ox6M6Cq2fE3M9T607W/Vv1nedDylvebb2/Q2HCvxCtszZYV9W94/ZsTkzgvS2rb8vrTl22ixkvJix2zOS16evrzkR1QlX1LMdOyFyauM1TT/uPGV+kt+aRsaW66s5LTFQfzVeZNYHP26PE9Y+8ZHZjWbpF831/rzOc6KXX/e5lbPTfp9n6Mkb/nChrQrY1dsyvHq4yWz7GI8a5fEeoGtZLPhuo35bqf1S47Pxb76Kv6474ySE/sdmuNo/LTzkjAUjuNhTkuxqt8jLp92rhE/5KYBG2ObWzsvtPYlR+3Vlct5KsfKd23vY7DF2Wr7V7a2vjgWc7mPuCDIAyp3tsEADMAADMAADMAADDwgA/clyJfNud58ighxkiCfN61qsy6bWC9i1Lz7vkS46PbUzXJ+3mt5rzfCpbyIxF248PV1ncVNoggk+vn45jnwzobqX9yftt0JsaH/ru0mfko8g/YO+rnQXlRaa2/cGPt89Fj5tubEnrHN8gsMETrEl6CczAUuB90GEWZ6viN7zbGltqQ/9Wrq5uM1psJvE6WcDSIwDTkTm7vfpg9jn+tLxPvatqkX2VaFL826ETxnWG1irvgmvrr+RdCdbV/FMefM+FbzbY6NDBl7TdnCnxHa3FyT49PyoMRdJ45qnkodYbPnVJcpFxFSmX7e91UE057jVF/7Iv302NVcN9v8+BJ/bZvartxmzlUq220reSr1tA2prrc7t+fieO4vprSNETP6vLEv26H8MPmPbHcxW6mv+83vc/vqrnhfv8WrP/ZH/GljRi7AteeRy3jv7ZaYqzzqfut7/T9WbI48J9K+as+Pu/Z5HF9NOG/cyXdmj3thudvf5m81L+Qy7XNl1bdZz5scZ9tc+SDuJleOg3TOxnT0c+xTf9+U/v13th7fxeceY5uT1JZjr8Vc98N7k8edxQhBfmcJ2TMs2MZkBgMwAAMwAAMwAAP3w8C+BXkRn+xrF4rqZrdttkvc84ZUjrkNct/8jhvjxK3dvLs8mrZS/afpJd0tKJt7vVlP78WGtpewfXZbVD+6jVZPndfHjD2x7boP/X4co3bjb2JY+9TH9PvWVrZdhIGgPSPE2dyttzfGINdpd07OM9KEqU1lUz8lT/0OSitwNn9TXFwOzDmXy8hHc2ypLZ33hfdje0qsyvU0g7FQozkZ26v5PcFW09aKIK9taDHV8cz9O9+MTbFvrS0fQ1O3smaOrbS3WlaPB/1euK7MyVzi7WufS13Dpp5nsh0uLi7WOba6jsx7te+cp2uM1dpn6r8JjMledbzNpdnfMeYDF4kJ58tsjlsMJeb+VY8Nfy66aNGFYdtnaaf5KP0qfqMY2zZs/3bspHNjbMI2DZe2zdKfZnHZf7nYY/zS7ef3Y0yGnEk8zGvQt4pXj422N/rOs+dTPRO7sM0oLv2Ysf+E+vY7Ysxb96332Y95f6L6usw6e73tqD+O7TE+CPJmsgDSPUKKTXAJAzAAAzAAAzAAA8czsG9BftzcF9GhCzpms13X7OaYFgyM8KQ3sT1upu6wB9Cb3VT/eXpVIkSua0QtKxKLiCYXFNJGX943dp297fhgyygGG+Gglu/HAsHDtGnjEcVBH+vt9thFwoOIN7qu+KSPrben+ql26/qlzeKDFfVSvTXfx7bFxvyaRZhDLPwt5cuJN6O9Tixaasvkytkr9skFBxEoZ9rrsbY5F5+1nfq9ya/zTeoOr3O2BTnpds3lK9m7cEHA+Zttl5g4gXmw09XN592xxfZM2Siu6pgp23PZ/e/HBjsdB80mEfI3tB31o4+ZnAdjTZdt9s30K+dNm4kJNU/KHBi1m48Jz7N3eI/fE9Lvca9z3JV8WPtKPv2cXvqz56RMeRVbbRmJQWxvbJeNjZtLGieKu3astKftKvN0VFaxGOVYH/NjvY09fde+aq/Zk46NPhpmVNnkt8TL5iS1M/qg29Hv41gX+3K5yP6t8161o8dYLlTXPLW2hYe5uHh//Gfvcznf+9VrkLW+5mzg+BIrtziHIK8mgFsEnD4Y9DAAAzAAAzAAAzAAA7dg4N4Eeb9xjzbY5pgWDM4W5NVdkk1USkJC2mwXQUEEaC+WRLnUwkI77+xtx6P9iCs7ihPK3kDwsG3bjb6JYe1bH4v6MoKtE0Z0XelXH1tvb5wPdH1ps9jgBaBR7Gnlo7hGx7IQ00WVVt/loB1PbTjxJrLXHFtqK7Ap183CTrdrS3s91jbnYrtuQ783+XW+SV15XbUt4LHbNZMvHR/9XmITHcvntEg1I0pFdaNjc+2ZslFc1TFTtnPd/e/HJJ5LryXW1a8NbUf96GMm5zW2+pgu2+ya6VfO6/pFNE32ytxZ/F1r17ZRY7TSbx6DTdBfj2uyQcResV1e585lu6rAmutmm/pFY6k/9zrUF57lNY81Lazq9zNjX+qaeViNA7mAE5yX77DB3ijW6ljxY2Z8NXvmcjCO+TDfbt4YmVHjrPap29HvB/9kfZBz2f0wfazMe+37Rz+eTcXI9qnyMXvB0PvjP6d4qmNHsmftmcsNx987TgjyqxMIkL43pPQPgzAAAzAAAzAAAzBwPAOPKMjnDbSIMG4z3DfXowCQ+DF1oz1A3ZA/q8cupE3+0+fn6Unu3pWfyc9uskueui0qb2sbfm3TrG+9Pd2Hfj+OFbWpF/slhrVPHZtQ2Mi2i0C03p5uQ79vtpn2uk9yPqwjtptn6ce5lnba61J/LtatztzxFDOXy8heHVMjeOs8h+9jn8b2vDCo65UceQFSc2Js1r7q94N9uo+eN2ObE9ZSPHW/+n2LtY5n1H90zNhmmWztpjJR3SUecruqPVNfHW/962P6vcSnxEzuHDe2NergmhcAACAASURBVKa7SGjOD3FZyrmNs7Sj421yXu3Xx/R7qe+fY92OB/XTudRf/seUao7RNvT6wtJr/ufXnlVpK47bckx7H5KDevdyE6v7cSN6tpzq8/oO9ZLfyNaoTzkWxlXGhYqTlBebxPdc33/naC41J+JDPi+8SKy/xf8vSLdl6tc5f3W82Hh1P9LxoO/IXi0+S2xMvsaxZeIatil2jXXFLomxn9OtD5oBaVO+B+R7UR2XGDqfbJveJv85taePlffHsmf7jGzk2HvGCEG+DRZAfE8Q6Rv+YAAGYAAGYAAGYOCyDNydIO831PmzCAoirKnHizgRwYg+ua7aKNe2lp9JXDa8ByW+l0266jPvHWo5LRYY8aMKY0Y4PnIzveRb3b8s+msEjdJ3uztyLa5VBOgbfx8X254RRapt9pj33bc3cm/r6/NViGsiViD2hPu7Ws+LWiZOuh/hTTGk280xVCLqWkxdPpfnumqr4ivHI93dKX5X3vQ/ACxlxKYgxtnG7o+JsbFv7L+L2uO5wbYgpiOralxX3powZmypOTHHPE8ijInvLo++/SoQ9nG+0l7QdxtLmYlSX47ZPKjHWKh82vzXXEluG2cl1m0cZjvSHdTdT9+XiXNtRx8zOa/n7TEfi2qbnhObfSXOtn73t9kd8ND8r+Om58LlTnx2scs+qTi09pxt5nhtS9uVzue2VOx9TEW4lXrlfB9Hvo21+t0my00/XmKgfSxt6l8HuXHoxrYIuenxJnNcGr8M4zUH5ljtT8VJ+pC4ePv7Z8dxzlHlSuVV+5vq5s/qvPQn/qQyOS7NJs+unhfGc6U/FVPjr+NQ+tLMVZ46u2MfyyK/j0upr/3zPq+x12M+2s+5fcYEQX5p0uZcfAWVuBAXGIABGIABGIABGNg9A/sW5PVP8+V9F5pk89iEiCpGvn55cqJkF0aGDXwTe4qI9aLrzvCb22gb/LSBCzbZuW45rp/nqjfSxZaXfOenlDHCxcrmvwugZRM5+BYJFsZfJTRUH7R9i3EN/Mt3vDZRzgoHVhQp9g7HmnhRcm3bGzfKQ32dL/EzizVVKKqPlZBY99fORxNwXFmTF93PUo6yDZbXxZi6tqJ8CvPl1fGVmMx9Vn+kvfSPh5s/2p6aoy8v01M7H8RCWJf2fpJc+Ljquiu2pRhKjqqANfib+5Nxr1mduRDi7fP1G5tiv3s15Z+ml68pLsoncz7Z5c/JZ8u+zpUeX9lfifunl+nls/NRc1bfmzq1rm6zzQmzOY9ETHssGlfDMReLo8dqri/xKnkY8t/8rywZ4dXlrl1AUbwIt60dL276NuSzYzfFeWirxkzyl16dfWasB20MuXT1+1ykx6zYWF9rHhIDkqPMkdjl2vQ2PX+tY1iV82Xa3BfkrPE2OyfMPwLIzmVzufFzjI3FyMw49iQu3xoHPr+qTcd1ymmJh5Tp9rS4tHZLTmxeE+Olv1be96HnEddWZ0AYHP2T9YeeB3wOI35t/B1XgR2Uf78YIcgD5O43k0wQ7zdBEHtiDwMwAAMwAAP3y8BuBXnW33n9/e3L8/TSxI775eykOSILFyKEfDDfM/+v07MSyo6OYSSgmXEViTsfMc778DkJeU20M3k6wr7VnB/R1jE2fPixeqW4HpGDUXh+f5uOnrOO8Je2ye9HYQBBnokBQR4GYAAGYAAGYAAGYOABGUCQ3/OmNt2N9zEEaXsXYspJvRPxHEH63sfr1+fzBNpVcRZB/n0EHXfHbOJU/7LhHG5Xc37+fMdYPT+G1+AOQX6feblGrmnzY+UaQf6cL0XqsnmHARiAARiAARiAARjYKQMI8nve2J15h/ROmZsTE+xP/cdHQMzVe9TjZ/86YlWcRZB/N3ZybtTjVVYeW7HZztWcX2a+Y6xeJo6b87phLkeQ319OLplf2vq4+UWQ3zABMkA+7gAh9+QeBmAABmAABmDgXhlAkIfde2UXu2EXBmAABmAABmDgkRlAkEeQ5642GIABGIABGIABGICBB2QAQZ6N7CNvZPENvmEABmAABmAABu6VAQT5B9x83SuM2M1ECgMwAAMwAAMwAAOXYwBB/nKxhEtiCQMwAAMwAAMwAAMwcCkG9iXI5394coXnrTnRvT0X7db/SGjwT/ua3t/qHzuVf6T0/JWBdKmBRDuwBAMwAAMwAAMwsDcGEORhcm9MYg9MwgAMwAAMwAAMwMDbtBtBvvxHby9Ql8+XFo73K8gnf5+ml5+uOTjLP/g5HA7TpePKgLpm3mgbvmAABmAABmAABo5jAEH+uHjBF/GCARiAARiAARiAARi4BQM7EeTLHdtJJD60u9bVsU8v0zd3l/stgnPxPtod8oHorv4b+9OXb1d8jiuC/MXz+ghs4sMVxxxfZow5GIABGICB92EAQf594g7vxB0GYAAGYAAGYAAGYGCJgZ0I8l0kNmJ0E7D7o1z03e32rnoncjeB+2l6+foyPSWxvwr+uo0SnN5/umu8nc91XLtZuOzlU5vJ5mbL0sWD5k/UproA0S5KVHibL/0XBHN3t1vbD9NB2xO0c7vH5DAQlwYi5+ADBmAABmAABmDg0gwgyMPUpZmiPZiCARiAARiAARiAgfMZ2Ikgv0UEL84OgrMI7fW1CdWh+Fwe09LaaMK3FdizcG/a7RcE3t5WymoB3N91vCTIK3ubD29vXeg39hRh3ly8WLSr2q/66D5q384HikFJDGEABmAABmAABmBgHwwgyO8jD4wH8gADMAADMAADMAADMKAZ2I0gPyd0W9HZCvdduFYiuQjiWnyWY1UgXxbklUDdBPT+vPV2J7x+1vtCXzrYb6q9Loj3u97lbvteR/nVLh5okb7faR/apUX6Vr+32ePHoOgxJxbEAgZgAAZgAAZg4DEYQJB/jDwyHskjDMAADMAADMAADDwWAzsS5Etgu7CshGolqI9iek1IE7vHu8G98Dy20UVqewGgH5c2xrrObmXrMFiajcq34c73LrJ3AV9dJHCPzCn29sfdWPu1eC9tjD4Ndvo7+/nM88VhAAZgAAZgAAZg4O4YuCdBPu8BltbRAX9tXX6Qde45G7WyRpY1f1off/v6etP/Y3VKDLas43Oc2s05Y4wu0e9aH1vsPK/Mt+n16/b/w3UJn8+zd8wD7RETGIABGIABGPg4DOxOkNfw9UV2v0O9HfOLyiZ2nyfI60W4vmu/HN8gfC9tJJqNSnRvm4vetjz3PS8Uk2A/tNnLFgF+QWRvfcpGZaFss+XjDADNG+/JOwzAAAzAAAzAwCMx8NCCfP6FarSmPpVhK8i/h2B7rT7XxPJL9LvWx3XHVdkb+RuTrtvnqZxRj7zAAAzAAAzAAAy8TfsQ5Jto7BfVXnhWj6zxInVrwwvyvk3VRhP150Tq8fjcBYF58VwNtGbjaFOGsZ2vPvjPTTDvdnGHvIpviw/HmNxgAAZgAAZgAAZg4KEF+bxOlhtOLpFrBPlvZ6ylEeQvwSBt8L0FAzAAAzAAAx+FgX0I8uGzzt+m/siW4A75Qz+m72Rvd5O357qP4vcoqneBe/kOef0IGNVu6yu6m10Npiawq7pq4dvskp/d6nbbxYPYhl5Xt939OrT6/Zj1VdmpbPooAwE/yT8MwAAMwAAMwMCjMbBnQb7dzJIf3/g8vXx5cr8K7TfmlP+91MV3W/cw+RtU+v9q6nXeojvqzbEuyNv29draj5F5G2V/8vzlZXpqj6gsbZn21U1G+finl+nls3q8pTovfPZ1fyo32mfOS3ttL6D3Eql+FHt1A1O2/fg+xNb+2vcgPp+5TNsnFd/13e4Sl9fESIul5NblQOKl91FSx8fAlH2aXr7qXOm9Zs37mo2fX6aXT6P9PQaeHz4TGxiAARiAARj4qAzsRJD3C8OykGkLLlksvfnFoSunF6RtEbawgGyLsr5AtCJ1dLwfa/YdDtPTp7pAVLYOULlFnK6v3w8LUFlEulddThb9up3+XhasaaB7+8f4DHYj0N/dM2PJIV9qMAADMAADMAADuxXk85pYrUFljdzW0WW9qte6RcRWa9pcp3/OInRb26fc1zWvHDPie2XDHCvlZS8gIvD8XeNrNtb+5UYbtY/pftk2io9ygSHZWMVm8WH4LDcw9Vj6OEmb7eac1dj7Pk/oY9g71Fg0P+qerua72Nh9KBdPehzEhx43b2P53M+X/iSXeS6sjMmx3KbwJvtG+Zz+f0AW/ztf/rPwJX2KjdI+8y/zLwzAAAzAAAzAwBIDuxHks5GyGNfCs1q4pTLtjo903JRXi7i0CJSFlRbp6+LQtJGPyYLZ3wmxfjyJ3mnhJYuwdof+sBCVxay/iGA/h4u45ouUdb6qvppvEkMXvzHO820tgcM5JhYYgAEYgAEYgAEY2DcD+xTkvXhaYpjXsCKIpjW+vG/rXFcv7wO6YBqxmNuUtbAR32vezDEr4ua1/WCDyveqjaU9EWyzfYPN1qewT21jfj/63P20PpSYlD6KIG/7k5iZ2J/dh4qR5G7wW5eJbdKxKPss67c+LxcuTKyl7/ZqY2PqZ5/dPlDHvV4IGfZpyq/IRokvrzrfvIcHGIABGIABGEgM7EuQbwum+eTkBWMSm2VxvaHOJWEvi60ijPdFWV3ovqNdl/SRtub5IzbEBgZgAAZgAAZg4F4Y2Kcgb4VRiaUWSPV6u//is6y/m+iqxFBpI70OdWXPYATWyrA5Zu3S9uj25f3Qj9wMk345++Vbu0O/7xfk5hwtLFsxOrcp9rY9jrIr+yw36LjXVM/408fpsmBfYyYXH87uo/drYiXtN7+knPJPn8u+lFhFubDHbBylXxHqNUOSD1M/ips5VmzU7fT38zZ2O8RXXokJDMAADMAADMBAYQBBXi/8trzPizO3AFYLcFnkARiTDAzAAAzAAAzAAAzAwHsycK+CvLlje2597gT5dtOOf0SMCNxGYK1cmmNWGDaCbWDDuo22vcyBs1kEY7nIkPsUe1ufvZ18Xvk3sGX86WPvGEH+/D56v2Lfciy7f1Lexyqqb495Qb60mUXzFk/bj6kfxU0fy+/dHfQtP8Vf0547Z/ziHI8ChQEYgAEYgAEY4A75ccG4acFUF2X9zogi0CPGnxhPJiMmIxiAARiAARiAARi4OAP7FOS9eFrWj1rgzuLmkvCcWDHithVby3q+9NN+VasFVmEttyGPb7RtrAms6zba9rzIrG00gry/k1zbbeyN1t1Bn+a58+uxL3GVmJzSR1DH5Mqfj23S8dfvZa9mj7k2ov6cqG7q6xgLG+ZYiavkSWzQr6Y9aYPXi89pOua892OJzzABAzAAA/fEwN3dIX9PwcVWJgMYgAEYgAEYgAEYgIH3YmCfgryI6Ur0zQLqQT03vgigTUxPwqYTVCNBXgum7Y55d4d0b7MK9u3/TTkxOxJ1jcC6ZqNrL9Ud2rRCchZ12yNv0ripNjYf6mcj2pd+xPfSRn8sjrTZ/M42LMX+An2YOCU/rI15PKhYFBuVTTXXxifjs3vMjvyfMYmT91H+wW/931+p/9yntGnE9zpfuWODjdJnbcO0N/jPHPhecyD9wh4MwAAMwMBeGUCQZ8HEnQswAAMwAAMwAAMwAAMPyMBuBfkU6yyaymMgn6eXL09KkE+bxyp4zz0aUgm6eaNVRdz2C9bPr/V58l2cFlG/lHmaXr6+TE9zgrzqf/5XsEs2lnOmrre5Cu5eeH75LHGJ/m9WFcxVXKS+bDiLeFzb+PQy5fZErN4U+wv0MYwnHyuVl8EmeQ5/EREisXs41nhSz3RXMXr+Wn2qcTD1nfjeeVIXCUTEV23qfzxs2su+l/58biRHvCIQwQAMwAAMwMDHZgBBflgsfmwgmBDIPwzAAAzAAAzAAAw8BgO7FuRZg3MRDAZgAAZgAAZgAAZg4IMygCD/QRPPRvsxNtrkkTzCAAzAAAzAAAzMMYAgDxtzbHAcNmAABmAABmAABmDg/RhAkEeQ52ocDMAADMAADMAADMDAAzKAIP9+myw2uMQeBmAABmAABmAABmBgjgEE+QfcfM0lm+NMBDAAAzAAAzAAAzDwcRhAkP84uWZck2sYgAEYgAEYgAEYuB8GEOQR5LkjDgZgAAZgAAZgAAZg4AEZQJC/n00ZG2hyBQMwAAMwAAMwAAMfhwEE+QfcfDGAP84AJtfkGgZgAAZgAAZgYI4BBHnYmGOD47ABAzAAAzAAAzAAA+/HAII8gjx3xMEADMAADMAADMAADDwgAwjy77fJYoNL7GEABmAABmAABmAABuYYQJB/wM3XXLI5zkQAAzAAAzAAAzAAAx+HAQT5j5NrxjW5hgEYgAEYgAEYgIH7YQBBHkGeO+JgAAZgAAZgAAZgAAYekAEE+fvZlLGBJlcwAAMwAAMwAAMw8HEY2KUg//r6Ov3qV7+avv/+++m7777Lf+l9OpbOAejHAfQRcw3fj88vOX78HD/i3LTVJ/iG762sUO79WUGQf/8cMA7IAQzAAAzAAAzAAAzAgGdgd4J8Et0Ph8PiXyrjHeEzcN8DA/D9+JyS48fP8T3MNdeyEb7h+1ps0e512EKQv05c4ZW4wgAMwAAMwAAMwAAMnMPArgT5X/7yl02I/+GHH6Yff/xx+vOf/5z/0vt0TMT6VPYcx6nLwLk1A/D9+MyR48fP8a3njT31B9/wvScesWUbjwjy2+IET8QJBmAABmAABmAABmDglgzsRpCXu+5+9rOfTb///e9nxfZ0LpVJwnyqc0ywXj+rO+8/vUzfVp4V+u3LU7sAkPp7+vJttT/Tx+F5el3pI9v/9Xk6GHu+TS+flK3pFwPm/Nv0lurM2fTTy/R0eJpefvKDqbf7/NWfe5u8v3LxI+7ndXr2v2T47B4nlG2cicGcjfm49d3H3cbYls0251gl+6IYjH4fw9CpZa/Ot4tblF9ru8/fTJ40v64PnxfbvsS5MFfsqfx5TnQflevY/iin0THp+7avV89xipPLQRyn2O88vpdiL3k4qQ+d59p/zaWeR6y9Mh/F7OVxHtkr7fo5Mdvvudbzw9jPOOf5OaO0Z+2W+Bb7x3EQ2OD9EB/8HNo+Fzs250xyd8XXW/Bt5vYwvxJ7/7p1HvC5GZmI5zHfH5+J0/0wgCB/P7liXJErGIABGIABGIABGPg4DOxCkE/PoxXRZkmMFzBTGSmf6srxpde80Vcb/FmxpwoaRajRm/WykR/Flw6Lr+P7jO3zQkLcTxEqlD1N0FHHRIzJgpoXlkTMe5qektivYiF2ZfuD4yICNlGqCnbtc+63imu6frYxsC+VD2ws8TtMq+2KnzPtiD/5ooW2R9e74fur8+3zEcS2xST7PTLm2bXlE+Ouju9zJp653SZGVgHz09PMxa3X6TmdO3gGev+H6CJL4uyd83z1HKf4+piv5tnPTYfp0HLRz5lcn9iHzbNc3HNjv7bd51AR5OOLnXNzdJlXlzmxc0jx1c/H/nOOQ51Xe/3Cff+s4xYI8rV+91H1PXuBNminjadyLu5f23Ld97fg2+cjf17jVc1n4dzQ4pji4+awtxlOTZ3rxtWMPfrdtJYjZscziSB/fMzgjJjBAAzAAAzAAAzAAAxcm4FdCPJy5116JM1Wh+XxNanuep20EXcCdRaHnGDUNsSxQJJFp1nhLxJuomMWai9klTvfI7tcW1n4qeK6Fy1mhLpmf63r76Bv51scuq1aHJkt5/vN/US+iLiocuLrGhtKPkIxcUO99xazrs33wNDb25Ty5UXBNk7CvDi+TPyrcOXYn+Wg1U1tqhy/ybh6mZ5dW9m2r8/T05eX/MsLk7Nsb7qIlERY3Z7w+f6i5bVznOJzdJ5zHurYOczMFS1XJZan9TGX5/EXRZaZysOn9EukMa96zmnsVlH1+Wv1y8997bywoV7NXDHPu+13vtxb41n8XCpbxmR84ajGYe4XWIn/aLy43PUYKZ8vVOb6fHuG5Dti5vtD/FqdG1QsTpj3rhlT2la5kXzyumE9e3zcEOSPjxnjk5jBAAzAAAzAAAzAAAxcm4FdCPLff/99vuM9PSd+q8OpbLpLPtXdWseUM+LMNtCsmOTqzLS3KIxG4lEWDUZxytieNq0iLuR+3R3FoS1FLCoirX7f/VjyT4tUudzs3Z69vWZjtMl2Nur2B1+1v74t185QN8XpncWs9+B7NZ4+jhGLqkzYXo79vGA28tSFx9SeEd2zuJm496JmqZPLLuX6nfP8HjlOrId5UXnTvxJZLavrqfdr9ebyHF5AU+1qQTv34cZp1K+ee/T7Pu49P2o+MvzEc2BvR+ottOcE+TEO0kZ9Nf3rc31cjP2ncmoMmPjpNq77/l34no2X+KrislpW6vjXpfz6snyO+SQue48LgjyM7p1R7INRGIABGIABGICBj8jALgT57777Lovr6R+4bk1CKpsE+VR3a51ermzk1wUjPShW6ohA7gSTSFRqdoR1aj/yLOHhDtBqk6o7CFOROJHLd6E/Eo+iY9nWXFcLqEXEkMcGHXcndrXf2Fh8nm0nx3RGODHt6HxF/QTnXb5abi54/OZ8u1xv8mmxzkx+FmMf1VHHUn+a7dRWFmRn8pzysdTf0rkL5nIuljfPcfJpMWcj64tz0VyMVvtQOdVt5Hry/PY+79j46bol73oOGO0t5Ts3ESvRsRSLWleJ/mXeFBvnLizNtdfbFJtHe30OtL/63NzxXma97V7Wxvgyx2/Pt8/1ih+njv9Vvlf61czz/oS1GPG9xnj1bSLIw5lngs8wAQMwAAMwAAMwAAPvz8CHE+SzsJHF7jmRKE5KqTcn2og4Np5fElJmBfC0sTeCVhGNRPjJAyefl/6ceBGIE4MduYwW2eV5uiJQ2Vd7N3OJkRW0SnlTLvBBRPzyKjko9pu6g7gxI4wFvtqJZabe0H6cd9vWaWVuJmbVnObYarF7zddaz/Bl6swIhouxj+Ku20nnhd/CXuk/qlfjfnR/p+XrlJzfLMcpLyfmeZgDTI5drDb3sZAvEcHl4mJ+7TkXkbxx58TRwd4g/7mMEtnlOeF2nqlzmSkn/hb7TXlTLjhv/OmPhkq2NF/C2Gr+pf/0One8l1n8rgj76nVP4dnXuSXfOafHfkcHbHgfhs+V8eWcXTaOgw03yB19kkMEeRhgHoABGIABGIABGIABGNgfA7sQ5N/v5/BWkJ4DtAgEIh7PJNEI5L1Mrjsjjm4XWYpgk0SjJlr7/qq4kM8P4kQkmtU2lW3b7en+9ZiJcKXi5G3U4oOxcV2QEqGt+S9tmXYiu7a0HdW73LH34DtzZ4TFGX8qN/2u46jcTAwXYz/PnAhgycaSz9S+cBPVqzYt9jdjo3By5df3yHEae5vzLGXVeO9jN8p5P7bcx0K+fMzzfKD/ofSYM91Xfq/sDeen3Kawk2w+wh5vnzynP4nBrd+l9qz93t4xvrZ8Pz93vOdg8fFfgR+9bdXGGeXehe86Nw1zfuTH4twQxKC23fMclIn64Rh3wd8hAwjyjO9LfyfQHkzBAAzAAAzAAAzAwPkM7EKQv/4/jIsDtS6gVMEr+IeDA3wzgkDqQwRIXycUmGY3e0W0aQJCIHbn9tJdx86Wctze8d7vCO13rB5nTxTTIl41fwMbWwycjau5mGvLtdPab3HcIHa1spFP5x97F75X46LutG7i47yvYX5yH50fG/tIyHS5SDlNfad22sWDqF61a9En1/aVc2p9fZveJcfJx8WY2HyGOdwSp8U+FvIVtZ3HsQjoUc76HGLtLcf7vGXnszbnnCnIp7y2eTTbv+SftX91/pyNo23Hs5U/z81/UYyvcOy9+LYMWJ5NnGZjG9TJZfVFl6DMFWJo7KV9hP0bMoAgzxhn/oEBGIABGIABGIABGNgfA7sQ5F9fX/Pz4JPY8vvf/351o5bKiDCT6q6CNbNZX9vs5/PqsRrL/UTCTXSsQzAKOEWYaaK727AZe0OBpopWn56mp3YRYaHNKkyImDXa023tvpc+pE4/nso6YSm0sbbpc+I/G9/XfBCBb97eTXdZmj6jtk47dm2+DRfiw2I8Rcidv1hk81pFyiaalzgs8xKx7/jI4unz9PLlSV20iurVuC/6tFBPYnLF12vnOOXjpDwrn8P66vxpfQRxN6K7GzMmh54HxdXhaXr6pETThTazX22eDuxxPiY/M7utjrPRzFtL7Xn7l8ou/ZrBt+PsEXvd+PNj9Jqfr8634aL7v4XZ7PdM/SEmudz2eW+oH7BEmZ4vYrHPWCDI7zMvjBfyAgMwAAMwAAMwAAMfm4FdCPIJQrkD72c/+9miKJ/E+FQmCfKpzjaAi+Bx0ILGgsCT2lwUbGY25b5OFhN0n75eFgfcHcbZrkAw8IKDEY0UxLX+QQR5X8/YYOOyLLD2Poqf8riRfnx4rMKcjcmGwK64XWvjkO+gHVNm7byJh/LlwsevynfNeb/oUGM2e+d7EQ7jiypzMXB1clwDBlTcEv+2j2JXP1btFFZz3QVRcymXS+eUTYaNCx+/ao6TrUfn2eZyk7h5Qh9zeT4Egre1wfMg9goXXZC39aRcfTU2L/Bj8l3Kme+EfN7btNSeL9tz1BkvNmb7g3gUHoN2jK0zF2NcmWuyndq+Lt815/r7Mud16WKr4mDT+C+59Lm5dtxoX+XpxswS+xL7vQryyS7+iAEMwAAMwAAMwAAMwMC9MnDufmM3gnxy5Je//GW78/2HH36Yfvzxx+nPf/5z/kvv0zG5Mz6VPc75uuFv/5DPbfTz5l/E8SrWtLL68QhSJhZRivAi5aXs3Ia0tNGFVCkX9e/aMvZKvfJabCj+5fda5PAbYiV6bBXkc9yrICv5yK++nwUbI0G+5HP0fVFAWRFijvLJx+bCn6/Kd461cNeFTBkjmYMq0MuFD5O7ynqLdRRXl/NWdi5OySbDxDhmxvyU/I9jIr6II/6N7dgxIeWu/XrVHKc4L+Z5jK/2VzPQjkdjdLGPIK5DnkuZiDPLzIK9wpo80kj//4yBt9JO+WXRAj9DPXkkCK4DrgAAIABJREFUmRo3Qz9L7c3ZX+3R3x+zF8dSrObakVgv2SBlbvN6Xb593Ja+o52/0Xzl4hrxKHOg5dK1HXDTxg/njlyHEdv3YCdtcN6jX/qEdxiAARiAARiAARiAARiYZ2BXgnxKlNyFJxvl6DWVeZSkZpFgUayZT96jxOB6fhSBJxR330lI+Vh8JyHRiWpXifu+8vyxcpzmp1vl+YPOhTMXPK43by7H+ePxvRyP98oD/ZKXrQwgyMPKVlYoByswAAMwAAMwAAMwcDsGdifIp+Sn59WmTf/3338/fffdd/kvvU/H0rnHAgQx62r53JmQJX5+JL5vcsFph3n+SDlOXN8kz1e5mHO7L1sZ/8e97utik9j+0fgWv3nd+3jBvohRBHm4iLjgGFzAAAzAAAzAAAzAwPsysEtB/sNBsUNB8f5zwIWOfeTw2oIief4YeX7fL8r3ijEXOj5m3t+LN/p9TN4Q5B8zr4xX8goDMAADMAADMAAD980AgvyHvOvyvqFl0iF/MAADMAADMAADMLDOAIL8eozgiBjBAAzAAAzAAAzAAAzcmgEEeQT5B3sEEJPIrScR+oM5GIABGIABGNgnAwjy+8wL44W8wAAMwAAMwAAMwMDHZgBBHkEeQR4GYAAGYAAGYAAGYOABGUCQ/9gbPTb65B8GYAAGYAAGYAAG9skAgvwDbr4YbPscbOSFvMAADMAADMAADNySAQR5eLslb/QFbzAAAzAAAzAAAzCwjQEEeQR57oiDARiAARiAARiAARh4QAYQ5LdtiNg4EicYgAEYgAEYgAEYgIFbMoAg/4Cbr1sCRF9MWDAAAzAAAzAAAzCwTwYQ5PeZF8YLeYEBGIABGIABGICBj80AgjyCPHfEwQAMwAAMwAAMwAAMPCADCPIfe6PHRp/8wwAMwAAMwAAMwMA+GUCQf8DNF4Ntn4ONvJAXGIABGIABGICBWzKAIA9vt+SNvuANBmAABmAABmAABrYxgCCPIM8dcTAAAzAAAzAAAzAAAw/IAIL8tg0RG0fiBAMwAAMwAAMwAAMwcEsGEOQfcPN1S4DoiwkLBmAABmAABmAABvbJAIL8PvPCeCEvMAADMAADMAADMPCxGUCQR5DnjjgYgAEYgAEYgAEYgIEHZABB/mNv9Njok38YgAEYgAEYgAEY2CcDCPIPuPlisO1zsJEX8gIDMAADMAADMHBLBhDk4e2WvN2yr1//9ufTPf3dMjb0xbiHARiAARiAgf0zgCCPIM8dcTAAAzAAAzAAAzAAAw/IAIL8/jdjbJhPy9E9ifHJVvJ8Wp6JG3GDARiAARh4VAZ2Kci/vr5Ov/rVr6bvv/9++u677/Jfep+OpXOPmgz8YqJJDMD/9TggtteLLfPX/mP7P//PP03/3////05/83d/Mf3V734x/eXvfpHfp2PpHDncfw7JETk6lgEEeZg5lpl7KY8gD9v3wip2wioMwAAMwEDEwO4E+SS6Hw6Hxb9UJnKGY0B+7wzA//UYJrbXi+29j7uPYH8S3dfEi1TmI8QCH5kLPhIDCPLw/qi8r32n7e38o+YBv5hjYAAGYAAGYOA0BnYlyP/yl79sQvwPP/ww/fjjj9Of//zn/Jfep2Mi1qeyJP20pBO3fcYN/q+XF2J7vdgyn+w/tr/5rz+sivEiXKSy5HT/OSVH5GgrAwjysLKVlXsrJ99b9/J6b/HFXuYOGIABGIABGLguA7sR5OXu1Z/97GfT73//+1lBIJ1LZZIwf+yd8q+f1Z33n16mb2vPCv3pZXpSd+s/ffk2a5cH9duXp+nwOXi8ztfndlEh+fD8dUuCX6fnw9P08lMvm9tXth3c+be3VOcwHUI/v00vnw5T6I/YF9arbZp+JabP06uL51Yb4xjM2RjY4OMsPoR2JntLLGdz5Pzwub3G58fgv+RMLprF7HWGrxHHqM2rx9bNE8t+B/w2TscxFPmT5rFx7LrY1zbHcj7+yZ7bzC0y/4Y2LY1ZP77fAl/9fJXbm4lnzpf1OcfZ5/Ewxll8aIy33NV5sNoR58jH/jaft9wZ78WMo+6U/1+/m571P9b7L7+b/jA7h/7T9J90WfP+N9M/ztbrsfrHv//59Pzf//fCd3Hp4z/9j14nGkccIz4fhYH9C/LBnD7M+xfgtc3xwfy/Ye45nZel7/25dfp2f6+3lu156d/bK74c4u9d+90Zlzklvv67a++fT/GROtvHArEiVjAAAzAAA/fGwC4E+fRcZxE4lsR4CW4qI+W3PlM+LwaVaJM/Ly74y6KzLULrQj4Wjy34TYj27fs2smi0vjHw4o73JcelClrdvr5o7sfEzrLIbr6pjUhp+ylfiBjrlTbH42+Tt8l/XrIxau+tim7GxuqjOZaeuZ4vtMwt8Od9lT7i/iVW1399DP7rxk2NsTwO1GcZv7d8vXps/ZgWHo/y2801ajz6WBXWR6FYLsAdy3JqT4+nY8ZtmoPH/ubGW/Xx09N0iDbsswK6j43/XMbnMAfMtvc2veWc2XlX5mzrz8i0yUfQTj+f7LR99HPXn1Okr/Rc+FMFik3PlK9ivBa/k2D+60VR3vtfBPRlkb3UyW3/dlmQlzLaJokHrz72fP4ITOxbkC9zuqzpzetR36MbWK7f13JTxu1yv+Bju6h72veFrAnCG4AW1hLbfK/fgebi9BZf/Hp8rKPXHdtsifN76vfbe9U7x1fqxgwQF+ICAzAAAzBwzwzsQpCXO1jTI2m2BlMeX7PtLvm0GHSL3bww94vGDnMkJkbHrL2yeH2anj4dhjvk88LZifTRMdPmYGdZ2FrhqNht2yrlnkIBbFk0e/5a/XC2Lop+Rpw6zsbIFxHL+6J9vs0Ur+x7uHmb87XmOgl3Yb3OgsnH2Rucsd2H4N/kX3wssY/zK2Wu+3rt2IZzQhiLeT/n2dV1Cv9JSEhzSx8XtcyRfWamcx09B86PsbPnFhHIc5+BkC/ng/FlYjxbztk+Wy4Q5BdjNzcXBu0427Pdwxyqc3r996fcHS9CxZa75P/w3/96FN+zSP/X03/+X9v82ybgy531fz09/5cFQf5//Gb69X/563zHPoL8tvhf+/uN9t8/D7sW5PNc3X+5mHlpx4LvCjfP3gdf8v0d+FO/E/OFiBPWovm7OYn6V/muqd9/M4L8sLZTvpg1Ssvn8/SSfj2c7D3B1yjX8n215fX1T3Ys/uHffu4uWP9m+pf/sGX+/Y+/MWVKG3+a/uWffd1tnyMfOGZjTjyIBwzAAAzAwEdiYBeC/Pfff58XaOk58VuDn8qmRV2qu7WOKbcowlSB1y9wcx0tYLnBkhaddZFpBaxUbkYYVnWMfXXTMbZTFvZmsRtuUESgigSl2JYsINW7V/X7bpe06fxO/Zt4Hmtj0J6LlxHlIn9N/7q92NfuUzk/bCyiPq507CH4zxuucWwkftdZ1fm67Ps9xraz9za95bi5i4UBZ13cneF5Jv6mL9fu7eaWYnMRDPR7lesF+83Y3xivEteRxxwPN1eMcVB2pZjN2ebaGWOd5sH13I71XP8ub8eU/5u/+wsjJmwRLaRMqntMX63sMYJ8EtB/uy7eZ+H/7/9penv739N/nhPkW788sqbl4gx2aONy4/C9Y7lnQb6sNZMgr+fr+j2hheA834pwX9aY7W56t1bPc3oVqdv7NBf/N3kMZZ+XW/9p7d76qI8gc+2mPLby+c72ZHO3ZX4duVImf8eIb4o7b4+OR/ToNvOrtd7nXJzWuQzysOhvL68vELQcpHg2n3oO1u1QMXFzmnxfrb3+7R//lL/PiggvwrsW1uuj1v7jH6a/lUep/fM/TP+e+lPHEOTnc3FOHqlLXGEABmAABj4qA7sQ5L/77rssrqd/4Lo1EalsWmSmulvr9HIzolBb6JXzg5CYF5LbFpGjyFMWx8OCfU7sybbEdcYNQTSAVd26AO59R/75mKj6LS7RsdR3ravueDnaxtaH+GJtHOMp5eTVlve5HnKp+ltvW/q4zutD8B+ODc/UdeLXcz22f/vYyoZdiwujXcXmU+ITc27HWxETlpif+7WLbWfOBzUPbJlbfJlozouOpTFa63ZfasyyGLJwV+Bce61NmcfjeFqmlL9q3rAXIaMcb2k7qne5Y3/5u1+cLMj/1e9+ccJ369uUxfPfbnkefBHXf52F9q0+zwny+jiCvOV3a2wp96hx27MgL3P8qmhcvwtaOfkOkFe1/mwCsJxLr0Zwl/lfvq+rAK/L1/f9u2e9bF9j+7FUvkOS7XGZfr71t+BvKeO+C6u9pf3e3hCv4CLDPPe9j2bXkiCfv3f9+qPbUmyL2vTx2v55TYiX82tC+uz5f/tXJeT/fJotJyL+yut8rLf7TBvECgZgAAZgAAYeh4EPJ8j3hXpfkI9AzwgpeYG8VK+DMYq8ZVE6LMY3C0e97WJvX+S2BbfakHjBrQhtIrAF/gW+ZR+CNlt/evNiyomt22wM23OboWRL3xBI+/o18CmLZ3PHe90cm9D+XmZk5HLnbikaX4//Emf5hUiOl2zOjtoAXi6uyYZbxlb7PIxzLeTK+2DMrXMW81zyKuM7xbCMvdkxs9j3tnErPq7NLeP4CmwTVvSc4uYAE5ugvPE1OG/nGZnHSzzFF9OH5KnGciizGMPCcc7LO/KfRHURJI59TWJ+HI+FMZrveP/5tOlxMe2O9oX2Wg6kjBbe5Vi9CNCeW48gf3Tehjj32NLW/cdi14L8cNe5iOP6+6xfnM3zuFqvle+fUkfm6L7OcQJ4nrNTWZn/rcjev0PqeiZ9B7W+1PeimtNn+zJjqtcVG+246v2JDdKufG43viSbov7VsRYTdUza6/5s4Xq0S9YW9vtUciavKnftu7gfa/aZX0VssWcss/V7rQjpqb6+K14eMxPcHd+E9XruT7/L36UI8mMOLMucJx4wAAMwAAMwcAwDuxDk3++xEm6x3hbQZRHaF8IVqg0CjAQ/L37VYlgWscNiPC9W+0JV6ufXI/prC9zWZ9kA9P7qwjqfH/3L9dvGo/qbbesbl1kfWtyWB9+6jbq+tXGMpy6b3tvyPY5zx1X9pRxs9K33p9rdWPdx+C+xbhu1z6/l2f6NyeNjc05cU92bxrZuPId5Y4aDcMzNlO1x2MBzbaOMt/eeW2J783jW881ZY7Bz1+a7pfbMvBrb1+OdmPVzaeXYtBOzfVqO47asTdvK3PSRNVWM3/LPWZMv4fPnV/kPBPlB2EeQP4UV6mwbU/cYp70L8iWmXbRuawh9R3meb62YXur1+V++e2fF56CNti514nA7Lt9TQV1vd/v+Geax7ltcZvRBc9b8kQvWak3Vzqljum7zQ+qKP4ONEf+RXd0Xnaf23tkR2tdiObcHi2yJj20V5H8tj58Rv9VjaNq5KrrbNq1YjyAf50Ezx3tiBAMwAAMwAAPbGdiFIH/tf7w4B0ReKLrFo5QNz+VF5IzAJYu8+jrWnxF+knA0t0DO/WlBfDmxZeEt9gUiUl0Eyz9tlc2LCE5tQS0L9/rqy8UbimXbJK6rNrY42njlenNxSnVmY2XbETvM65J41+zZ5p9pd2PdR+S/xGFD7DfG6JS4pjo3i21maO1XHJqhU2NzRL0lrmfHi7axv18dt3NzS41LPLeouW3J1k2MlLi0OweX2nO+j3N19ztzN9eWaydidHXe2uSbs+eIOtf+p67N5yPF+MVnwS/6Nwry5RE5cqejez3qcTinx7nFYdF22idO78PAfQjyKjb1+yR/b8i6rx1T3xt5vNW5Xz1fPc/paf0qdWVcBm2U77ax7HC8fZfJGlvs7QL1/Np4rUw/39bbrT+561y9qn1L81UdGx4DpNf0PiYSm/B1jK3eL8z7O8YmXgPYu/1PmR+seO7m/3aXuxyv4nrz9V+n11RGxHoE+eN/FddiKTnn9RSOqQM3MAADMPBxGdiFIP/6+pqfB58WbL///e9XFwSpjCzuUt1VgGeEkyUhJhJSomNzfUdtbz3W2gzsLpsEvyGoABvhKBDk3+o/qz08TU+flHiY6/lNTmmzLPalv7jNZm9dmJ1rY2nPC4/LfWc7w42Gb2cc7Mfk1ft6ic+PwX+Qn4DfS8TrmDauHtvEfN04r29ONXtBvDZtbCKeo2P1p/jhmIgvYJ07bstcYeeW+XFZ/N8koLe4FD9bnXZczVUiSpi5UMc98H2R04U+F+sFNjl7j+H41LL/8//808mPrEl1N/V7zGNqWgxOvYt9FORHG09t23HSbOX4GGNick8x2a8gX+fXJBjL3C3jrn6vtn/2mufbIkrb79rehojZ5bsoaLO10de75XtvgyAf1C0M1O8yfTe/+NBeV8oMbffy/aJC91PHavRVlVN3/bdyi2sC/wuE3pbE9hhBvsVWXxAY3sv+4rQ55ThBvgrzIsC/vU3//sf0j8XtXfC2TXuOO+RPy9M9zZfYSo5hAAZgAAZuycAuBPnksNzJ+rOf/WxRlE9ifCqTBPlUZ1uw6qJSL0QXROjSZlkQt0VoXTDbjcA8rHnx6zcYvo1VG4rdts+6UNe+5EV/KdvsnXvMQj2e4idlQ1tlI1E3RcWG0re1J4rBuTamNr0/XfgUuyX3ZaMxt6gP2hHf6uui/66s9Hnp10fgP8excVnirjeOl47Z1vauGls/prfykut1UWCrL+G4aM/gVWNg1a6SHzuWzx23tX6bW5bnCzNu8zyj7J+LY52P/Bww/EJmqb0g9iIc2HhUhhvTbq4L2rF5XJ97bHnX/lwMjjx+yl3yqc4m2/LjYjY+M17bPTxmZqvvCPKb8qJjzfttLD9wnPYryOtnuOvvwzr3JvFW5t/6nZZvxpFj7bvPCvXlu+XCgrxaO+t1TevrZEG+f29GvrbvJO2/2lu0/tux3l7/nuzHWh8D771Mq6f6bHaoOPRj0fwd5FD3qdpu/enzG99b8VzuhN/wWv9ZaxHk/T9r/c30L/9Rxfpa7o1nyH/4eZTv3miccwwuYAAGYOBcBnYjyCdHfvnLX7Y733/44Yfpxx9/nP785z/nv/Q+HZM741PZ45xXi8N8h4Ze/IvY6wQhtWDUAnbpd1lsyYvktkBWoFZBSfxYXtDWzUrQTluEq7tNbFtlcW2PVTu0qFV9DMvlBXGNW7Zhoc1g8XyWjZEgr+1RfuvN0cjEcp7kbp95/1XuAh/H/k4vf//8uzEWcHvJeB3T1rViGzHux3Y4FxwpGHdf53kWUdn33+taNnP5IEeRT3Z8LMwDam4p9rg5VY8hPfcsxUPXye+7cCC+trsopexSe7lfN//PtLsoFMy2U+O8dl5svcHrb/7rD5vvlE9l55jxx//x7+eFD/nHrrmMf3RMvqv+N9M/Rr4vivUI8j4HfLbzGvEY47FnQV7WYH0uV49m0SJ3/b6YK6fXge07zH+/tTb6/N++N5XInxiKjrdjev356Wl6qp/t96TOQ/SdZf3U/2hWLrwf5Wu1IX1nNf+1nfLe+anHy2w9U6f7Mu+v/BKt+Bh/j6r1omlfx239/TZBXh5VUx9R89ufT3/7xz/l77k//Jt8h7kyIsTn76j+j2C5Q349J5op3hMvGIABGIABGFhmYFeCfEqW3M06uxA96s74ZefvAo68gVgQtSJBg2ObBaX8uJEzNgOXZgj+rzdmia2LLXPL9nnihDk1izdeEDqhnUvNMVvulN98Z/w7+nGpeNCOmw/I6VXng/fkbd+CfOJQibMiHB+6aJ5jZ8R0V97Ns01Ydsf7s9V7201kd+vA1ePJzlxni0Ddy4R7G29nHou2Tha16wVvewE6KOfjmdo38Zsf+81vyYOLi76AsiTI93Z6rP0Y2FLG1/GftwnySXQXwb373sV4EeXLnfG+j/RZyhZBvrfRyup/Ejs8u17a//nDzjEtDnyPkGMYgAEYgAEYOIqB3Qny6Us9Pfc5iWfff//99N133+W/9D4d2/TM+AeDIG0u4jtMgkXhg/l+3UVe2dQtbSqu23+cP/iP43KJXBBbG1vmFhuPSzBW2kgiybwQcbl+jrM/PRc+ie5/83d/Mf3l734x/dXvfpHfp2ObnxnPd8xRi6z3yjX9Hjc2Hjle+xfkN+Rqo6B8vTwq4VuL1E0k3998f71YbMjXjb4ntgvyXRQ/uk6+W77fXX90fSXQf4Sc4ON+xge5IBcwAAMwsH8GdinIA44HZ5/izr3nKd+dE96Z5OPP53vPNfbPMczccg02uNAxxxvHr8EbbcLVEgMI8pfho915L3eP61ct0t9IjF7K+Uc5d444/h51P0pe8PMycw5xJI4wAAMw8PgMIMizcOZuPxiAARiAARiAARiAgQdkAEH+cpu5UJRHjH+3eeM9RPVz+kRYudxYJJbEEgZgAAZg4BEYQJB/wM3XI4CJD0ywMAADMAADMAADMHAeAw8hyLNWfzfRe8/j7xxx/D3q7jmW2HbePEv8iB8MwAAMwMApDCDIs8hnkQ8DMAADMAADMAADMPCADCDIs0E8ZYN4D3XeQ1Q/p897iCk2Ml/AAAzAAAzAwO0YQJB/wM0XA+h2A4hYE2sYgAEYgAEYgIG9MoAgD5t7ZfNcu84Rx9+j7rn+Up+xDAMwAAMwAAOPxQCCPII8d8TBAAzAAAzAAAzAAAw8IAMI8o+1cWMjTj5hAAZgAAZgAAZg4DEYQJB/wM0Xg/MxBid5JI8wAAMwAAMwAAPnMIAgDz/n8ENd+IEBGIABGIABGICB6zCAII8gzx1xMAADMAADMAADMAADD8gAgvx1NlBsTIkrDMAADMAADMAADMDAOQwgyD/g5uscIKjLhAIDMAADMAADMAADj8EAgvxj5JHxSB5hAAZgAAZgAAZg4LEYQJBHkOeOOBiAARiAARiAARiAgQdkAEH+sTZubMTJJwzAAAzAAAzAAAw8BgMI8g+4+WJwPsbgJI/kEQZgAAZgAAZg4BwGEOTh5xx+qAs/MAADMAADMAADMHAdBhDkEeS5Iw4GYAAGYAAGYAAGYOABGUCQv84Gio0pcYUBGIABGIABGIABGDiHAQT5B9x8nQMEdZlQYAAGYAAGYAAGYOAxGECQf4w8Mh7JIwzAAAzAAAzAAAw8FgMI8gjy3BEHAzAAAzAAAzAAAzDwgAzsVpD/+jwdDof47/PrVVl8/XyYDkf08e3r6/TtCDa+fXmaDp9ejqtzZB9mQ/7Ty/R0eJpefjpvk5rtNjmZbzPHUJeN/M05fp5ej4id8Wuo9zq9fj3Px+X2r9v2wN3X1x6bC+RwaH+I3zX9+za9fJoZzxdgczlvr9Pz4TA9b2bjTjiSOTIaW2/F53gO1WOu5OXpy7crzanHxv5UBgN/j5jD5/g5Za6eays+Hthd583tvOqY7ZPd5blniRHLp8nHBebEOCc6nqe/P3ZdcE1baPv0PO4hdgjyN12s3DcsewAWG2AIBmAABmAABmAABrYxsG9BXgtH4k/ZvF9PQJJ+tr0agWDjnuHYOseWvwb7WVDxwl8VBI1wlEWS8YJG9sGLohcV5JdEnW25vEbcTm7Tx+YC4tOyKHbtGFlhTcelsBGN9WvbFLV/PxyVMfk0PflxleeheT/sWJ7Pi87Rrt/XOcfMQ2/Fr2MvfN7ez5k8VZ+O+56baWvj99I1fV+ee5bsXuDzAnPitXzew3f2tXyj3eh747rHEOR3MIkB/nUhJ77EFwZgAAZgAAZg4CMycH+C/Nu0p83uKbYcW+fY8pfneF4wsULLgnjyVvN2UMKrF53P2nPN23j5eNxgrvSxuYD4ZHN1Ax9MPpfY2FPu9mTLUo7Ezio8D3eDy/mgDcPSUl6Cuian+zg/Oz8aP/dh6zgXLeQpzwHzv0I6qq13ztvy3LMQg3phJbwwseP8zjL5znkYmdnruMAunSsEeQbOlX7CxkDTA4338AADMAADMAADMHBrBh5CkM8bc/U4DC1O5XPP00t6TEx6FEC9yztvmNUjVfSG34sHc2Xt8XnhxJartui7zbPwouw/HCaxx9aVPqoIp+w/aKHb712ccCH+5VdpQ9vj69fHX4hNs4zWWM8/gqbY3e5k9aLz0K+fD4pw0x/DIeK+O67yb3x0j0ZJ556+vOTHmaQ2rV09H95vm5OeKx+XXM7ENRA/VQwkL2+Oh2yX5PCLfpST8ODjFH9u7UucXT8pBuLrUDbVERvqo49yGeEnvy7ZE/gudlS+Wvzf3ibbtm03x/XzS3sETrHZjwldxwt+jpc2dtzxIzhKj7gyNpu8v00+p/6RWKau49RzlT4XBgv/+n0v631WTJg8LuUl1Yna8ce2xz77uRKr4o+Mv2C+bNwUn2L/lb+1fOm7c5PnEZXj3I7jKh+TXErcvqZHgIl9at7Q/cj5Ty/Ty+Ij0Hwstd1jbiwnyQbhvLTT5kbxK9vcbfU+d156v/N9qDngnWIQ5mNtTnTznMxxbRzN5PxV1gw5l/JdU+O0ENfCo8Rc8iOxk+Pjr8iiXHCsc/mRY4Eg7yb9jwwDvjMpwAAMwAAMwAAMwMDjMHB3gnzdCLdNdd5sq02vPKrACxLyOa3rcx21wRahRQuNUn6lrBEIoj2Dty9/7hcGvMiZxlbZ0HeffB8iavVxWMUYsdnbEfmnBegNgrsVGVTsVF/ezm5fHy/Gdh9b1dZYd0acaj57YauKhCKmBXEtwlOPc4+99q+0a3lT511sjd3+XP5shRgdD/0+ZlRx0/xRtizGr4rcEi9vW2uvxsNzK+drPMdcj/E2sVi407XkQfyo7YidySdni7A4CPiqjrVPs3EiR6ptb0+xXwuzETNz59f9tXFMY8nX0f7JWIuOqbptXIzxsP1F7dhjhlvHiRf0t8VKjUk/X4aMF3tEjG5j1ZWVvvv5Uk8+R1wZjmT8ttjJXC3szn22Y349vpJDO2aNLdm3ykGzx+bFxz73W+Opx462Z7WPm8fA8mnsO8EWiclqztXFyU3jzcXV2BnMYWObPec6H7wnLokBBHk3mTMwGBgwAAMwAAMwAAMwAAOPwMC+BXl1N5nccWg2ykVUEmLrAAAgAElEQVSwkM11y4cWG+umXQsQebPc7oodOdYC01rZYeNt9g1WTBD7cvtNRBn79yL9ch+lvrZZ+mmvOh5y97Hrf7F+88kKX1kAU+0cbWcWMbqY1ext/enYWPFsLOvEKOdzKW/zMeahnNes5HrKzjUerF22v1S33JEvPlubTQ5Un7nNgGPPie1bx24DIynmJmbWdhGQhrGmcrWc/9KeiKb2VeIhNqjPtX0dmzEHtW0tmiu7RIQreT2Fo2V7Ro6skKptH3KUY77cflxHidbhmC5+2jjX+VSN2fW8WkaLLfrYMbGvcTH961h55hS3rs4QE7kQoL4nku96LEd50he+Rq6qwC59r45BHRcZf8fFx/u1yI74LPaFv2YQO+Q1slHOxa9mXF8xBiGrNZ8y74y22HFgeS6x1wzk+Kq5dTbnbn1g+jVzi8TMxtWXT3kUH1qOzXwr7fDa4hPG+WPGB0EeGHhkDQzAAAzAAAzAAAzAwAMysG9BfhSq7Gatih1OhCkb+7pRDze9ZfMsAoDfKFsRZLms33hb++wmXc7FdWw//VEEThRSDOZ2tO9zgqSLgfWvbHCjY2Lv3Gvrv/Yb+2U30KYfJYzM9aGPt/6yz54NF+uZtnMb1V5jS46rz4G+ICT92TKeHW1veu/7e/6qRKKcF2lXC5NyV3g/Z8XyGlOXV9+3/zz6m9qx/sxyN9dXjrOKUxMHbd6tUObPqc++vYDvkDNTz4t0lo3jOVL+BfZEce3HSr5nOTF2u35mxvO8/9pv67NnoX9esS8UeV3bxgdtQ+dLRNEel57zfsy1W+e60F81D3Zfepud625P70eVU1xH/ZhjqmzrUx/T75V9Yb/tfOyztB/WNfHWv5qZa2v8npR8SD/D61wfkY/6mH7ffHRzmzpe+p2zO+XJ8jnmQ82Rtd0es9KufM/b11LPtFfrbz0mtul2Ja62jTH+vU7nc8jBECfFLec+1H4EQR7gPxTwTIZM9jAAAzAAAzAAAx+FgfsW5MuGe1bsSmv4GYFA8ps3zlVkk3b6ht6Og6is3Xjb8iIKySbd9CnCZbavCHHSv7fZ95Htc6L0nM25TxeDqGx0TOxdei0xqaJI7mcUSHp9K67ou1N7GR/D6LMWWqQ/J+pkQUnO9Ta0n/p97r/mwudrzraIh6FssyPZV+xJ9VKuc30luhp7Wr1qu8tht3e7oGPar74mYWiOO82ht7X73vvPx4TrYf/scj+cL36Wdse86bhu6acIXmKbY6P1vc7RFntMXGvb/diy31va177LnNIFPSvit1yGQnofB73NZfukPzsm5uJZ2lqKfY9Lt6Ufi9tdzndvp/skx0p7EpPej5y33w9RP+bY2hiMzsuvF9Q4t3bGPpcyJZ4S+8JKyrdw7S/W+rbK55yP1r8vo2IhFxDzd8tMH5GP+ph+38bZOwny2Rb7Kwkbex+/EguT8+qDPbYe16i8cOht4LNlkHiM8UCQV5MJgIyAEBNiAgMwAAMwAAMwAAP3ycB9C/JVAGpiQ5CDGYHA86o30KFwo/YDuqx+79uUO+j8Rjy3X4XLsH4WY2cEkVBoW4mDi0HkX3RM/Mk2up/wyzkrqhc7jL+6b+eXrRvkTsW89WeOaXFJv7dCW69r7Rt9Lm0Y+01/sY1hDlu9atfn56n9I88Uk0/P0/MnJYZ74e5cQV7HvdqS/BXfQpt9ftrdqeUf34owuIXrHnOJmY39eL6WG2yQ+v01tL3FW8rp/hwbQ1l9Xr+XXyr0sRjZPXJkBcjofGtng7+tbLJ7oXzup41T58fgcxQnOaZfg3YyW0tC53zso1j0Y7petyGfn73QU+wTrk2sGr/f8s2FYTs5nv1CmfzTb2nHsBaMKX3RKr54UXxqY3/IQxBfKaNs2zbmXFumfo3nYu42xP/WMXA5XM2HKb/ERomHaa/GffXYhrjaNtYY6KwLd7wSE80AgrxMirxypzwMwAAMwAAMwAAMwMADMXDfgrwIVFYcypthEaYCAcGcz7m0QkQXiOoddNJWUHZVVM6bdyXo5c/9MQODLVUw0XdB2j5GkSHbm+5qnLsw4WKg/ZNNX3RMzonQ5MWqWCQq9hlbxGd9N3aKZSRszI6t0W9b3+ZQbNM2l1j3XEQ++zIpBrmcvoCyxENgf65vfK8xUne6tn4khy5nVvjT4lr3p+crnffxKp9FVN/EXctRuitX37U+Ckylvc61tSXZ4/MzJ7jUto0Aa33JfZnzoz02Xtp321a203Do7Vy3J+LIHMvt2zz18+vt61j2ekH86jgrOdY+B2Ubp95fX3a0L9vQns9ezwu3qV3DrrUjst8c87GqPulxrOOR3gt7wnY7n+t2bsXuLt5bFkau3B3Uxq8aJ3es2NL7FNvMfNhin9qw8Wm253b7BTQZP7qd1nYbCy6XPpa1r3TH/BCrbNOYy6EP52+21x27WAyUTZKz3Lb4W2Ok2Yj7DsZebcO0V/OyemxLXB175bvKxt3b2nJv+PDjkc8fMU4I8gwKNt4wAAMwAAMwAAMwAAMPyMDdC/IpJ3nzqx/d0AURKw71zayIM+3RD0pQMgKRCLL1sTb25/9dUJkXObx9z9PLl6dJiwjWliQeWKFIRJvWhwgRYtPn1ypKKb81q04w8f6lDW50zG98rZ0l3rGwU9sT+9yriCtj3noOw3a9307QLgKHFYWtzYEwo/Iu/rZ2xG4RgGpMbZsLF0IkB4OAY0V+6dfmoIpjIuS7HOY60THpM726eLW4h35E3Cm+hzgVRtv4STEK/BTfRFD0NvTzfWxK2da2xKDaHQlmeoxIvc6QEz1dXMzFLyXw9jHacyFtaz9s3oofwzE/R5l4LrffYlTt7n7pmKX3WlB1PmsuzPtSR/vT+mvlbK6fv/q27fkUo26jLTvEJZh77Pgb58vRvpH1nKdo3H5+mV4+9XlG+x1xZY5F4y04ln1Uc8fL56U5YoydMNZjKHl2ZYMx12JXfW+fqz3yPyy0sG/judJH4G/0HWv6/fQybYnB6G9nWvIU5uPL8yQxsxcOS9yMLSkOigvT3sL84sv5Nse49jg2v/wcEFzkFD9tTiT/vH7UuCDIty8jBsFHHQT4DfswAAMwAAMwAAOPyMBuBXnW3w96Aezb9PL5ZfpGfh80v3xPPOL3xHv6lMVPcwHjNMaiiwG38Cv1i9B6Ws5ukR/6IDd7ZwBBngUjC0YYgAEYgAEYgAEYgIEHZABBns3o3jej2AejMPARGNB3+Fd/V38VsD0u1xfky13RRnxf/NXIdtvhn1jBwMdlAEH+ATdfDOiPO6DJPbmHARiAARiAARgQBhDkYUFY4BUWYAAG3peB/qgPeQxJe+THmZrM9QX56NE59jFZ7xtb2Cb+MHCPDCDInzn532PSsZnJCgZgAAZgAAZgAAYenwEE+cfPMeOYHMMADMAADMAADMDA/TGAII8gz0/UYQAGYAAGYAAGYAAGHpABBPn725yxoSZnMAADMAADMAADMPD4DCDIP+Dmi4H7+AOXHJNjGIABGIABGICBNQYQ5GFkjRHOwwgMwAAMwAAMwAAM3J4BBHkEee6IgwEYgAEYgAEYgAEYeEAGEORvv7liQ0vMYQAGYAAGYAAGYAAG1hhAkH/Azdda0jnPxAADMAADMAADMAADj88Agvzj55hxTI5hAAZgAAZgAAZg4P4YQJBHkOeOOBiAARiAARiAARiAgQdkAEH+/jZnbKjJGQzAAAzAAAzAAAw8PgM7EORfp+fDYTrM/j1PrxfeIL1+rv19fr3e5vPr83T49DJ9W7C92ZF9f5pefnLA/fQyPem4nGLvBju2D/Seq+evztYFP1v7F7XlhP632EiZ640JYktsYQAGYAAGYOCmDCDIs15s63DG3k3HHnFn7MEADMAADMAADCwxcAeCfBLPLyvKNyH8FIF7w2L225encoHhKEH+MD19+WYWiq0dEeWPtLfVX7FjCRB77nRB/vK2MLBtbogH8YABGIABGIABGLAMIMjbeMAH8YABGIABGIABGIABGNgDA7sS5Ie7rtUd4l6s3kPw5mzYKj63CwMiuBvh/Nv08sn9cgBB3lywmIs/x5lcYQAGYAAGYAAGYOBtQpBnHDAOYAAGYAAGYAAGYAAG9sfAvgX5NyVKVzG6idifX6f2/qAf99Lv4pbH4Hgxv9XzAnd6pIqI4+nVn893xyubpKwq19qWc4fxzncZCK3sp6f6aBr1S4B2MeJpehJhXvXzpmOT+9IxeFOx6aK+jkPru9mp+q6/AmgXFlr7Pbb24kk/3uKnbB370jFZriux4nV/kwc5IScwAAMwAAMwsG8GEOT3nR/GD/mBARiAARiAARiAgY/JwL4FeSWQi5gcibvtWe2qfBOGRXCOBGJ1zIrPXcRubWeROhCPXfuRfWK7H2St7KeX6aU+174J3eLL55d+p3yzd94Oqd/aFvvUhYHoXIlXF+Vn41Hbk37e3uZtkQsaUX8lJut1fcz4/DEnKvJO3mEABmAABmDgeAYQ5I+PGZwRMxiAARiAARiAARiAgWszsCtBfhDRm5jchWIt7nZROIGi7lzXj34RYftwmKR8a0MEbnU3ev/Hqr09qddFanU3emu/H2vltB3Bs+ebHamctFNtknPPX7sdg8At9qe2pb7qM7Sj+dpj2uq2XxoooVz1ITalPA0xicqt2NLsW6l77UFA+0y0MAADMAADMAADj8gAgjxcPyLX+ATXMAADMAADMAAD987A/gV5JdamYDdRWIm9OQlNaO7CeEnOBkFbxOx2AUDdIZ+OVRta384mD0ETmr2NTpRv7eVyIoInoVy/9/arz6G93f9VO1rMxN9at8Wjt1V8FLu6IK99b/2JXcr/dk4d21pXl+M9ky4MwAAMwAAMwAAMbGMAQX5bnOCJOMEADMAADMAADMAADNySgV0J8nLX9VIArIitYGkisrrzuwrgrc6MsN7EYhGS/Wuu14XwuUfQiN2tvRnxWco1u3K53v7z5/ose3e8XBjoonj8i4Iuosd29H7G+l6Q97HsfbdcDaK+iPuHST/uJ7RlY12JF6+Kd3dxh9gQGxiAARiAARiAAc8AgjxMeCb4DBMwAAMwAAMwAAMw8P4M3K8g7+9Sb+JuF6QLYEqAnhHk+yNbvABtE9QEdN+3E0dD8dmVSba19qpw3+rVCwJF+Pf298+nXBjQfTRRvV3MqLGbjaUX5Lsth0OPnfcr+dr6bRcpttdlorAcEg/iAQMwAAMwAAMwsIUBBHk42cIJZeAEBmAABmAABmAABm7LwOMI8u0xL/bO7C6298esNMFYhPUmQB+mLnJ78VmJyu1Z62/Tm6orAvcoPsdJbXaISK3aOrQ+lHDtLygoETzqMzo29KkvDLQ+u+/yuJ40MFvd9gz5Xi6K2/Id8tvrMinE/BAX4gIDMAADMAADMLDEAII8fCzxwTn4gAEYgAEYgAEYgIH3YeCBBHn1j039I2fSZxHftbAcHfN1RSzPd7h3EXl43Isq14RwaUv1o0FvAnerq8T36Ji0Y4R79YiYJpQXmEI72t3wtl7xp/+6YKgrvtRXufjQfHDnc3vNB30xo/b7+dUI/Evx1DHj/ftMFMSduMMADMAADMDA/TGAIH9/OWOckTMYgAEYgAEYgAEYeHwGHkuQnxHNRTwWoJuILAJ3fZzMIEIrQVnqptdWX0Ro187bmxLWU5nhfAGrtaP6acdaHdVWO5bqjxcHvJ9zdlg/06Nmeh/9TncvoiexvvfZ++p1s6iebGwXDLrAH9uyte7jD0TNF+/JNwzAAAzAAAzAwCUYQJCHo0twRBtwBAMwAAMwAAMwAAOXZWAHgvxlHVoHRInARuC+tR30t54rYkSMYAAGYAAGYAAGYOBUBvYqyCe7+CMGMAADMAADMAADMAAD98rAqetzqfexBHn3uBZ9N7gEhFc2vTAAAzAAAzAAAzAAA4/AQNrgPIIf+MB4hAEYgAEYgAEYgAEYeCQGPpQgbx7Voh4T80gJxRcmKBiAARiAARiAARiAgcQAgjwcMBfAAAzAAAzAAAzAAAzsj4EPJcgD4P4AJCfkBAZgAAZgAAZgAAauwwCC/HXiCq/EFQZgAAZgAAZgAAZg4BwGEOTrP3Q9J4jUZRDCAAzAAAzAAAzAAAzsjQEEeZjcG5PYA5MwAAMwAAMwAAMw8DYhyCPI82xRGIABGIABGIABGICBB2QAQZ4NLxteGIABGIABGIABGICB/TGAIP+Amy8G2v4GGjkhJzAAAzAAAzAAA7dmAEEe5m7NHP3BHAzAAAzAAAzAAAysM4AgjyDPHXEwAAMwAAMwAAMwAAMPyACC/PpmiA0jMYIBGIABGIABGIABGLg1AwjyD7j5ujVE9MfEBQMwAAMwAAMwAAP7YwBBfn85YZyQExiAARiAARiAARiAAQR5BHnuiIMBGIABGIABGIABGHhABhDk2eyx4YcBGIABGIABGIABGNgfAwjyD7j5YqDtb6CRE3ICAzAAAzAAAzBwawYQ5GHu1szRH8zBAAzAAAzAAAzAwDoDCPII8twRBwMwAAMwAAMwAAMw8IAMIMivb4bYMBIjGIABGIABGIABGICBWzOAIP+Am69bQ0R/TFwwAAMwAAMwAAMwsD8GEOT3lxPGCTmBARiAARiAARiAARhAkEeQ5444GIABGIABGIABGICBB2QAQZ7NHht+GIABGIABGIABGICB/TGAIP+Amy8G2v4GGjkhJzAAAzAAAzAAA7dmAEEe5m7NHP3BHAzAAAzAAAzAAAysM4AgjyDPHXEwAAMwAAMwAAMwAAMPyACC/PpmiA0jMYIBGIABGIABGIABGLg1AwjyD7j5ujVE9MfEBQMwAAMwAAMwAAP7YwBBfn85YZx83Jz8+rc/n/gjBpdggHnk484j5J7cw8DjMIAgjyDPHXEwAAMwAAMwAAMwAAMPyACC/ONs2tiA338uLyHE0gaCfmKA+eD+5wNySA5hAAYQ5B9w88XAZmDDAAzAAAzAAAzAAAwgyMMA88B+GEBMR0y/FAOM6/2Ma3JBLmAABk5lAEEeQZ4r7DAAAzAAAzAAAzAAAw/IAII8m8RTN4nUuzw7lxJjaQdhn/F5+fFJTIkpDMDArRlAkH/AzdetIaI/Ji4YgAEYgAEYgAEY2B8DCPL7ywnj5OPmBCEdIf1SDDCPfNx5hNyTexh4HAYQ5BHkuSMOBmAABmAABmAABmDgARnYvyD/bXr5dJgOB/X3+fXyLP70Mj3lPp6ml59uuZEL/NO+Hg7T05dvl/c3Yvnr83T49DJ9i87VY9++PNlcOFufv14zduuxypys+HCsUNF8vnC7kR2XEmNpB2E/4otj15yfaBu+YAAGLs8AgvzCohTgLg8cMSWmMAADMAADMAADMHAbBvYtyL9Oz07wbcL8pcXRHQvy2edrXIRQe5ytonMrN5eXdPxqtiLII7QjtG9lgO/Q23yHEmfiDAMwcE0GEOTVYvWagaZtBjIMwAAMwAAMwAAMwMAtGdi1IJ/u2M7Cr7prvR07TNe9G/tWHCqRORCyXz/LLwOep9cr7kma0L5yoWOpXLf1Rrm50UWUJZ8vPVa3iq1/+8c/hb+a+MO/KcH6n/9h+vc5Zv70u+nX//avpY30/req3m9/N/0h1/vX6fW3P59e/zQ3Fv40/cs/p3q1/H/8w/S3ph3d5s97f80mqS/lpF/fX7Ej2Tjnd8qD+D5r75x9Eodml+6/9/3rIJ7Sp4nfhnLFRu+/xEFefzP9y39oW9bKS73yemk2aU/ngvfwAAMwcBsGEOTDL+fbBB/I9xTncpfWNTd/eSMTbMa2cXB9+7bZsaecYQs5gwEYgAEYgIElBvYsyDch9KDF6C5gt0e5GGHW3VXv1lVNNP78OrX3h6fp5b+Nj6xp/SeRuvVRBXLXbopxK58vIiSbuy3z68fuT3hnebsAoS5K1L1Jt7/aNCeme9sPVjAf2ll4TE7zMexr3pdWr95Z33KXfGk+6jy/TW/N7tH3zPTS+XZOLmhYn/WYGPx3vjXb3fGhXuLozMcdGWF3QdwWYVoLwnLs3//4myKwizA8CO4i3IoArkTn1Kerty4erwvyYpu2V4TzfixoR2ypYnrUjo9ZaG8V3VtsZmIb1k1lg/pii2lzY7nZfpRdtsxMrlR5HwfNOO9ZB8AADMDAfTKAIL9rQV4tfOsC92A2LfcJ3T4ni+sL3nlhH2zwtsXj+vZtswPmiBMMwAAMwAAM3AsDexbkuyA7L4LnOAfia3u0TVofKyF1FFHr+dZGF1WbENvW2F3cTe1rUXmt7KmCfLNX+fCmhH7jZ7bTitpLdon9rQ/lp5zzHLf2jD19vLfzaj8StZ/tbmve+MJFq9fK9X5s3nvO0vFug82Xz9nWOLb2lM/NNhWzkgsbfx+/tc9eVJ37LGJwF7OTyC53VFeBXcTsWUFe7n63d177tq0wLGK+fg2EdC0Uz9rh7J250173722L4qPL9/MrNlZ7j61ry8/3YcvFce+2BrnU8dz4fo01zrv5ZNeaD7bCKwx8VAYQ5Pc6Ode7SfyCWRaN8wt/BvNpg/n6gnde3M9tOlY5vL59p8UN3ogbDMAADMAADOyVgV0L8rPiqhM9m5huxXdZEyehVNbFWkiVYzk3rY0u7ur6fb2tboZpAm0XlPVd7rN9mTWdam8Qd0VQtv52u7qtRlxua8nYrqh+O9Z8isfsajl/t7v/nH0Xu7r9LVaB7SZPOnZBzuI4aJG+99l8MXe2i239WfitXItNz1nnotfrx+IYLs0FVpTVord9PydMl+NVYJ8Vwntb0k6/y1tE8i7SezF5tHFeiE5lpQ978aDYYOzdqyAf3PXeYlDPZd+2lmuPAeoxbu01sV3ykBhyv2BoZXoex/o/Dx9ptMQe544fr8SMmMEADFybAQR5vfDbzfuy6Jtb8OWFY1s0PtAgaYv6+E6ptpjPG5q+4E6DJJ/7/DK9fJLNTb2zqS3m03Fbxw6uEvPnL/KT5tKO3ST0BXq5SyaVsZsos1HIdvbzxcbXtoASf1qevf/m7qwt9umfBRf7W9uV7bbpqJtCe75vNi5xF5CN7wNxupt5gpjCGAzAAAzAwDIDexfkS/78+sOtwdpazq/j+rpM1jOyttJ3zec+gjb6mqiv1VLZdlzW2kFdb7ddL+qcdBv72rH4Zz43obqXF59KX8ouWXu2daO1X69FpY3Bp5m1zGo512crP3OxQfrvv4aotrp2xEfzGsV9tl5nqPS5PY7NB8m37CuUT82PmbgZuxfKRMJqdGxO5DbHRZAP+mviuJSR56v7z0081szW91JnRkgXu5cEfWNv1I6zR8qP8eyiddjfkliuBO6orvTZYqbK60fZbC2X4hL1I/Fqr9Xm5uvCLx1aHWVbqxfkn3MBz8SpaRDwAR8wsB8GEOT3ODnnxaZfXM9BkxagT9PLF/nHWL1e25TkBaXdxHhxOA1KcywvgnW7afNg27joQK4L7L6hKQtrs6hWC+WyeO72iK+tvizYVZ1cRn229stCvsevPPPS9dE2TCkftU475j/XmNY+dXyLvaovibd6NqX1cd0+W74/m7NtIjxXps+ycWllPQ97HCfYxMIKBmAABmAABhYZuA9BXq1xmwir7oZvx/qarKzhRtFV1oNHCfJubTgItLKmFCG8MSdrs36Hvl1bJr+6jfru+lautS1tLLTZypb142Bns6v3Keu6+bIq9tHFiNZmKdfaqbFo8Vbitb7QIP3rOKS1eqvX1tDWjhyfIO+tf5cz3X7p89w49hhqf9L7ttdwsWk5XTgeCavRsTnx1xwXMXtRyJU7scvd2lK/3zG/RTxevkN+SXyW/orYXdvx8WnC//Ld9hKn0t/Ii/ZJyvrXyFZro7srXQn9W8ulPqN+vC35s+RQYqJiEZZHkF/8vtsyBikzjh1iQkxg4P0YQJCXL8AdveZF6tIC1dhaF5xmYVoXkepYWcD2jUzUhznWFsFdNC5t9M+XHLimb+OfCMvd9tJv8VEW+rm+8lfEcr1ozvabMnrglThKe6WPcky34X02dnvB2/khZfPrsKnTttT3OQfid2yLtCkbEWt/vZuq+rycv8j/wCbnk48Hn4kZDMAADMAADOyHgf0K8krw9GteJzz3u6u9GNrbkPVPWWP1x5E0Ftu6VtZV6o5ztzYs66UtFwTK2mlZpO02hoK8EuyLD728+CQ+NLtkDenj1NZo3S5po9V1vkrb8rpWzsd3rby0m15b2c/P03Nws5Aum98HOZv9B7Fyk0z7den2ODa7FmLTyiS7F8oNPrSclDlhTWSV83Pibzm+/ZE1qT3dViQUR8fEjvK6LMjr9m092/evozvklcDsbfVtyWdrbxf5wzvcXfu2bhXflegufbRXfU6/d+3qO+lT3bAfX0d/rm0nfrb4kfpYY43z+/keJhfkAgZgYI4BBHm3UJoL1C2Pd5G1g2sWgmYRGwipRsiVNsrCVBbmUR/mWF0EWzHatnHJmKRHzYhtQ7szQneOSd3EGdtzTktctP25/OwieiwfifrJtiEX1Ybl9tXdQIuL+b6JKnfkyMYxHZf3klMtuEf2y8UMuYhi2/bxtn5Jnd7XkJcdjh1sJF8wAAMwAAMw0BnYryCv11N6fdOF1CZ8NmHWiqF63SLrvbweTOssL/K3Nnpfrb5bG47H1fpJtdv6WrxrWvmj6jZGm119Hdzb7bbKmjSvDaUdVVf72+xX68Z2zPna7KhruqVy7Zz2t10UUBdLml3aflmTqsf1rNjSL8SodlrbNsfdtl52axxb3WZPz7deK7dyckHkhHVwE3q1GBu8j0Vuudt9+z91zf3JXdh/+tfpD8lmdxf2uni8LMj/urX/u8n65+y9iiD/80nE8C3PYo99nffPlt9a7gRB3l04sXF0d+1XXvzY5XP/3iMWxAIGYOBeGECQP2Exde3k5gWkLLYj+/JiVBacgRB7koA988ga9QiV5PeqbZG9G46dIshrW/T7kp8xLsUNb3QAACAASURBVHkh3RbbfpIay8vmZ9jkqYW47ne5fRHkk9Bd+tKL/L7p6BuyckznWd5323ufkf3yTPlRXO+bCtVfy1Npq1wQGOtem3/a7/klFsQCBmAABmDgHAb2LMjLOqusN5RQm288iQTesYwRqGWdenFBXl88UDZ8epqevK1tLSXcKkG+lo391estvQ5T/eX6utyMXbUfvc7U6z4fM83XUC6y2exRFvwz5Uo88ro5sE/b0N438d2uf5ds1D4v89Xj2NpTe4R2LPDf9iF53va6RWhNZUJB3t+hPSuEewFXhPFio3+0ixWdfd30eV6IFn/EXt12aVff8b29naW7xCN7pa+3xcf3LAjlcoe6qh/51MT/lXKRjRKr/Cq5UxdHVuu4CzdtnAxzzjYWqU+cYAAGYOD9GUCQ3+OX2Iyg3gbMiYK8Fo/1e2nXHDN9dFBNmQvGbrHd0JayAZBF8Vh/FKjz4lottsXv8jqWl4V8EeSj83UTIhuOlbxpG8tCv28wQttye1Im6l9fILHxEN/CdlXels/HfUrbvPZxQSyIBQzAAAzAwB4Z2Lcgn5iJBF1Z+1SmjDDryssarK5t8loriajueL/xobdd1mL2rvuUw9Xjqf28nizrpCRwy80bIwPO3kDgbb8EUOuz1E7zRep4n6R8i4+I993Hbo+zY6at5rv0aV6jdkuONtua17bJzvm2ms3Nr6BsO7fk8zbbms9+j9BslT6im1gqo5KLlVcjyjqBVZ8TMbjForZrhGoRdaM+ldCb2m2C9Vt93I3qu58bfSn9VSE96EcL8E2sbuV8X9sFee93+ix9xcJ1t9HESPnZ4+DtqhchgniGbW0oNxtTnZehnRm7nA/CSRQjjo0MExNiAgMwsGcGEOTbomFPoJYFvojNA0B5ESqL00A0NefFr7IQlza1OFzarwt1WaDXha7dYNg2BrvOiaURn4vN3cZqm1ool8WzxEAL0+LvGJdcR7Vh7R/LR4K8xC/VbZsPiVl053v2q9yF0/1JNlqfij/9bp1x41jsO6i78/0/nfUxkTbE5qGPakM5X9qXsjk2ynYbK4kxr8QFBmAABmAABvbMwP4F+Q38NPG1r/tuG3NZg4kQX21ugu172bUhdueszal78ed0i5jKa3QnPseO4eK2cyBzDfGGARiAgWswgCC/18WmbD6a2FsGQBFV9Z0/kZBsxd4Ejhdr/ef2T5KkP+lfCcCjoHvhQdk2NvVOFLGl5qgJ4PluHbv5sWJ3smuMS7a/CfL+4sJYfmijxaTbN8ZEbdqynV1kH2yU9qqfo3+lLS2YP395aT+PDu8ucjE0Aru+iCB3POkYiz1ybsvdS3sdP9h18U3kNb6AaPPCcyjcwz0MwIBjAEH+MvOsXaP1O6bz41/a2vIyffHd+LhxPEZwpSwC/RIDzBOPO0+QW3ILAx+HAQR5t3HZF/xVWG8CadoAdIG32BoJyQVgu3mwAnaqa85/frXPh8/i7NP08uV56s+69H1/nIGyLy6IO/mAARiAARiAARhYZwBBfj1GWzky62ZZmyPGcxHsiL3kksDKOQT4YxjYOm9R7nLfAcSSWMIADFyaAQT5IxZRlw7+rtsTQd79U9dd20wu2RTBAAzAAAzAAAzAQGPgIQR58tnyyTr8vsWAYwRXyiLQLzHAXHDfcwH5I38wAAOJAQR5FvnxIh9BPo4LvBAXGIABGIABGICBO2EAQZ4NH5v+/TCwJLByDgH+GAYY1/sZ1+SCXMAADJzKAIL8nWyoTk3wyfUQ5BEbGBswAAMwAAMwAAN3zQCCPJvEk/cCjP2Lj/1jBFfKItAvMcC4Zm6HARiAgftnAEGexebFF5tMDPc/MZBDcggDMAADMAAD988Agvz955BxSA5hAAZgAAZgAAZg4PEYQJBHkEeQhwEYgAEYgAEYgAEYeEAGEOQfb/PGhpycwgAMwAAMwAAMwMD9M4Ag/4CbLwbm/Q9MckgOYQAGYAAGYAAGzmUAQR6GzmWI+jAEAzAAAzAAAzAAA5dnAEEeQZ474mAABmAABmAABmAABh6QAQT5y2+e2JASUxiAARiAARiAARiAgXMZQJB/wM3XuVBQn4kFBmAABmAABmAABu6fAQT5+88h45AcwgAMwAAMwAAMwMDjMYAgjyDPHXEwAAMwAAMwAAMwAAMPyACC/ONt3tiQk1MYgAEYgAEYgAEYuH8GEOQfcPPFwLz/gUkOySEMwAAMwAAMwMC5DCDIw9C5DFEfhmAABmAABmAABmDg8gwgyCPI7+KOuMPhMPFHDGAABmAABmAABjQDLP7PW/wjyJ8XP/gjfjAAAzAAAzAAAzAAA9dgAEEeQR5BnosBXAyBARiAARiAgV0ycI3F70dqc7eC/Nfned4+v151bfr6+TAdlvr46WV6OjxNLz9da/P5Oj3LfLNkx+Y9yrfp9eu3q8Zsbcx8+/I0HT69TN+SzRePn/avxO7567Vyc612tQ9n9PH1dXrdzMVKP3kMPi+0d8lYf5tePs1fbD42n6tj+AIxukUfa+Pq8mNphYkgbjkOeb56nn6rx3lQdtWfi9XR4+mSnB4fn+xznvMK309f3ncu7jnYQVxOyvfxdpvvn5P6PCbvx9vXc3JMP9cv++3ra/nOvnrMru/LXmO8xS4EeQB81wW8QKrvhuP9/IKV2BAbGIABGICBj8SArBN4PW1Ds29BPhIDy2b3XUWNiwvKNneXFQ+K0Pmu8Xp7my7rk47XPvw7b/65kA+rArqO24b3l25vcU+9EIN6ce4YUf4WYvkt+ljl6spz0e77D5laYCksv2EsnFlvF6wMPtyrcHy83df7/onYOd6+1XE25C7q97LHbhuzy9q+x3ieYxOC/DsMgHMSRl0GNAzAAAzAAAzAAAzAwBYG7k+Qv6a4u5GZK4tglxVv9iFOXW9zvw//toy1+TIX8uHSAvql21vcUy/H4NgxcWz5+dzMzwm36GPVrivPRav935SR+VxYO5dZsmW3tnlOub3ZI77cq3B8vN3X+/6RWOrX4+27PZPa3vj9bWMW27DHuLyHTQjyi4sH4HkPKOkT7mAABmAABmAABmDgfAbuXZDPm8bPL+1xF+1O8CxUqV/LtEe/zIgjSlgahDbX1vOX8ZE1uY48ZmZ4nE3ZoPdfrkR3/qdcFtt6OXksjj+e/NJt+PMz9eSRMcPextd37Yvo90U/Rkj6SHZXASLHpcdc39FsNvfSXnvkj+9ft/022dim9uW8q5f9C8QQlz/zOCKx5WvKaWy7n2eSPU9fXtpjhZqfmaHeRmMxx9vZuuhDxEJqt+d84P7z/2Me8SQ25XLKL2vTyvyhxoSPQfmsYh2WLT73Pn0Muj/Cfi+rbav12hgu5ywXwoQ6Z8ov9S2PUeq5y2PQ1HccfnqZXtYebeXHmecw5UX1kf35/Gp592PWtRHNRT5XywwsxUXyW15lXpIcRe3mY9rmFXvFZ22zPpbbC+Z3m/uUN8m/8+dac4Ib6zqP2heZGyV2egxbH8T+zm84x6wxpXhqjzOandtqfhfm7eSLtVPHWsbN0/Qy20fxJ2Klx8nlTM1zpYznr8y9Msf1dkpf6bPt73l6GR6ltNDn2XOZjJtuz5vjRcZQtl2+g476fi28GD/1uEucuLFnGJU+Z/Jm2m1jS/njOeTzVZ8ogiAPYFcFLJpEOcaEBwMwAAMwAAMwAAPXZ+DuBPm6yZQNrWwczea8bn77sbqhr2JFqaPFwCo61PNaEBJBRfqTz4MApIWQ3L8ILGXj3+vbviLGbf9ReeuPL5/9a5vzsX/fp6/ffBSf2sa+x8zGUAQT8fltKgJE/2xsEjEgC/JVGGn2iphS+jL18p7Ml/f+OTFkhYUmWsz072OVPud4OZHCxiON22KH5N3H2PrlfVjPeenvMHXGJeY9RyUH6rOJ+4a5JcdO1R/2xDrW1t8cN9PfeN7GbIxBi70ZT8nuyoDwmexyZWy8S99akCo5FN+0HzUujhtrqzBqBfVm7xCnzsOYr57DYlP/7Bma+9znojGnxe4+DoX3Yse2uGgR2cfZM5b7a2PJ57z2p8aOzVOxXx8r9uuYRL+Qqjy0fj1LLr8utxLXxofMd609yXflxXA9k1vDgLfH2yvt9zwVFvrnkC3H/DAu1vyoc9RSfm0+k6/O9tU+Rt8iBmWeTH6WnMvYrP21sV4/HywTJj4+LjXf7X+YuLl57NNzK+K25GM8b222vJVzUlfaShd16/8SkBiqCxFRezpPMle0NrxPPgaSN4mj9DnHuORBnTcxNnyP8w5lLxsTBHmAQ5CHARiAARiAARiAARh4QAb2Lci7O1brnb59E+o372UTpAWdtjHMG1TZ5NsNswgyIpbp+nlj7DelerObN7bSbt+E9TbGzXuzaYanXre35+v0Ml6w8HXKeR0z31b0ubffBQSJTymv24191G2YOOaYVYFCv5+Jh7fPtFWFhu6fza22obWjWajChPFtxabcpmGixMK0kXxp/VwmR9oXK9jUnLf+yuewzMYY51i59lr8Whs21jYvdWxKnFJb8r7V1wzVGKm7+ftdxUrMSnVzfpbGnLugEfphbV/2LSq7llM/DqPPtt2RK+uHj2/PkYtPGN+g/9W4FPv62EptWJs746V9baN+3+Kb++z2aqaljD6W21BCpZTxr7YvzdVos26/taNjsTYnOB9aGy3uPtbOnnB+sWUiFnw/qYzNjYwNPbc64dr0vSG/gU8m1muxGuZnF5sUy6V5QedFbIn6lHMz/Zl4rvUZiNHG59X6eozYvEoOTXuhP7pekKchLrp8mTfOY8PN3y2+Ln8cv8m+CEEe0G4CmkxQvDLRwQAMwAAMwAAMwMBtGNi3ID+Kbp4Ls7HNa3a7Me3l06Z2Rghym1st2Oj3rS0tauS68YUDueMy29iExnWfwj5FJGjtqLtzjQ3dx2LvXDxGvqydqn3tr9oXdTu1ANHb1bnR74ugWu10sW8xVv3kY8bHgxJxvH/aFn9ObFMsRL5Fx5Q93W/d3gwDIiYa+7fnaC4nJp5i2xDLEgsRtgeBRurNvQ7tib/yqmPtxEAnjA1+KI6LXUGuasziCx0z8a53gOochbGqv3SwMSk2SLzSa+57hgfdxyy3Q2xn+pBfXsgdrLWe7kO/b/3N2FbOu/w4W9bjEtV3xxwjus0t9kZl9DHdXvNZ/Kh8tHw1YdezpG325zTLdVxGMTXHXA5dzgY73VjwFzGkfPY14FfO21dngxpP7RcTxubqpzmm46Lj4ET8FO+5WJv2tvYhfckF9Xgsp7EZ5z+yW9qMz+l28nsTr95/mw+MX5aZ9fraBv1ebJS5sq4FTF+9TB8HQRtu3MkvF/Rc2saF8XUr4wjydrz1vLzHcQR5mfR5RZiHARiAARiAARiAARh4IAY+jCDvN71qQ5s2vm0j7oSxvilWGzLVVtmcr4vsZRNXNtZlozxfx/eZP+dNda/jy5T2tUgjoq8VE6LN5Gr7yl9dv9sQCAZyAaGKZFoQOUaQ7+KH+OOFAu+ftsWfqznU/uj3Mq6jY3LO8ZHjkcsHIpaq0+O2LUdrOTHxlH4U072/4nOPo2XdlzOfF9or5XSsUz8q3jkmjtcmmKqxJLbruu1YF+y0KF986W0bm2vdzqbnRfpWtrZHd6iLUPpO8BkedB+RDfaYGvtNwLXxi9rTx/T71vaMbeW8bb/VqTEKGTJ5iOq7Y44R3eYWe6My+phuT+wv+U8i6g7mhOx/FXRbXoUxedWsibg98qv91u/Fb/ta8qC/t+x5EX17jPJ5w4vLZebCHluNtWmv+muO2fa8jdnPhXkhyv/wKw01X8yd0+2s9VlsVDnL/vR8rdfXPuv3woNjwMSrl+kMBG24cWfmXv/4GhOfKEfxMR0znzc+9zzdIhYI8hHEHGMzDgMwAAMwAAMwAAMwcOcMPJ4gbx/z0DZLwwa2bnLn/kFrFVfCTWluqwod+v1mFoINtqrbN+Jp0xeVLWKB3IHffGxtKDHBCGzRJnJD+1kw8IKz7qO04cUh7YeJoxYg9Ptmv9ip+5BjNb9NxPFlrD/ahhYnzULUf3RM2Ta2Gfvf+lN1+zFtt36/LecmntK+9kuOudewnivTbFxtz8Y61ZP2/T88zcfl1wJhfz4Gku9yXD8/udyt64RG16bJUeiHsj06nxkQ5lXZ1k+1a1aEFfvr62of8byl/ZDYfms2iLA3F4u5mC7YZOabyG93zPmlbdTvLVPdXu1fKWPjOrYR+5Tbecc5Ye6ud+1Tmx/D+cX6NcbF8VTn9fnvgEsI8tYmyaGJdeSLORa3IW3l/C7NC46vXM+MzTguLdZ1rGibV/usdYS94+cyPUZi/6XtPJZDf3Q93d7c2NXly/vz2OhzuZlv9NzD+5vtfxDkge1msMnkzKv/cuEzTMAADMAADMAADFyegUcU5OXn9f2u2rKh9RvUsjHXjz8p8bViSKnbN/i1rXZ3Zt38NjEotaHr6Pc1f5HIoPYby/1X4S7dMZ/FwGDzbQSRWOjrY2m0L/ff2hdhJ90F2u8StKKGj8koFI4ChIhyS/aP56KcRfFquc+xFmG156ax4GKV4xIdm81PyWmxS3wqx7JdmYvRD/MrgeGu+/WcmHiKbc7uYlPPmb2LsrIodaPXFU6F8xbr3IawoGMexD2VzfZKuRKjPs6UfbVcP1fjOTvmPPPVJiWeF8ZrbLKfOnejDz6W5bOMQWVrFMd0bEMfluPSpj3muRA7te3WFm+3ZWAlLkacl3ZLnZZzx0jur+Vl3d5in7I/t9fjattLNoxjqbRh5/EobtZm4S616eLgxtEwJwy59LxJrOTVsz3y6+Ng7Zd23GuNVfNLLojJPL3mx2p+N8R6tQ/5lcvcPORiPzMvtPla8i+Pk4rGm8+PMOW47G36uUjiXG0b+lqzuZyXvPjcyrzX5rM6v619v0p7mcfs01xMZb7RjLs8bMjb8kUmiRGvfS11vVggyEcDnWOI9DAAAzAAAzAAAzAAA3fOwEMK8iknbZO78DiBWqZtjGsuRzGkb8zzc6WHu+qrcKGe1Wra9LY0MT/ewA39+/qfX8udyCK8iKCk+h8371ZQN5vItfbz+afp5cvz1J9Lq8WAKkDkuNR4Ox+NsCbt/ST++/gpgc77lkSVOcElx8OKIV1ME7u62NfP6f6EHXdMjfMhP/VcEwYlD00ASn5ahjJHX8X/LqA0UWYlJyaezbYeR+Ev2yr2pFclSq8KLiJk6fr1feEriLVcXGhsKh8XY1BsF7sNn61NLTB1X4VJXXfMkS+v+RWxqjPy/LWWV/Ey+f30Mtk7Z5ftT/6Y+lnks32MNkdCr+XoeZiLdLzLe9+vjlMTuFuOdVyi/LpjThgcuHQcR/YaRj+/TjoOQ3uZdRuD/E9Bbzwn+JiO/5hU5yFmw/jt5ksdAz8WzOdhjKr8DfOsn9tcLlVs+/fHSqxX+9jCoOtjEMDrOKmMPn15mZ6HMjreej4t33svX57U/x1JZdf6LO2VHKmYtrl2qX4512Po7XGPDZMYrn2/Dt8X2q6AsbPYsDEyvrQYuJhz/Gr7IQR54LoaXOYLhTgTZxiAARiAARiAARi4KQO7FeTh4KYcLK7JRTBoArrfiAcCBPnbT/4WcvH6WYs6Pq98XhwXPq4/vUzPX77dRd6P8sv7ec7nPJfA3LvF/5zcUfc6Y3v1+5V5+KOPFwR5Jp/rTD7ElbjCAAzAAAzAAAzAwLsygCDPZnd1s7sqGCDIr8Zwl/Pc6/Rs7uJnLJyTx3TXNHeSdobKXeRafLe/CDgn1tTtcSYWdx6L1e/XO/dvl9999xVTBHkgeteNIl8y9zVhkC/yBQMwAAMwAAP3wwCC/P3k6t3G1apggCD/brk5Z5/KHd0X3ePya4NxLrWPZXGPTDqHXepelN27nL8ehYHV79dxXJGvjxUTBPlHGez4wRcXDMAADMAADMAADMCAYgBB/mNt7NjIk28YgAEYgAEYgAEYuA8GEOTVpgVo7wNa8kSeYAAGYAAGYAAGYGCdAQT59RjBETGCARiAARiAARiAARi4NQMI8gjy3EkGAzAAAzAAAzAAAzDwgAwgyLO5vPXmkv5gDgZgAAZgAAZgAAbWGUCQf8DNF+Cvg0+MiBEMwAAMwAAMwMCjM4AgD+OPzjj+wTgMwAAMwAAMwMA9MoAgjyDPHXEwAAMwAAMwAAMwAAMPyACCPBvUe9ygYjPcwgAMwAAMwAAMPDoDCPIPuPl6dGjx7/+yd+68kiTZfS+jv8kA/TUWGGf8C7S3H2Cdxa4zIE31XlemxpHc25AnY9shjbWI2wRmBFLC0iAIEITauAuBpLMAgZFTKcTjRJwTEfmoR1ZlRv2Mi6rKjMd5/CIq459xs5iYYQAGYAAGYAAGYGCeAQT5+RjBETGCARiAARiAARiAARi4NQMI8gjy7IiDARiAARiAARiAARjokAEEeRaXt15c0h/MwQAMwAAMwAAMwMA8AwjyHS6+AH8efGJEjGAABmAABmAABnpnAEEexntnHP9gHAZgAAZgAAZgYI8MIMgjyLMjDgZgAAZgAAZgAAZgoEMGEORPWaC+Ds+Hw/D85ZQ6lN3jAhib4RYGYAAGYAAGYODeDCDId7j4ujdU9M/EBgMwAAMwAAMwAAP3ZwBB/v45YByQAxiAARiAARiAARiAgZIBBHkEeXbEwQAMwAAMwAAMwAAMdMgAgjyLv3Lxx2eYgAEYgAEYgAEYgIH7M4Ag3+Hii4F1/4FFDsgBDMAADMAADMDAvRnYtCD/9WV4OhyGg/x9fE03hV4/uuNPw8tXYehtePlwGA4fXoa343Hw5z++hGON+iHusY6cPzwPr+m63z2e5ml4+fQc+3fnGo+s+SLng51Pn96SjUdv/9Pw8sX6YR95U9qgfToOoY12DO7NDv0Le7zCAgzAAAzAAAzAwPUZQJBPF+bXDy7AElMYgAEYgAEYgAEYgIF7MbBZQd4L3VqcjsJ1EuWtAP/26Wk4KEE9CPaHIQvkQUwf/3wcbBuhvAj8IT9WkLflHcNFH3JDId4kcG3YOtaH6vxsDBg39xo39At7MAADMAADMAADazOAII8gn3f6EAtiAQMwAAMwAAMwAAPdMLBVQd4J6lk8jws+2XEuu+Kj4P38MexS1zvPvSCvhHC/YPICd9wF796X549BIA/9FuK6Z14L8qGs7rPqQ+zTPwKrfdDvG2NqUQwa9dZeHNI+AgQMwAAMwAAMwAAMrM8AgvxmLnTjLprDYagu/idsfPvy6v911w0WvytHLz7iQsH9K3C16Jloc3zgvQ6vetFxVhvrQq3jMe7HujbQL/GFARiAARiAARjYAgPbFOTzNW96XE16rIzeNS87zg/DIe2cD1x5Qb44lh4h81XVS+3mx8JoQd5ec2tBPryv7XPtRNG/JbjrY/oGQXXNvDwGW+AIG5jPYAAGYAAGYAAGYOC6DCDIVxfI1w3wYmDjBfyTej7mXN1KgC98aS5WijJzfeTzepFypxjN2D4Xj+zLNu3HPvICAzAAAzAAAzBwTQa2KciHa8olm0X8tawT1fWGk/QM+fzMeR8zJYb7ekUdG9fWda065tua2SSj+ktt62OTgvzyGKS2Z66DKcfcAQMwAAMwAAMwAAP7YQBBfiMXt0lM9hfvdnfQ2IBKdZo+hJ03SxY7Y+3b42qR0uzv/tBPx+P+9tl4Yg/xgAEYgAEYgAEYWJeBbQrycXd4ucO9vL7018ROFK/F66bgrgRwf00oO9nLdv3n1nWtPlb3WbGqxXfpQx/T7+V8el0Yg1R+XU4q3+i3m8dWkVvGDgzAAAzAAAxskwEE+U1ccOqLfv0+Q+MWHk+fXobn+K+3f/nR/biV/PttEPCzIB3ayOf1v9ZKnfhaLIbCAiaX0f/Wm9or6lxjcIvtr/5Hu6T/aHfKUfnvvfm8tVtuaJTlXbu5jrPb1rvWo31y3q4RG9ognjAAAzAAAzAAA+cwsE1B/jgck9ie8xquyeQ6rbgeLjasyM75vPGkKB9/gNU86sYL5LLrPZQff2SNXCPKNWWw09wIaAnu5lhDdNfnZ2OQY3NO7qlD/GAABmAABmAABmBguwwgyCex945JKhYZIk6/KdvCwsMuCspy9nNYBJQLFbPwKBYCYSGk+phduFwvZqFvLYiXi5h4k0HdDAgxkYVbXDipf0/251X5Y7k48/7n+vrZo0xa18stsSSWMAADMAADMHAfBjYryLtr3HgdmjZ8pE0T8RpQXdM5fvR1X7jGexle3KMe4waVfM0rsY7XjmkDi4jx7vy8IO/6lOtT6cM8OkeL63LNXh2LviQb1HX2ZAyCD/W1rPjGK3MKDMAADMAADMAADOyZAQR5uYC+42t1sW2E8DDAfJliYWIF+FKQLgX51kDVi5G58rpsq63LjoUFjxLHZREkPpfiuc+XtamMR2tg6li3+mzV4dhluSV+xA8GYAAGYAAG7sPApgX5C6699fUcbN2HLeJO3GEABmAABmAABmDgfAYQ5C9YDFwHPCsqhzbjbhq1u7u18CgFaPt5TGCPbaedOrJbqGWHBmvuvC57+ntre6ivj+n3Ou4uLrIjaqyMP678zf++HHySXU/Sjm6f96fnkpgRMxiAARiAARjYBgMI8tvIA+OBPMAADMAADMAADMAADGgGEOTvLMhXYrEWjtO/7sZ/01UCvUtiKUDbz6Ugr8Tn1I4W2fX71iCZO9+qs/yYtT3U08f0+wyw9bEs429i+HjmnfetGxspljH2CPPL85ZzQR1iAQMwAAMwAANbYwBBHia3xiT2wCQMwAAMwAAMwAAMHAcE+bsK8nG3ehLI1aCMj60RcbglJJcCtP1sxerwnM4sTHv4zaNxivJVXO4ryDftL57/af1v2TsR7+ivbUPlo4oH55hAYQAGYAAGYAAGts1Ar4I83G2bO/JDfmAABmAABmAABmBgmgEE+XsKrdUPP+lkRfE4PkO9JciXIrUVkwuB3T+DXf+QVBCs3eNaNyBkowAAIABJREFU5IdefX21K/941G3o99rO67y3toc27bFor7p5EXbAq5sM5jnzobzc0HATQSh/GOSRNdP+XscvJiDiCAMwAAMwAAMwcC8GEORh717s0S/swQAMwAAMwAAMwMA4AwjydxTkvUAsP1raskOJ6E1BPu4QF1HdCti1gB4E6MMgz0x//hLKiEDtBkpZRgva6dyUzS0/Fhyztgdg62PR3vRYHyXG+z6KmwzxPwDEX+dn8CHXSyK9tKkEfyaO8YmD2BAbGIABGIABGNg+Awjy288R44gcwQAMwAAMwAAMwMDjMYAgv0AsZmA83sAg5+QcBmAABmAABmBg7wwgyMPw3hnGfhiGARiAARiAARjokQEEeQT5oUew8YkJGwZgAAZgAAZg4NEZQJBnDDz6GMB/xgAMwAAMwAAMwMAWGUCQR5BHkIcBGIABGIABGIABGOiQAQR5FqBbXIBiE1zCAAzAAAzAAAw8OgMI8h0uvh4davxnYocBGIABGIABGICB44AgzzhgHMAADMAADMAADMAADGyPAQR5BHl2xMEADMAADMAADMAADHTIAIL89hZfLIjJCQzAAAzAAAzAAAzAAIJ8h4svBjYDGwZgAAZgAAZgAAZgAEEeBpgHYAAGYAAGYAAGYAAGtscAgjyCPDviYAAGYAAGYAAGYAAGOmQAQX57iy8WxOQEBmAABmAABmAABmAAQb7DxRcDm4ENAzAAAzAAAzAAAzCAIA8DzAMwAAMwAAMwAAMwAAPbYwBBHkGeHXEwAAMwAAMwAAMwAAMdMoAgv73FFwticgIDMAADMAADMAADMIAg3+Hii4HNwIYBGIABGIABGIABGECQhwHmARiAARiAARiAARiAge0xgCCPIM+OOBiAARiAARiAARiAgQ4ZQJDf3uKLBTE5gQEYgAEYgAEYgAEYQJDvcPG1x4F9OBwG/ogBDMAADMAADMCAZmCP1zRbshlBnsXelnjEFniEARiAARiAARiAgcAAgjyC/CZ2xOnFN+8RY2AABmAABmAABhwDXLBftmhDkL8sfvBH/GAABmAABmAABmAABtZgAEEeQX4Ti12EF4QXGIABGIABGICBkoE1Ln4fqU0EeRaQj8Q7vsI7DMAADMAADMDAXhhAkEeQ34Qgv5cBg51M7jAAAzAAAzAAA3thAEEeVvfCKnbCKgzAAAzAAAzAwCMxgCCPII8gDwMwAAMwAAMwAAMw0CEDCPIsbB9pYYuv8A4DMAADMAADMLAXBhDkO1x87QU+7GSihAEYgAEYgAEYgIH1GNiqIO/s4o8YwAAMwAAMwAAMwAAM7JWBS9cwCPII8uyIgwEYgAEYgAEYgAEY6JABt8C5dLFA/fVumBBbYgsDMAADMAADMAADj8kAgnyHiy8G82MOZvJO3mEABmAABmAABjQDCPLwoHngPTzAAAzAAAzAAAzAwDYYQJBHkGfnFAzAAAzAAAzAAAzAQIcMIMhvY8HFwpc8wAAMwAAMwAAMwAAMaAYQ5DtcfOkE854BDwMwAAMwAAMwAAOPyQCC/GPmnfFO3mEABmAABmAABmBg2wwgyCPIsyMOBmAABmAABmAABmCgQwYQ5Le9EGOhTH5gAAZgAAZgAAZg4DEZQJDvcPHFYH7MwUzeyTsMwAAMwAAMwIBmAEEeHjQPvIcHGIABGIABGIABGNgGAwjyCPLsiIMBGIABGIABGIABGOiQAQT5bSy4WPiSBxiAARiAARiAARiAAc0AgnyHiy+dYN4z4GEABmAABmAABmDgMRlAkH/MvDPeyTsMwAAMwAAMwAAMbJsBBHkEeXbEwQAMwAAMwAAMwAAMdMgAgvy2F2IslMkPDMAADMAADMAADDwmAwjyHS6+GMyPOZjJO3mHARiAARiAARjQDCDIw4PmgffwAAMwAAMwAAMwAAPbYABBHkGeHXEwAAMwAAMwAAMwAAMdMoAgv40FFwtf8gADMAADMAADMAADMKAZQJDvcPGlE8x7BjwMwAAMwAAMwAAMPCYDCPKPmXfGO3mHARiAARiAARiAgW0zgCCPIM+OOBiAARiAARiAARiAgQ4ZQJDf9kKMhTL5gQEYgAEYgAEYgIHHZABBvsPFF4P5MQczeSfvMAADMAADMAADmgEEeXjQPPAeHmAABmAABmAABmBgGwwgyCPIsyMOBmAABmAABmAABmCgQwYQ5Lex4GLhSx5gAAZgAAZgAAZgAAY0AwjyHS6+dIJ5z4CHARiAARiAARiAgcdkAEH+MfN+y/H+69//Ytjb3y3jQ1+MQRiAARiAARiAgRYDCPII8uyIgwEYgAEYgAEYgAEY6JABBHkWgK0F4DWP7U2Md/Ze03/aYozBAAzAAAzAAAycwwCCfIeLr3NAoA4TCAzAAAzAAAzAAAz0xQCCfF/53OL4RJCHsS1yiU1wCQMwAAMwsHUGEOQR5NklAgMwAAMwAAMwAAMw0CEDCPIsRtdejCLIw9jajNE+jMEADMAADPTIAIJ8h4uvHkHFJyZgGIABGIABGIABGDiNAQT50+IFX6fHC0H+9JjBGTGDARiAARiAARhAkEeQZ0ccDMAADMAADMAADMBAhwxsVpD/8jwcDofhcHgaXr6WC7K34eWDO3cYnj69GS5fP4bjoe5hOHx4Gd4m8/Y6PPt+inpybLZ+aZv9/PbpaTh8fDU2zi6wv74MT6O+2/Zn25r0/TZtIcjfJs57YAEbYQEGYAAGYAAGljOAIL+BC1mAXQ4ssSJWMAADMAADMAADMLCMgX4E+SzSJzF+kag+I8hfIIynmwMI8sPeRHnmj2XzB3EiTjAAAzAAAzCwHgMI8gjyp+3q2Xi83r68zuyUWm8wMVERWxiAARiAARiAgS0x0I0gn3aVH4bnL5Gx1rHqOjUL8qmelFH153fa11wjyIeYnCbG/zD84//Tsfzz8I//8Asr6P/D/xz+Q3LkX8syn4c/ueP/738O/+P3Rd2Fn7c0RrFF88B7eIABGIABGHgcBhDkzQXflhIvO4Geh9eGjX4RcOqOnEY7PQ12/2/DF/7rcU/xwJctjWdsgUcYgAEYgIHbM9CLIO+v8fxudn1dnMX28tE2mbVcphLk3XXx2KNztFgfd+LnPuQa3T4GJ7U/Wfc4HNN597iebJ/f+d+6tk/lc3/ZlshUo0zzUTrJ39hWq78T1wunCPKvf3b2isAehfXjvwyvIqT/n3/xG4X+419/SCL9//jXPxfHEOQz37efU+ibmMMADMAADMDAdRhAkD/xovN24OWL/eqi+3gcEOTrAYAgX8fkdrzSN7GGARiAARiAga0x0Isg34yrEqGTGF5d12fBu10mn0/X26rd8vE4oUy+RtfnffuzdbUgnwV23Y4R0i9sL/l0PA75pkbR74WbWZYL8rI7XgnwIsT713GhPQj5Um+83FJbmjxV7DCfEScYgAEYgAEYgIH1GECQ3+zFV7jYf/rw1PzBq94EeRHTX92PY8kzQQ96F5QbBOUCKJ+3iwz5gbCyvFuA5DpuYrH16h8PY/JZb/IhtsQWBmAABmAABtZlYPuCfCEOp2vAcFwLypYVdY03KShnwb0tyOd2pC95FI18Ntefake5lNMCuhybrKtFdmV7viaV69i4Acf8uG22N/Wbdr3na9zcVjyW+sxta7/asVnG5lIR/Ne/F0HetSviunrkTGN3fGo7nvvT/3HlEeTtWFiWJ+oQJxiAARiAARjYFgMI8lsX5D+9hd3w6oLdDaJKkE8X43lhkxcDUv5lePlQnE8X6O64vkh3oKqL/urfhK8Lsiwcss2x77TwiQuq9FkWKcXiQ8WpitGxaMPHLNcP/0JcxuC6fjIBEk8YgAEYgAEYgIFbMdCnIK+vT+eu204X5HVuRGBPm0Wq69DDkITxYk0xWjdde5e2Z1vz9XAeK/PtyTW+urYVmxrrhOSTu8ZXfmn/l7xPornZ7a6Edn08Cuup3T9/rh5NE0T3or4R6xHkU/wkv7x29Zto5DfPe8SCWMAADPTMAIL8Zi9gwmIjXJCHC3R9cW7EZn9hby/qg8Cdj8lFfNoBIxfmpYCdPtd9hjYbF/lXiGGrbX9M7CnFc99nsFF8MuVHbNJxa/XZ82DHN77MYAAGYAAGYOCxGNi+IJ+vVTObWXDX177hfBatnaAs14C5bpnfXL5dNp9Pfck1crFb3wvYSriWa2sjZi+pOyrIN/xe0p675h0rF6+jwzWvCPaNV+XXeCzL2IbPJwnyTpwvf7Q1/jirPCseQb4d51PzQnniCAMwAAMwAAPbZgBBfkS4vT+4WpCXC+28aNHCctPWQqT35UXcbojZrg0jaLsLe1PegVzYdMXYmb5ju/qYfq/9dX7JAmqsjD+uF1Vp0ZEXYW6RJe3o9nm/7QmM/JAfGIABGIABGBhnoC9BXl+35Wvi6fznOk1BvhLHc/l8HZyFci2+14L8wrqpz/KGQq4frknz5zlbbAxUPblpkQT762+sOVmQlx3zare8F+HNLnh2yNucjo9xyhEbGIABGIABGNgnAwjyVxSVrzsIavFbi+r+fRKWBT57Aa4fQVOXD2X14kQL2pWIrQTtNYRr3bfEUR/T7+V8eYOgLJMWSuq58XUcQux83ejjGv5lmyVXvBITGIABGIABGICBdRnoR5BXonj1iMWpGOZrY33NG7jL55Lg3RLL1bFJQV6VS32pY6muPqY2v+Rr0XizQZWbai/X02J79s1f16q28nVuLpPaP2NddLYg//tfDHZXfPEoGr+T/s/DP/7DL4bwo67HgWfIT7HOOb5PYAAGYAAGYGBPDCDIn3HheZsE14L8MT4D3V1IG2G5dZHtj+XdQ6a89zlchOsLcC1o+/JqkbC2z7pv6csc8zt79ELDTTTWB1O+OBfajIu56kZGnrRsG/m42MQrMYEBGIABGIABGNgLA90I8mmHd+NxK5P/5ZhFZ/PMdLXRRG9gkc0eo2XVNaS/VlbtPH36X+a3mqo2pK66bq/KuPakXPVbToXvqdyUj/naubQ39X3h9f5iQV4eVRMfUePqBaE9iO6+Hdk1H58tL0K8H2+pXiHcy477E173Mn6xk+8aGIABGIABGOiXAQT5XQny8bEyh6fhyf04a7wQb4rIfuFyviDv21Q7y9eeBFo+2GNxsZEWH/WPuobnZ8rCI5TPu4CkfBE342PrJki/g3/tnNI+7MAADMAADMDAfRnoRZAfFZNn/7txSqzO14SWU1vHX0umGwJyneny2ijXOlbWTYK8u063bci1fbbHnh+3Rf8HgQj32tbAYbi+l/OHxuMpT+d1sSDfen78UYnxIqiLcF+t0f5lePVloiBfnT8O//GvP6QfiZ2yK8f3dH+pS8xgAAZgAAZgAAauwQCCfONi7hqBvbyNMXFYXXBrQV4Ly+ZCPwwUv5BRYrYsIsZ2yMt5szCI7eo6l/sZ7LPi+9gx5btfgJULjbxo8TamOMSFx8fX8Jx8FatqgWdixCRzrfzSDizBAAzAAAzAwO0Z2Kwgv9nr79vnaO/jYkr4vuY5v1s+7py/tN29xxz7GacwAAMwAAMwsH8GEOQ3uyAYE+SPw1GEZiUeW2E577iRHeKnC/IO7ixwy7+1riHGM5HsfyIhh+QQBmAABmAABrbHAIL89nLS2zi5VBy/R/3ecoA/jHMYgAEYgAEY2B8DCPKbFeT3BxMTADmDARiAARiAARiAge0wgCC/nVz0Oi7uIahf2mevucAvxjsMwAAMwAAM7IcBBHkE+YEBu58BS67IFQzAAAzAAAzAwFIGEORhZSkr55a7VBy/R/1zfaUe4wkGYAAGYAAGYOBaDCDII8gjyMMADMAADMAADMAADHTIAII8i8ZrLRrH2rmHoH5pn2O+cJzxAgMwAAMwAAMwcCsGEOQ7XHzdCh76YaKCARiAARiAARiAge0ygCC/3dz0Mm4uFcfvUb+X2OMH4xsGYAAGYAAG9ssAgjyCPDviYAAGYAAGYAAGYAAGOmQAQX6/izQW2OQOBmAABmAABmAABvplAEG+w8UXA7bfAUtuyS0MwAAMwAAMwMBSBhDkYWUpK5SDFRiAARiAARiAARi4HQMI8gjy7IiDARiAARiAARiAARjokAEE+dstqljAEmsYgAEYgAEYgAEYgIGlDCDId7j4Wpp8yjFRwAAMwAAMwAAMwEC/DCDI95tbxi25hQEYgAEYgAEYgIH9MoAgjyDPjjgYgAEYgAEYgAEYgIEOGUCQ3+8ijQU2uYMBGIABGIABGICBfhlAkO9w8cWA7XfAkltyCwMwAAMwAAMwsJQBBHlYWcoK5WAFBmAABmAABmAABm7HAII8gvwmdsQdDoeBP2IAAzAAAzAAAzCgGWBRcNmiAEH+svjBH/GDARiAARiAARiAARhYgwEEeQR5BHluBnAzBAZgAAZgAAY2ycAaF7+P1OZmBfkvz+O8fXxd9dr09eNhOEz18fVleDo8DS9ft7P4fPv0FON1Jbu+vA6vo2ug1+H5cBiev2zH/32N2TPiN5mPMg9ntD+a67LtSz6/Dq+JmWvZqNu8xLat1b2iX8V8leeK4ub+h5fhzXDwNrx8KMrE66CxsV+3/Twxj+iY575abdftZruePr3l7wP/vbG0T93/Ze+nvzMC63ojQX5fz9elr8a/Y45TbiPEwpZz/oz1W/cp86f3Q1/rVkxcFifpp7dXnzMTq7fh9Ytwea25bluxNz4Xc0xv+b23Pwjy5otpWwPh3nDcsv/yS4fP+UKEWBALGIABGICBR2XgltciPfa1bUG+JayExW0tPtzwGn1zi88rL/jvJGr1OL7aPp2Yr5PzcWL7N1nrljaVn88Zv9do45x+165zZb+K+coIaSr3QYzVc24Qf6u5Nt4stcJ5sPlgRMnjEMTlcQE4jY9o45O7AVC04cqM2Xz09dTNwZPHynVyuUSQt/EK/ZbxCZ91DkJccw5GciLiu7mR3Oao7NPnIMaxvBFdM3GdeKW8K/76OVbmqJ2HvftrxmQxx+zdt63ZjyDf5UTBZLq1gYY9MAkDMAADMAADMHBrBvYnyE+IM7e6Zt/a4vPa9txJ1Lo1+/fr70SB5uR8nNj+TcZNaVP5+Zy5/xptnNPv2nWu7FcxPxghzeQ+7r5Oom4pLIrf9XEv3DaEdDfGps7JGEw2edZrAT+dN/YGe4wYfvJYEZ8uezU2VDZO5VPHUr/P9ljf22V8HH2e1c2JKNLXNwJKe0KbpRgfcjN1LtsoeeTVxaTMURnvPuJmuCzmGDi4bo4R5KtJ9boBBljiCQMwAAMwAAMwAAMwcA8G9i7I+0Xhx5f0aIW0kzCKE+k/R+ZEJiXkVOJK0dbzp/qRNb5O+lf/UlAKC/Jky0HvgGxwX/Tn6yX7i/LebvUfQlKuPH44DCk2bm1Tnh+pV4s5rn8rMEi8TAxGxDlhXBbzL+7xQBI3b4ONVdm/6aN4bNAabbr+nj69+Ef0ODuf/6t7lFKR31kxwvok7WXfouglcfCvkZEiT6lOcdzZlvMb8+M5zfFNdePa1sbSlbN++Xgqm3L7kcHChup8WkNb/4Pwt8TGibjIjmCxT/hNfbZt1KKj8KIf02KOSV4/6cdn2Rj5GKr5pzlWy/GsbfXnnocXeeTUh/80/KX45F6lbBHrdLz0t/VZ/IiP2DI+luV9PzI/lcKizD3l8ZjL9DgiKbf0NdQP/Oj3uf6UzSEH8TFmxv5cX+Yd9zrJvcTqi5vjF46dDy+Dn8ckV2VMi/lS2yJz6fjYKW9Al7G3PppYjPZb5Et8PvcRbCWbZi5y9pXj2I6h0e+iGEebr6LuhW3bXOhYFjFytlRs5VxkPgtf/fdgbGtmPi5tsX7X83NZfiqOYt9J37eeizwGyrlN2vTz56UMVWNG54L3CPIAkp/LRiyIBQzAAAzAAAzAAAx0w8DuBPm4SBQBwy8Ky+eZR4EgC5BhQSwiVqgjolNY7GkhQ7+vBZPYVhIv4wJcizG+fxEO8qJdFtC2/XKxOSYE6J2PRZ1yMVx+lkc+iM3V+aLPSngo+iuEHhEOynhLjsRv/Sp5S2ViXg/qZoXN01yc5fEYSphe2qa6eRD6lNyJeJc/1zyUglkZq9Lu+FkxW/Ngea2EoCp/4rvYKYwqxg2TLZujXRKLkoGiT5sb53PoM+Wz+o4oGIvldb6Dn+JDjL0eV1InHSvbLGJf2Cw2CqfeB/E32muOzfIjfCjmyjj4OOqxG3MjPkgf8tnbUfg144ceV833RX3jY5knUzYwUeXU+aTjZuoUOSjbb32eZbPFa+ynjK//rLgv+qt9L7j3vtjH5vg6o/OSjD1186Tos+RO56hsW58L76N9iY+RnMQ+rX8FR7pMaq8lNJ+Qw0bug08yjov4pu+imKMyf2b8lL6LrdJ2PUcY/yvb2vGoYx78L+fl8D2X+w6PSwqfTb8jO+Sn5rrSBtues6eOo6kz42vIiZqnhPNRrhuxKnJlbKz6P4GharxQ1+T2eBwQ5IGkm0VnCTefmfBgAAZgAAZgAAYemYFtC/LF7qy4Y1ELRGGhaQWYciHt82uEmnKxaT/r+mbRKWsC31ZcmPuFqO3f9ZfbCG1rm0/nzdpX1V+yGNZltP3ik341sWrND9Ye76sW6Iz/rfoiYum4NYQmbcdsnM9tUwksPgbWjlHfkr+2fJUb7YPE2PuiRdo6RpkfEaF0rOryWhwaEwBNm2KLetWst8ZV9i34LMJ2Ot7yNbVvmREb7bgoy9R+Wh9mynt7yvzmNrW/4oM51syTzXeLD30Dxdob+9ZxavZR+DXjh9g++ur7yHEwPqb8RNtM2eCr3xmrdouHz4pHX0d9Ltuc+VzFqBGTwGP7+8BwqGM706/Ey8Sj0ff82Ipx0iK36TvkczaOpk7Ih4+NEk1FmLXjZozpiX7T/BXnF/25YYfEatGrZki/b7Rb5V6X8XVrrnKdmbhfOm4MSy6W4T9ZJPaaG/2+zlHIg9QLMQzHDLva98Z720fOuW9vxldfd44j42/RvrfH2mzsmcnzIm4aPlMv5AFBHjgQ5GEABmAABmAABmAABjpkYNuCfL0YLxdoZlHo82MFs1zeLSazKJUX9bXgqc/p96ktvfj0i9i2UGR35EuZeZ9CP7UYNrp41/YYRsMCOgtB4n/Rdikknbgwb8WodSzFT3ZJGhGokTdtx9I4n9xmnQ/PVIxJ0w9vS4zlaOzDQrrm0x23wobExZfVwqfkRcdhUX4t66Z9Ex9hX9jUO4MtOy0xKXOl6hvRR4s6pc/l5zPiMhJH8VeEsWSnxDPGsJUbc2wkt5oJ/T71m+o1mPZ9q/ykslOxmhmvhgndTnxf9GF8LOuaslP2K1ZMnUb/ZR/mc4uD6K/K16TNur3RsVLYVc4nMi5avuhj+r3qt8lBOl/76P1R30eJnVRH/vtC5myxfywn4byNU92v78f7oHb0L42Zsq22N/SVxpr4Ntn2tC/VI1hG50aZf9qxSjYpnmr7Jb761fmk5nnHiPMnsuJyLvOijXvpVysPrWO67/h+jNMqF3HMSIwKX619ru3SRvkuKL8Pi3bVf3aZNkfGxbI4N/yu/HvsMgjyAMECHAZgAAZgAAZgAAZgoEMGHkaQLxeMSijQC2u3gNTiin6fFpeqLb8oHRUhy0WkFi3Kha+UVWXSonpm8a7s8Tb6z0GkEMHA7vKUvmQRHgUN6U/FJvls2Lf2tGKUjyl/vFgQ/DaLed/2tECwJM6ntql3Mms/s+2WhVwm21r3qWLbvPHgzjfip2Lj+tE2VHbO5te1X4pT9rEfIZ4u77ncmC+5bBSgYv+jN4gMKxIP63MZgxBbW8bHYCouRRxzfqRP9aqFrch5y19zrBxX0S+dG/0+9Z/qZU7SOddGOl+8T3GzcTB1G36Y86kN5bvub5TJWN61L+J0S7ST9s0cMWFv8rc932m2knAqoqKaV01exIbWq7FLxSCWzf2NcF/EysdWH9PvVf9NDtL5dnwC39kOncfxcyNMxb5cvTTnT4wPE88Rn5I9hokipr7uxHfNZD6mfQm5anOTbEsxDm0Fhhox9XYU33OpbuFTOp7tc7aEuLpcOpvca+7HxLMaN638t45lO4Lvy+bnKhYNX619rp/sW6pvchXs8/GU64KCJ9PmHEMpptnH1C/nZtdWCPJAMgsJA4rJBQZgAAZgAAZgAAb2x0B/gnwhZsp1vFlsujzFBfHYD7ROiHZBII2Lcd9uXpgvGwMTi/HKThHtJh5xUiyGzULZ+D9hp+5Xv5f65tXa3xKjWsd0bGobZwSCBXE+uc0ibsE+a8eYH76v+GOeWQBrjP9WLKOIFQRtG0ttg/yHRSnI137KjRXJb6tNPS6sj5IX72sSY2tfcr+h/Um/DS9qvKUf/mzZqI/p92JLsDvFRcZwalPKTbyqfGR/cnkTA5MnKWNjZ8qLz6qPJj/qvBHnpf4Sv3QbqV6wserT+5GFzZbfmrucV+urcOJfi/7H24zcNbkq8ykxznOe2DLV/pRd5lxLhJSbX2Jfa04wx5ZwqfzwuWnVcWXC8XwDROVP3YxY4oMvY+zM7bdunJXxrJhJTE3kaOzmjmcjzkWVTTY24/2Wc5qtZ2Oiz00w63wquB1vJ7QZ4vQ8PH+QuTXw/PzR/dDz2JgqbWjlv3VM/Cjrh+M+VsJpyo/UabwqX8t8zwryqm6Kkc9lvg4xbc7kObWxxG7KVNorgjxQVFAwqBqTHpzACQzAAAzAAAzAwM4Y6FGQD4vuvHBMwkfa6RWu4/yC0u3GLBa5ViQIC2cRhlJbaXdcFCxMG7qOfh+vH1uLXeHGn8uL/9yf9qe4Di0Ww8GvLBYE0U/ttqv60GKtiGHahqK/QjC08QplW8f0+sEs5r3vDRHCxGkuznYHeOjr9DZD7LLvo35EcULvMNf+5ffR7sRe/Jz+9b/mw/fpuJQ6p+ZXhD4lGJmbSFGYTO2LsKbGQsVQIWaWcXL+ervNONDclLkIfluxUB9bEJfCphzz2O8c5/68GleSU/FBPqvMkbA8AAAgAElEQVQ4lnGRXJXzQ/pc9iG5Gclt8KGI1ZwfMnfE19JG/1l8klyrzxK34IuaN0bjW9jn+w35KufSFifSX/tmhDATx0m0s/QhtVH4Pi24xjYl9hILxX3TppnxF3xU47W0qZgvje0FH6EtnQOJh7y2Yu/Oxfgr3+SYHWO5rDkurJv6cUwr/o3tKX7KXmmn/H7U7ep4TrJtGQh963mhzqfJ32TbEs+Z1+RP9rGV75JPP5aSz8FmE+8pJhbMz2Ue7PwefNI2lPYtE+Tz96Cw5HbMix+mTZ3Tiv+ZGFN+dt2EIA8ks5BUkwIxI2YwAAMwAAMwAAMwsHkGuhTkHXdpIT3xb+qxTBLPIq96IatFAHmkwnO1qz4KA07YiX+mzdKWJFa0F6ppwR/bev7SEB702GoshoO4Jva4hbUWMuQHUOV8eVMi+2P8SH1agaGOVyHwp3rZX7OY9+dDn6Y/L6hkIUREBImxe9Xlz2tTRCeJhRYhpvyIMWoIm/W6KMcz2PwyPCtho8VqYEB8z/XF3+n8xvx4Ttt+aYHFx9P5UQhYto9acCw5LcXYMg6pvI+ZZUiPMxF85uOiOB7JQ+pTxmZRzpz/8DK8fnrKN+hkXH1yu2EljpITLXq9DC8f5Lxl0vtVjv8k1Mk8ZZlzdZJd0d70Wewo/ChjbXNnba7aGm0zc5f9D34Kh9P9urK2b13e2zjlh+LR2zxVVuaYas7Ic07oO3CX/HFtqn6MoCttCgdfc1smhh9ehpeP9fjIvrZYl7YkxnmOTrZJXvyrxFHKZ96kfJ2TwlfVXhpj4qOag6U9/7og5pa17Ee2p7S54N3HX/mjx4eI08r23K6LYe2j9s3kybWh/WnkNeesyI+2KY7nqh/ddvLJ5a2V/9Yx6bPhV8mpyVuoN+VrPX5CTkwsi7FTtldeh5g2F8VS+8f7mrXxmCDIN4A/JYCUHYeL2BAbGIABGIABGIABGLgfA5sV5Ln+3vzNnMcetw1BA2b7YnaByOTFSC3WwUBfDJDPrvP59ul5eFE3Wh77O+1+16HEfTr2CPJMxF1PxEwA0xMA8SE+MAADMAADMNAvAwjy/eaWcbtibr1YK7tWV+yHdej91qEI8veLPdwT+9UZcDdVmcO5Ttj+9zeC/OqTwfYhYKCSIxiAARiAARiAARjojwEE+f5yyjhdN6fyiAb9yAJivm7M7xJfBHlEYXSgjhl4HZ7575aO89vPdxKCPBMxAxUGYAAGYAAGYAAGYKBDBhDk+1m03UW07HBMEEfGBAzAAAzAAAzAwBYYQJDnQpMFOAzAAAzAAAzAAAzAQIcMIMiz4NzCghMb4BAGYAAGYAAGYAAGLAMI8h0uvoDcQk48iAcMwAAMwAAMwMAjMoAgD/ePyD0+wz0MwAAMwAAMwMDWGUCQR5BnRxwMwAAMwAAMwAAMwECHDCDIsxjd+mIU+2AUBmAABmAABmDgERlAkO9w8fWIIOMzEzgMwAAMwAAMwAAMWAYQ5G084IN4wAAMwAAMwAAMwAAMbIEBBHkEeXbEwQAMwAAMwAAMwAAMdMgAgjwLzi0sOLEBDmEABmAABmAABmDAMoAg3+HiC8gt5MSDeMAADMAADMAADDwiAwjycP+I3OMz3MMADMAADMAADGydAQR5BHl2xMEADMAADMAADMAADHTIAII8i9GtL0axD0ZhAAZgAAZgAAYekQEE+Q4XX48IMj4zgcMADMAADMAADMCAZQBB3sYDPogHDMAADMAADMAADMDAFhhAkEeQZ0ccDMAADMAADMAADMBAhwxsXpD/8jwcPrwMbzH2b5+ehsPhkP6ePr1dxOXrx8Nw+Pg63sbXl+Hp8Dy8zuXelwt2XWpTXgC+Dq9fLlsQz/pX+XVOn6/Ds8qJz89UTKs+L/Mxx+vcds7x+dy+5ut5xhXzl/vn+gw5ep7g6fJ+5/u4ji82hqczbuuvYdNe2rw853uNpWV163HYun3X4d3m5DptXs7nvmO/zZhuJbd7sQNBfnMXjZdPLHuBDzvJNQzAAAzAAAzAAAysx8C2BXm3mHwaXr4G//3C2IjjYbF5iQC+RMzz/c4IzEvaOY3jeyykz+gz3oiwQu/b8PLhYG6knOb7erzXdpzh88prw3UEoHk/L+93vo86/pfn+vpj73Kb1vBzjTYvz/leY2VZ3Xoctm7fddi0OblOm5fzue/YbzOmW8ntXuxAkF/5omsvIGDn5RM6MSSGMAADMAADMAADW2Jgy4K8XwgnITyIvKX4fulieZmY5xa1+cZAnb+2bXW5U9i/x0L69D5H4++F+qmYnRKLNcue7vNleZ33ZTSmF61J5/28vN/5PtaI3bIxPB/3NWzbepuX53yvcbWsbj0OW7fvOpzbnFynzcv53HfstxnTreR2L3YgyF908XP5JLAXULCTXMMADMAADMAADMDAvhjYriC/bCFpFssiAn96To+0OcQd9V60k8eqJJH/OAQx7yXs6G6cF559P6qeHJdHgeTH6OTH25g+W4K+exyP9Hk4DPlmQ/A9nXP9Nn2zgrfr7+nTS3p8jNu1HvwLj+SRWL2ax/6IvY0+F6yBfJvmvxba/Evf8ughFz9zbNa/yMMn9wih/MgiuzP/GOOUz5vHEfk+nocX8f/Dfxr+UrWVyhZ5ScfH4uHbHelTHhVj7A55C7GL9dQjaiQuL+5xSmKfOh/Yi/+FIOerHNh8Chc6Xqb/Q4yL6efyPvI4iVyUsW1w//yltN0+lsqMqw8vg49Tc2yGPq2fepy1bcrjUHjSzPyX4b98GGtDxtJxOBZ+6ja9PR/znKPPpXg1x0No3/hf+j3Rbxpzihk/Fi7Iucyvye5yjBT2OJ6tvzbX4+3F8a8fueTbVjE/ljdGp/i17cmY0/OT8akc4y6GJvZL/YjMzbYXy8V4in2jc4JvT3Mqj3kbi0EZK2G9/k5Jfpa5NP5LfTVn6fOj9mk/Y07MXHkY9Jx1jDlO86JnuWYgn7f+uJya8dP4XrbzRWte1Da792WMiz7LXFdxeRpevkx9r82xVfav42E590wXebTjsfSNz2YeKOe3G31GkL9RoLeQbGxg0oEBGIABGIABGICBx2Fgs4J8Jba0chIXorLAlYVvEpjyQjUt6mMZ+SyLc/ksAnu1SJ20J/ST68R+kx1RfFaL/7DoVwv3aFduo1hIi29KeA1t5MV38EW1KeJDjI8IDbmPIn4iHmvRa3YdZMWC3LbNl+9bxcPNMebYrH/Sj/LP56T8rAWcWKfkQz5731pxVm3OxaS0QcSZ1IfYXeZJC5OhjMRuaZ6kfIplYqPMa/x8ULEp7faf9WOGrE1n9VGy43OsY1uOizpWQdjOdUJsciwlVkk0LPv0fuXy6cbW0sdgCZcpn2KzarM5zvR5G0uxOc85dqz471/pN42ZRg5jGWkntJtjFXxVnF0p55o7P+eo2HjbJQez+Q4+LW2v7Kua70x/NuY1v+G8iV2KdZkPW9b7GMdLqH+aH/IdI33X7ZX9C3Mql+U8I7yYXAS79dgIMQtsel6UzzWXym8TW2efOufyXbK1yL7Sz2hvmsfqdksGxA7xsTxvfYxjSMeotLv5Wc+Lpc2xzSqOcfwbTnLcxF4Zo/Xv5Mj8McfWdI4lPsJayLG0ne3RY9CMYRnLvI7/ztANYoMgb4IcB126s5zvAm4B5HISmh9Q+keMionV+F1OPnf4HCe0fMczx76+2z5l39vw+sXutJiP01R7ezmnc70Xm1eyU1hSX56ZAbkYsHwF7vQXWPkFOT43uLryRZj7udC3L6/zPzC3tTG8FXuqi8oLc3FFv96+vKYfLrwaK1e0D5u2wwq5IBfXYmCrgrxdSLfzrcUFH48oSujv3Lode73bvHb21wn6O192/ymxy8ytxTVB83tGl9Hvs2/WVmunLNy1b7IzT9Yg3pfi2kb7Vy/GC1G8FFmMj9nOFnuhbXvtpG21voW2zLFG7qx/IR7iq9ig/dPv5XwQimIum30Ucfa5H8tzHQPXZ2mTFX0bdld8WR5MXCQHmilXv8iziVXVvvAr16O2P4mVj5+0e3EfdaykH/Oq/Yr82Xjq/Oj30n7wJQlcEq/4GrgsxnIqE+pqTr1tOn5LmDHjZr7NaZuiX41+ay50PNo5zXXa50/KeTM/koeFr7P5nmhH58XbEnYvCy/Z1yjkCstFvkN5HbtyHpywIbWl64f3YofhO5Wfa1O3V5c1vkmbOpYNXszcJ3U0q7q+F9Cfhhf332UiWOt4+/fj8+LsPNiyL9kk/rZj4BkVm6o6+r/AAuPJ/rKst6GeC3L7C8ZIs83puFT26Li24mLyMsOWbivZpuOo3wf/Jue71IbkhNfzxvN144Ygb8BsD1S5+1QNOFP3uom5HA49QLdmW8Oe5oTTKDcZ87H8ndrO3srvLNeTObw89uHi88n/y3P1paQvVAo7Qj37L4D54muCLc+uLIIut799gXWFdgt/L59jsOmUGDYvtsnJXXcknJI/yjLe98rAXgV5/52sdpz7+JuFbGCynlvtNZFrJ3+XR44b7ci1fn3d4OoU1wAj16zeFi8sWBsSO75fEQyKMk2btBhh30ubPk5RzKhjUQpRRZ9nfweFdg4qP7N9z/rXti23W+Qg2e7qRcGk2UfZbmgnbQCaEIIk76ms2bAlIk3Zvuz6lDzX/GROIo/el9yOP2/6yjdCHMs5Ju36Yyzrepf3ofsu3wdfctwmYqWvy5v5a3Mv/Iuv0pcd66UdOY7p0SlL+jTjfb5NHedsZxGjRr91vcyE+FnNT74dx5oum/vSbc7l3Nlqy2iGc5u1T2VMJN+ntufaUWPZCe4u9lF413O5tVPnVeZ7Gw8dh9p+8a2YG9SGK9vf0riMt1fa4Nuv5iLlwyJegh85TqH/wIxr63l4TbzE3KQ+C1vTcddmcc7MTSpfkrs0N0tc5VXlV5Vp5cbGWz0+KK65w3jPnPl4mnOWiaDhqXjO9J/yY8a++CGvIS52znHnlJ+NvNkbutNjpBUbZ1vOsfYpvJe50L4uZVZ84zUxoFhZ6xiCvAny2MAqdx7sAVI9QHdg7+SEt9T+ifyZPC9tby/ldpbrVXMhsYgXD+aCwuVTzjdya740S5bKz7a+XhBfPFlfZSxY+y62adWcPYatYxdV5OYx8k+eyfO9GNijIO+/U1uLe/M9HZiq51b7PZ8XrorBRjuT1wcLBfl8LWBtSLk33+9FmaZNVozM7Wdf9LE6FnGxn3aSFn1e9N0e2hIxYrbvWf/atuV2R67DdLv6ffKt3a7Pic9HFG6q60UXY+tjymNqO5cxQqnJsytjbfc+Vf1lO31OU85yrqX/HBN9LtcXu41NIrYqcVOETmlXv873ofuO7338QzyFCys+aRulvjrWzJ8dA9rG8r23OYqFvv9oTxkHU2+kT705xuXD+jO9CacdO/FXx8oKinU9FZux9UtiTZfNfek257gycYn9BVFvRMybzXe2Q5icbE+NE2d3iLnzy/XvXnO85n2x8dBxsH46G0NZb1sal7Z+rqPK6kevNOaEZe2FGHn7Ut8SN2VDg9O2T3au8XFy7TpOfPvuvItjKNccG9W8GOxIY8D4Gm1t2Jdjpv3JOZTz2g9vrx/Dmbnkg+k32B94Cm36dkZz4mxQ8VRt6f7FpvSaxpf4oF9trFMdHQv9XvpsHfPnarbatul+lU++3em5KdkotvC6iY1hCPIGRA24HnDhfT0h6MnAXYDkySMArwfWaeddX/IDPW6ycROm7l8GaPvHP4p+/QSsBqz4rCfc8kdYZLKY/BGKOkZnD/TJCU/3U8ZcJvbiuL6QnfJTYiGv4rf5wTDpw9nh4hj/5av1hZHuGqs6vn/12fUl/cRnHMrFevhiabFS3kGVi8NWrp2dRTwqNnVM4/s4kScbiguD8EUXLrRdmakvZuFT/3iOOSb+T/FV2uNiW9hU8hZsDONQv8/lGuOgzL3PSYhf9rH8rOMXY21sm4l/wWTyqzjevFCSC4pLfhTHx7b+cSA/xySGXa4LbiVW8TXMSfmHqxIXJndFG4WPqY5vU/Jjuc55iHEv2jDnhS0ZW8aWyK/KVWuuzbyE/oTd9g/lCQvjOQ8sytiReJTl3Xn7HWLrTY+50mY+S154hYXHZmBvgnz4HrJzYWK4nN8LkTGUk++RkPfwPRV+9DS1479Dij4abafySijyx5plw5wevo/0+8yffJeEayNrZ7guLBfTtp2WL/qYbT/0a48VfRbf6dlfsTmUN9+xqY61zfajYi/X4/G72F7X6DbafWn/9Ptkq85lMy8LfNZtJP+cD8G+dI1mztkYGb+q9rSf5U2S2I6y3ceyuB5I/jobqvZlXSH82P6kro9fzMflfYj/+bXFQLBVrntaudDH9Htpd0kOpGx4zXaE9tr8xjoq7hKn8Bpt8dfaYr+rM99m7t/aZdpv9FvX0/Fo5zTXaZ8/KedL+Y7lct/KT8+mjpc65+tpn8pzMjaeh2cvGofzzofnj+4HsvOc7ftWn01sG/00bRV/Z8dTbadwYMb9Be017dOM6PdT/cgaUX4nJPr27GIYj7m+nj4+D08za7w8zywYgy37xM702s59ntdb5+f6VtzPsqfKJpuivibfU+q4Z2rGr2y7YkTz1KrfOmb6VXHQbaUy6rzJdzg+Od+lNpS9HLu7KI8gbyBsD1SZ5O1kWUPvz6cvh7otO2hDfX2R58/HCcG/LyZKXT/0pQXK0F9uTw9WN+js51BffWH6yUEJPvGz3j1h/bvyQG5OOHUfOgYuL96mNInWMa9trvMm+c0TrxXGbBsxb6lPZ2OMvToW6kh86z6t3SPnE0sixkt75YV3qC9ftJLrzEL8slHtGZ/dGKi+xAqeyvzMfJlY/0IezbFZvkqfxMZ8QVH5IHlIYmujjWIc5DbKHJYslZ8Vm1XsZvJZxa6ws4y1maNcv6G8EcsLG8pxkupIbCT+8rkaS22uc7yC/2GeUjnxdtgfx/FlZGxUvpdsi2/5ortkM4wtdT7GI12AmD6K2CbWs83BBzW2qniLjWp+HGFtaswZ/osfCAtxjb5LTkoOjF+Kv4a9ZZ74TLxg4HEZ2KogHwRoPZfLXGuPGXYb82A5t8r3nVwTVd9T5XeGzKHlnCvH/Wt5DVBeM4jt+bskfFflzyK4p++q+D2SPnvfpq4/7cYciYv3L35v1LGIdsl3cNmn8bE9RoIf+TtT+s1iTawXv/8l7uJvWkfM+iff/ypmvs3ys7al+N5s8CHX6CnOZZvN72MVi9IvuV5K19Rj1xmaY8uPxDTZtOCaQuIZ4hv5k+sFqa8esVFeO4XP+vqsiJ1jIeZocR8FP8Ev5XfKueSwEaviurxsQ2Klr68Sg1UuXN5asZb+Q17nrkul/dR3Gj+hfjg+3qY/X9SRNtNrg9W6no1X1W+Mb+KoZDuym8agrB8SN2XOQ3+pPZdf34bKqcp5sEedG8n30vZ8bFIbud3Qj9Y8XB7m+G3EbiwnZdyk7TSeTotLNfaq9gJHiYXE8cQ6o8FLKwbh+y7HLpXRmlLFheS5wbSwEuuk+T3ZHPtq2lf6GXOW5s6y3zrO8v0dxn857wm/Ync8b/JctFnmuhULxbjMJ2b+0b5WcYk+Stx0WWnXHCvsq8Zc0Z58X6UYhvOSl2qOkPImJmVe+KzH4j3eI8jL4PCv9ku8TIiHXIB2A1DepzZ0/cYAS+VkAtITph0M5mIh1vPH4gCvvgRdmcYAlwEqE7K+yDJfkDKxik++LX3RW7Zv7S1jdfJnmRDN7lzZUSpxakzEOqbFRZhMojkG0Wbfl7RZ+NHy27TbyKuJu7SnWSjvvtpz/otb4p780WX0e2lfv9rJuH3xVJRJ/YR2HFslD5qnJm9FGzrnZqzEcuZYK87NOE74WfbfqF+PoxCH9F8AmjeTgzLm4XOznr7IcTbNzQ2eP7l40P7F91N8ep8bDMoXrlwAlLEpz7fi36hjctY4PxZfPebm2tCcyTxlWdTshjzo9j13OmYNDjSb0oe0UftQ58T7kC5+wnnjl+4/xUnbXYoidR/ORm/L1Byf2m7Xt35ShnjAAAwch80K8vHaSuZimZvb37Pji34zF/s50s69YV5t/CdXMZ/q+bfmprwmCGPL10nXEY3vdf/dINey9XVW+G6JIql8d5n/0LTXqi0b9bE6FvV3j+mz+N6p/Y5zSLxmMLkx10yhXGrbxeTDy+D/q0zKzfoX82b++68R09IWfd0jfch/yMUcJ7uiLemz5E5sLJhI8SjyqHfqCreZ49Yaz/Lj+//wMpj/ctZ+KI51zE0fcfzIefmvalPG2B3/K9L4GmIubbhXU39JH0XM6jER+gjXdXZshvjWx0x+JE5VfPL3m+2zFG7lZlkeh2b9PsKMty2yZq9JG6xH3uW/giW/8jlxpGPV6LeuV8cmrPGyL5Vtl+Y8+pyZaIxB5YeNvSur8y3aQbbXbCZS7eQYxfWWzne0ybLp8hD6yrZqfm3s6thmflzfhjk/Dgo7TozLbHuF72Lf6JzQ4CXELNopc1mxVnFlfI4a475kp7TZjBNnr2HL5VR9P43ap+McczI1x5dx/vgacyN9TeXc9VXGo/7etX605kVtc6vNYkw0bE48t+JSHivrl7pC5ZPEwtlmOW+xXOWxYC/ZyvG77ZRHkDfwhUFcTlACqkyW7gu2mrTSRJgHvi2jB099gSx9yKufPPWXkUyo8Zi2RerYQVkOUP1Zv1eTjp8Qop3lZOHi1Dpm4qfaOvW4n+RtjLJfql3zZVBMiHHCyvkLfuov6vx+pK8RH3M+GrEbsd3nSHLoy0R7iz4sJ/qiRVhq9Gnia8+32QhfyDk2KqbVRK9tkBjbWLbbyW22bDDHihj4XLeONWyrL8hCv6Z9iY+Ouz9mY9VkzJcr54Lyc74wKe3xdqj5IDMn+SwuFoQRY/MInxM+tPyvbJG+mrGO+TNjTO+myvmVuOVxIefq+Lbskrkqx8ZyZmOq27Qc5vrqwrDpWxFzteisfRBf8mvLB31Mv5fYuFfXtoyVsTL+uOZFclQsNKQd3T7vc46IBbGAgTYD2xXk47VwmvPa9t8mr+67Rb6H7mRH87vrTrbI9cg1X2f909/1Hfl9zRjS1t0Ek9vMQ3BPnGEABmDg0RhAkDcXNw3RTZ3X4ooXcczdxqnBo0WkILSNiTMCYEsk0sfa9fXFrH7vbNOf9XtltxaWWxfOrWMqPmL7Wa+670VtaoFNFlFF/ry9+m658nWsjxEfc+wbsRuxPddx/Wbbytz5cpMsNfo09tvzZfshH7n/Oj+h/lLBz7cfBcSxOi0bzLFWnM2xYJMXXNNi3fpp/VDltbhZ2TnVhuajjFf5OZSVWGgBeT6fqh8tfoufIzxlf9s+6Ph6G7zvWdg3PJpYW1/07hXdZu4/22/a9EzWtpk2fL/hhk9ix9hS1zdzV6yv413Z1WhviqPah+yftG18iGNPH9PvpY4e8+5YWWY2R2qM+7oVy7WduW/OEQsYgIHAwJYF+TC/yzXc/Zj1c6x8B6u596YMme+u+8ViNZ9n/Wt9/3cYh3vxRb+I+TAAAzAAAzCwOQYQ5A2UbdHNX5wWF5JBIMli17ILWHWxOSO6tUQifazZv7FR9eV91J/bfvo2RRg2bcUL4tYxE78LLpxn4jEeX+2Lfu9sCT4n4W+Jrd7HUsTX7eo4TsVF1wnlwoIv/Nu0tqmZS2Nr3ZaNR2FTM5ZFmUb75vlo5nw7r4aXonzrnOd3KV8tH5q5ibb58u1FfRA+ZaxOxUH7Wca8/Cxlw3H9b3vz+ZS66lX7q98XcQ15Dz5ohtzxPD+0fIx2iuBQjeW2fyZnDVtyn+JL3bdmQb9PDJvc1fVlHAcRvu17asvZqH1rxbLgqPZBfMmvLbvNsVY/5iZoKci3/Cxy1Ii36bNx3sSB85u74CI/eUwRi9vFYtuC/Nhj3m4Xn/CdIdcIN+y3nKP1d1d5rofPs/61vhfvmI8eYo4PXAfAAAzAAAzAwKYZQJA3gLZFKRGErGAZLhzNMSP0NIQjI9pMn2+JRPqYF2bcjkkR2OTRHsXnLNrZC91QXwmY0fZUvnXh3Dpm4nfBhbOJzVg7DcGqsEnHyC34Kz9FuBRhuLQ/xmFcYLVxDKJCtEu12eo3LPrc7mAVd99/aDPnUkTFfGMgtKcXjJpV/d7Frm7Px0U/663028c/95djF/qc7r+Rr7I9iavEqMibj6M+5uvrOEWf1KNGQuxD32Xe9Tl5VpwWdCd3WPvYlDEtPyufo29p7DTiL7n3/Va+aTFdcq99V31pXjRHps0Qq2xPbF/PFzrWyl/NYMj5dR9ZU3EUY5fHRLDd5sceC23Y+Pj8t9gycXFxrDmaZCeOE9+ntN88FttN86/EXI1Zb4t8DuWnclTFSv2XjeE72sOxcpzwGSZgwDGweUGeOWzTC0XmEeYRGIABGIABGIABGFiHAQR5sxAIopt9LnHxeAVTPos7UscISUlsCm1k0UmSWdYXsaYQ6GKfWjgSgWj0xz+SGC2CWujL2OcFIrEtP+vYD7ZKsFsiFIpfZ7wWtkg802sSusqYWRFZxNdaUM9+Tv64hfg9+qNajTjq/MTHStS5djGJfBXCXpjcZvzS+Ww8uiKId5Jr1VeyJ7M1OplWObB1PH+pPX0zqJ3vZJOrM/bjXvqHtyT28Zip3/qBHRmLcZwZtuWcf41x9wyN58/GpRTgy8/WZ4lNtmE6n6Vvlslo76EYk8mn6MMlP4pTxLrJoOPUM2HFbx0nPSfpNnIcyp3hIlTLeHRtB3+CON3KT31sMn6Fb2XZ5y+ah/Zcq310730bxbitj+W8hXnLjp/qZkDkVs9xwdZcT7jSZUrb+GzHIvEgHjBgGUCQt/GAD+IBAzAAAzAAAzAAAzCwBQYQ5JPItS8gazFoX/ZvAf6mDYWY1yxzNjPTou51+4KHfuNZC9T9+noGx6uO4TPsOXu+oC+4hgEYuJwBBPnLYwiHxBAGYAAGYAAGYAAGYL6pr60AACAASURBVODaDCDI71QsQZBfaTJYU8zzbefdr9cezLS3EhObmyMQ5CdZ97v6GWeTMdoc048ydvETLm/PAIL87WMO58QcBmAABmAABmAABmBgjgEE+Z0KEwjyKw3ulQR5efSEfpTH3ODk/Eo53umYzzwgyOdYaEbyI2P0s9nbZXU93hMjGICBfhlAkO83t4xbcgsDMAADMAADMAAD+2UAQX734tx+4WPiIHcwAAMwAAMwAAMwsB4DCPLrxRZuiS0MwAAMwAAMwAAMwMC5DCDII8gP58JDPSYeGIABGIABGIABGNguAwjy280N44bcwAAMwAAMwAAMwMDjMoAgjyCPIA8DMAADMAADMAADMNAhAwjyj7vIY4FP7mEABmAABmAABmBguwwgyHe4+GLAbXfAkRtyAwMwAAMwAAMwcCsGHlmQN7+3dPXfCHobXr+8pZtY/reCPr6mz7fKL/0wl8AADMAADMAADMDAPhlAkEeQZ/EAAzAAAzAAAzAAAzDQIQMI8i/D29XzGn5EnB8Q3+fiF9GCvMEADMAADMAADGyBAQT5q1+kA/YWwMYGOIQBGIABGIABGHh0BhDkEeQffQzgP98DMAADMAADMAADW2QAQR5Bnh1xMAADMAADMAADMAADHTKwZUHeP+blcBgO6e9pePkaF4zyiJlPz+3zx+MQHhPzMrx8UG2ox8bMPbLGn099Hwaz4/2L7je0H86H3fHJ5g9B8K8eWePtb9t1PL4Oz4fD8PwlvEpbpv8OWdziQhibEGhgAAZgAAZgAAbuxQCCPBe8LMBhAAZgAAZgAAZgAAY6ZGCrgrwRy33co9AdBe5jErSfh9eYlyCg588i6GchOwjc8tn0IQJ/FPxDW+UNACeSH4fQtzp3PA62fP3IGiPIRzHft+Vtj8J7ulkgQnz25ejr2D7vtTikX4QJGIABGIABGIABGFifAQT5Dhdfexw4sjuIV7WbSu3aIi7EBQZgAAZg4BEZ2OM1zZZs3qog34pRLaBHgTxdq1sh3IvgIuBLGS9sB6G7bk8Eb9tOy5bqmBH06/pakNfvUzvKLtkhLzcOQpkg0mcRf/1FYLJNYscrNyVhAAZgAAZgAAZg4GYMIMgD281gm7rwf0SRAZ8R12AABmAABmBgmoGpawfOzYu2mxfk427yNA5EYDcCePZTi936fWJB1RsX5JeK37KTXRgdF/SzLbVYH2xzbUn9Vv+tY9nv5B/rlk2sW8gHbMIADMAADMAADFzKAII8F7abuLBNCzF2hatnpcoCkFf4gAEYgAEYeEwGLr3QffT6WxXkwyNgHNMiUsfHwmxBkPeifhhvaRe7EvqPx1p0nxXkTf2W+N46xkL30ccv/jMGYAAGYAAGYKBfBhDkEeQ3IcgzyfQ7yZBbcgsDMAADMAAD92Fgm4J8LWg7PryobQT5+zyyxuysl3WCecZ7bX8W5OXHZl/t9XXjkTX28TQI8swR95kjiDtxhwEYgAEYgIH7MIAgLxfavNqFA/EgHjAAAzAAAzAAAzCwawa2LMgf0o+cyo+mHoZDIcgfDvmHT8Ou+vzZi+CHw5B2sR+DqC2fjbBudqhLf7ktveu97Cf/wGzeza8FeLeINZ/jY3iy4B7syv62xPfWsfssDlmUE3cYgAEYgAEYgAEYWJ8BBHkWmrteaDJJrD9JEGNiDAMwAAMwAAP7ZGCbgryLZRSp5VGFTojXu9BFQP/0rB7lpwV0EcFfhpcP+XFOIsY7XqcE+XRe+jfCfmw7nXNCfLA3tR9Fd7lhYAR5t7bw9me7shiffc+CfeOY2VG/T/aYM8gbDMAADMAADMAADIwzgCCPII8gDwMwAAMwAAMwAAMw0CED2xXkxxcnfuEmgvzX8XKVCN5h/ljEjuef2BAbGIABGIABGICBPTOAIM/FOwtwGIABGIABGIABGICBDhlAkGehuueFKrbDLwzAAAzAAAzAQK8MIMh3uPjqFVb8YiKGARiAARiAARiAgeUMIMgvjxVcESsYgAEYgAEYgAEYgIFbMYAgjyDPjjgYgAEYgAEYgAEYgIEOGditIN9hLm61uKMfhAQYgAEYgAEYgAEY2D4DCPJc8LMAhwEYgAEYgAEYgAEY6JABBPntL8ZYMJMjGIABGIABGIABGHg8BhDkO1x8MZAfbyCTc3IOAzAAAzAAAzBQMoAgDxMlE3yGCRiAARiAARiAARi4PwMI8gjy7IiDARiAARiAARiAARjokAEE+fsvtljwkgMYgAEYgAEYgAEYgIGSAQT5DhdfZZL5zMCHARiAARiAARiAgcdjAEH+8XLOOCfnMAADMAADMAADMLB9BhDkEeTZEQcDMAADMAADMAADMNAhAwjy21+MsWAmRzAAAzAAAzAAAzDweAwgyHe4+GIgP95AJufkHAZgAAZgAAZgoGQAQR4mSib4DBMwAAMwAAMwAAMwcH8GEOQR5NkRBwMwAAMwAAMwAAMw0CEDCPL3X2yx4CUHMAADMAADMAADMAADJQMI8h0uvsok85mBDwMwAAMwAAMwAAOPxwCC/OPlnHFOzmEABmAABmAABmBg+wwgyCPIsyMOBmAABmAABmAABmCgQwYQ5Le/GGPBTI5gAAZgAAZgAAZg4PEYQJDvcPHFQH68gUzOyTkMwAAMwAAMwEDJAII8TJRM8BkmYAAGYAAGYAAGYOD+DCDII8izIw4GYAAGYAAGYAAGYKBDBhDk77/YYsFLDmAABmAABmAABmAABkoGEOQ7XHyVSeYzAx8GYAAGYAAGYAAGHo8BBPnHyznjnJzDAAzAAAzAAAzAwPYZQJBHkGdHHAzAAAzAAAzAAAzAQIcMIMhvfzHGgpkcwQAMwAAMwAAMwMDjMYAg3+Hii4H8eAOZnJNzGIABGIABGICBkgEEeZgomeAzTMAADMAADMAADMDA/RlAkEeQZ0ccDMAADMAADMAADMBAhwwgyN9/scWClxzAAAzAAAzAAAzAAAyUDCDId7j4KpPMZwY+DMAADMAADMAADDweAwjyj5dzxjk5hwEYgAEYgAEYgIHtM4AgjyDPjjgYgAEYgAEYgAEYgIEOGUCQ3/5ijAUzOYIBGIABGIABGICBx2MAQb7DxRcD+fEGMjkn5zAAAzAAAzAAAyUDCPIwUTLBZ5iAARiAARiAARiAgfszgCCPIM+OOM/A6/B8OAzPX9YblK8fD8Ph4+uZ8V7fvrtMyF9eh1fG4JlMrMfqXViAAziAARiAgaszsFVB3tnFHzGAARiAARiAARiAARjYKwOX6iY7EuTfhpcPh+FwaP09DS9fryROfX0Zng5XbI/F5dUXl5dC366/vuCNIF+M0S/Pw+HwjCDPHLGTOaLgl7yRNxiAgR0w4BY47ese5jTiAgMwAAMwAAMwAAMwAAP3YmB3gvzTp7dqYfH26el6wh6CfBXfe8F5234R5G8b7+NwRJB/0LHGF/7Nx9oORENiwriAgXUYQJBfJ67wSlxhAAZgAAZgAAZgAAYuYaALQf54vKKYiiB/P5HQC7TqPyCKx7v4HebpPyTsfzGE3ecv5r8o/M0bn09p09axAycy9Mn9h4SULx9h0/ovjXKHd2gn/ydHPl/ukBd/0k2m0v/DYUjnhPFJ+0Tkzvbn+mGiDDevxs6P225j5dqSMWfrlP0F0b3RX+FrelRQcdzF0bRZni8Yqe3kC4KYwAAMwAAMPC4DCPKPm3vGPbmHARiAARiAARiAge0y0Kcgb0TYKAYWwt2oMFkK8qktEVbnRVnb9vPw4nbwf3gZ3tQuRRFjg3A7JRQfB9/eh5fh1f8ngIibYk+EqxQqCyHzPMG69LXoU/lz8SCP9idhNgq+QYyNdqgYhhjnuEk8U32Jh6rjy6jP1mYRlpWPvo2iD8NRrJOOlZ+Pg+4z5CA8Qz7Yq/oquTvGvKfHJ83bV8bkGNlNgrb3Z6zPEONU9hhtT76Vk9ja9oT+jE9VjIINKefX5JG27ndjjtgTexiAARi4GgMI8uX1C5/t9S/xIB4wAAMwAAMwAAMwcA8GuhDkrbjZEOkKsdeIfG7RF4VLL+xp0a8UNJsiZRQmRbgsRNy0QzgJwVFclvKu/7JOsRAN9uqdwkUb2uZYt/QxxEjt+I4x0TcKfJlkZ/BLC7ShTSXoFnZeArDvW8dEt93w73i0ArK13U0mNQfe/uRfOeHU/rbaKH00dvuYjsdHyvrXJc9ON37X/jhbpM0yHmKn9nk6fy3/yxjpz63y2kabn5Y9ix5Zo2MwM06kD151nngPDzAAAzDwyAwgyMP/I/OP7/APAzAAAzAAAzCwVQZ2J8jnR4HITnH3Oi6ChsDPC4UpQSIAfgmPLtGCdCqjxeIFoqgXTUUI9u3X9mZhtR4sLSFVC61Nu8SP+GO3xgZvv45J6NO06cRPsTn52xZZm/2nOrU/rfLuB3tHYz0idHt7o4hfx2/Gv8q+uvyYIB/yofiLNpj4Ve1H8Vweh1PFVuIU7Micyw59d1zeS9n83xNvjRsQPs6GN9t2GW/rV82ozdtcvFrn5eZXbHskrxL3OgbxRpTEcOwGTiP21vYcP44TCxiAARiAgZ4ZQJCH7575xjf4hgEYgAEYgAEY2CsDuxPkSxFxPPCFeHeQ3eEjQqGIeF7AzGLr2OMwrHh5GA5eHGy3bYRaL0Lm9rPoKG3Ug8nUj3a2jo0LmXontbRf26rb9O9F+Cxel+dA+pp/PUeQ1yK8fh+YmPav5qYuL/EUBnwfPhZZrNb96vjV7Ysg7+qGvkwcFXfpuLmp4uqcIciPiN46v6k/GQPRvsBm9tX6NBev1nn5b5ARQX42BoojPY4Q5q/2aAObYxXvxAbHiBEMwAAM7IkBBHl43ROv2AqvMAADMAADMAADj8JAh4J8EAK9mJiEOi0O6vcN0KMo6ETKIFpaQXJalG23rYXaVptzsOn6UtYcWyBkauE4tFHbqtv05Ud3cTfidqFgV9un+jDCtBy3u/Xr+tP+SRzza13eCvKt8/Gmj3A2In5LH9rGwEEW2HXspbx9lFGrf32jxcZD2mi2q3I1fb7dZ2i7dU4fW2BPEa+mLb5MjpP4lV6LNtJx5SPHZMzwCgswAAMw8GgMIMjD/KMxj78wDwMwAAMwAAMwsAcG+hPkWwJdFKzDTue2UJiSZcTfIDCG3e8OaC04CuBalG23bcTtOYGxISS2hEp9TL9PfhT9aDE4lKl90e3497OPApIYXOG1sNfZmG2OMVY3CIJ9WajNZcWWaf9SnFK86/I23+G83k3u+3Q75kWQb+18VzxaG61PVbzTTRbxMfRvHs9UxKyMifw2gthc9WGew1/7N/2M97l4lT9KK4+rUY8mMmNNyqsbYGUMCn8tI5J3Xmu2iQkxgQEYgIFHZQBBHvYflX38hn0YgAEYgAEYgIEtM9CpIC8ipoNPhEx5ZE1D+NPCZCESBlFS6taiZSXKlqKh/3xQz2O3QmyAo25XQ+OFVCVGu3P6WCW0lkKmEbdlQNaCqm4zxS2JzVlQlUe4aBuv8l5iJY/I0X2LD3KueHyLFbtz3rWt1r/y5kkdD4lBaiPFNT5y6ONr478oQjv5UURZYK5slPain4kl76NjWHMR7fsUftsgtK85j3ktYihivOTH9qFvJuT8Ztt1+2fEy93smLQnjoVDFumtfWUMZOyqRz4V40L85FXGOa+wAAMwAAOPzACCPPw/Mv/4Dv8wAAMwAAMwAANbZaA/QV7E6iTcOjE9Cn9K4A0idhb2knBZCvJJCI7ipIio0n5DlLVtPw8vn56UIO8GQxYiRfxM/acd23nQWCE5HC+PzQmZ/rzyvxKbJW5G4CzFZbkxkW3bKtjYRY5gAAZgAAZgAAYenQEEecbAo48B/GcMwAAMwAAMwAAMbJGBHQny+wXIi+dGDN+vL1uEGJvgCQZgAAZgAAZgAAZqBhDk65jACTGBARiAARiAARiAARi4NwMI8o0d6ecnpd6JL8/xTo89uWp/DKDzc0XsiB0MwAAMwAAMwEDfDCDI951fxi/5hQEYgAEYgAEYgIF9MoAgf3WBnMe8MBnsczIgb+QNBmAABmAABvpiAEG+r3wyPsknDMAADMAADMAADPTBAIL81QX5PsBggJNHGIABGIABGIABGNg3Awjy+84f44/8wQAMwAAMwAAMwECfDCDII8gPDO4+Bzd5Ja8wAAMwAAMw8NgMIMg/dv4Z/+QfBmAABmAABmAABrbJAII8gjyCPAzAAAzAAAzAAAzAQIcMIMhvcwHGwpi8wAAMwAAMwAAMwMBjM4Ag3+Hii0H92IOa/JN/GIABGIABGIABxwCCPBwwF8AADMAADMAADMAADGyPAQR5BHl2xMEADMAADMAADMAADHTIAIL89hZfLIjJCQzAAAzAAAzAAAzAAIJ8h4svBjYDGwZgAAZgAAZgAAZgAEEeBpgHYAAGYAAGYAAGYAAGtscAgjyCPDviYAAGYAAGYAAGYAAGOmQAQX57iy8WxOQEBmAABmAABmAABmAAQb7DxdceB/bhcBj4IwYwAAMwAAMwAAOagT1e02zJZgR5Fntb4hFb4BEGYAAGYAAGYAAGAgMI8gjym9gRpxffvEeMgQEYgAEYgAEYcAxwwX7Zog1B/rL4wR/xgwEYgAEYgAEYgAEYWIMBBHkE+U0sdhFeEF5gAAZgAAZgAAZKBta4+H2kNhHkWUA+Eu/4Cu8wAAMwAAMwAAN7YQBBHkF+E4L8XgYMdjK5wwAMwAAMwAAM7IUBBHlY3Qur2AmrMAADMAADMAADj8QAgjyCPII8DMAADMAADMAADMBAhwwgyLOwfaSFLb7COwzAAAzAAAzAwF4YQJDvcPG1F/iwk4kSBmAABmAABmAABtZjAEF+vdjCLbGFARiAARiAARiAARg4lwEEeQR5dsTBAAzAAAzAAAzAAAx0yACCPIvEcxeJ1IMdGIABGIABGIABGFiPAQT5DhdfDJj1BgyxJbYwAAMwAAMwAAN7YQBBHlb3wip2wioMwAAMwAAMwMAjMYAgjyDPjjgYgAEYgAEYgAEYgIEOGUCQZ2H7SAtbfIV3GIABGIABGICBvTCAIN/h4msv8GEnEyUMwAAMwAAMwAAMrMcAgvx6sYVbYgsDMAADMAADMAADMHAuAwjyCPLsiIMBGIABGIABGIABGOiQAQR5FonnLhKpBzswAAMwAAMwAAMwsB4DCPIdLr4YMOsNGGJLbGEABmAABmAABvbCAII8rO6FVeyEVRiAARiAARiAgUdiAEEeQZ4dcTAAAzAAAzAAAzAAAx0ygCDPwvaRFrb4Cu8wAAMwAAMwAAN7YQBBvsPF117gw04mShiAARiAARiAARhYjwEE+fViC7fEFgZgAAZgAAZgAAZg4FwGEOQR5NkRBwMwAAMwAAMwAAMw0CEDCPIsEs9dJFIPdmAABmAABmAABmBgPQYQ5DtcfDFg1hswxJbYwgAMwAAMwAAM7IUBBHlY3Qur2AmrMAADMAADMAADj8QAgjyCPDviYAAGYAAGYAAGYAAGOmQAQZ6F7SMtbPEV3mEABmAABmAABvbCAIJ8h4uvvcCHnUyUMAADMAADMAADMLAeAwjy68UWboktDMAADMAADMAADMDAuQwgyCPIsyMOBmAABmAABmAABmCgQwYQ5FkknrtIpB7swAAMwAAMwAAMwMB6DCDId7j4YsCsN2CILbGFARiAARiAARjYCwMI8rC6F1axE1ZhAAZgAAZgAAYeiQEEeQR5dsTBAAzAAAzAAAzAAAx0yACCPAvbR1rY4iu8wwAMwAAMwAAM7IUBBPkOF197gQ87mShhAAZgAAZgAAZgYD0GEOTXiy3cElsYgAEYgAEYgAEYgIFzGUCQR5BnRxwMwAAMwAAMwAAMwECHDCDIs0g8d5FIPdiBARiAARiAARiAgfUYQJDvcPHFgFlvwBBbYgsDMAADMAADMLAXBhDkYXUvrGInrMIADMAADMAADDwSAwjyCPLsiIMBGIABGIABGIABGOiQAQR5FraPtLDFV3iHARiAARiAARjYCwMI8h0uvvYCH3YyUcIADMAADMAADMDAegwgyK8XW7gltjAAAzAAAzAAAzAAA+cygCCPIM+OOBiAARiAARiAARiAgQ4ZQJBnkXjuIpF6sAMDMAADMAADMAAD6zGAIN/h4quXAfPP//7H4b//7/88/O4Pvxx++/nb4Tefv/Xv3TF3rhc/L/Xj9fV1+NWvfjW8f/9+ePfunf9z790xd+7S9qm/3gRMbIktDMAADMDAmgwgyMPXmnzRNnzBAAzAAAzAAAzAwHkMIMgjyG9SsHWi+69//4vJP1fm0Qe+E90Ph8Pknyvz6HHC//O+IIgbcYMBGICBfTOAIL/v/DH+yB8MwAAMwAAMwAAM9MkAgvysIP82vHwYEzyfhpevVwLj68vwdLhie5Vfr8Pz4TA8f7mSvVX712v3h7/9flKI10K9K/uok9N3332XhPjvv/9++PHHH4eff/7Z/7n37piI9a7so8YJv683NoklsYQBGICBfTGAIL+vfDG+yBcMwAAMwAAMwAAMPAYDCPKzwnIQ5J8+vVWC5tunp+FweB5eZ9tYANPqgvwCG67hx4VtLNkZrwV59/7cnfJ/+ru/GH7915+HP11o8z0mS9kZ/8033ww//fRTxabY5M65Mk6YX7ZTPt6A+lg/6ub1o7sxVfPux8GHl+Fth3GUOPG6j/mBPJEnGIABGDiNAQT50+IFX8QLBmAABmAABmAABmDgFgwgyM+KiOOC/PF4xV3nCPL+ufCl2L708znPlN+rIO+eCy8736fEeJlAXBkpv+SZ8m2B3bH+NDx9KP/LYmp8MIlLDniFBRiAARiAgXswgCAPd/fgjj7hDgZgAAZgAAZgAAamGUCQv6Yg70X14vE2xU7jsKs+l0k770tBPrUlO5LjzmXzvHA5F5Oc6oT2nz/px+DYmwd+t/PH1yHseo72lLucJ9ubBuucgXfO7ngR7M/ZJb9XQV52x7tH0iyNszy+ZtEu+S/P9U54d0x4MUxbrpbaQ7nrjx9iSkxhAAZgAAZKBhDkYaJkgs8wAQMwAAMwAAMwAAP3ZwBB/gJB3j7CoyFMemEz7ygOYrx6TnwUvP1z3f37eC4eT2L98RiE84YQ6kTSMJBC/7lO+HxIz6W39okQn58p364/3t714f3dH365+NnxIsTLq6t76oRSCfL/9/PwXP6Q7N/8MbX793/zi+H57z4P/y2W+W//dP0YLPHh/fv3fse7e078kvKujCvrdsm7uvN1LCuuvOPFs+CY1jduCvFeuJId+Zm/43D0XD8PL/5RTwfbzuw4vE+s52OFXcQIBmAABmBguwwgyG83N4wbcgMDMAADMAADMAADj8sAgvysENjamS473Isd6lVbWticebSHCPJf3K72KH5W7VlQvfgZBfnmY0a8WCo3ALQtUeDXwmoh+s+3Z225xiTym8/fni3I//bztwuEZmuzFeT/6IV2I7L/0w/eHjnmBPlf//4vhr/6v7ada/h+Shvv3r3z4rr7Adel9VxZJ5K7uvN1SlYdO/pmkTB1HDQn+n3oI44d4SzeaMo3ke4bx/k4YB8xggEYgAEY2DcDCPL7zh/jj/zBAAzAAAzAAAzAQJ8MIMjPiN7HYylOzoEQRUj1aJmwC90K4tWAErEy1ss7121/XvRUbYu4qcX51LaI/F9dG7b/Vnl9TL9vt2ftSmVm4zlez4nqsuP91Fcn5p9qgxXkW3ZZkd4L8hv4Edj1BfkotMt/XziORFQ342F+bBiRPjI+xvap+aN8i1mOwQUMwAAMwEBmAEE+xwIuiAUMwAAMwAAMwAAMwMBWGECQnxWQ50XHkMwgePtHdYiQaURwK4hXAESx0j0WJIjudve9F8i9EJ+Pa9Fcv09t70yQv/sjazwL/zb81V+7nfD5z+yQV4+wSXGeZei6E976j6zJj5d5PQZxPj+6SIv1jum8Wz7FIz6qKT22RsR8w+N1Y5L6vnEu6Jc8wgAMwAAMbJkBBHn43DKf2AafMAADMAADMAADj8oAgvysgLdQkC+epe2BMjuCZ9oxYmUU95vCvgzW0J7skDc7kcWnuUfWpPZDm1rUn29P7Lje631/1DXshvdCfBLdGzvk07nr+X3q5LP6j7p6fkRsD5yZXe3Cumc23yAKN5Lc45yySG84MozfL36nxpvy5AoGYAAGYGCvDCDIw+5e2cVu2IUBGIABGIABGOiZAQR5Ea9HX2eEdKlnxG83aKKofih/1DULmOZxOKVY6duTuqEtvUs57ZhPonpZRvoXcTR8FmFVi+8CuD021971J4Z//vc/mp3pepf63HtXV/xov1px3ZXxj6wRgd0/L/6H4e8ln+41/sjr1nbIv76++ufBux3oP/3004zfR19Gdqu7uu341Pl0PDx9ehmeD5pZYftpeP74NMgNIcOyiqFnih3yi2O+NDeUq3klJsQEBmAABmoGEOTrmMAJMYEBGIABGIABGIABGLg3AwjySjxsJ2OhIB8f7SHCp3t9/mJ3sbv28y7i8MOwSWQvBXn5kVXZbezPy4/JHrwQGtpSYmlR5vmT+4HYcwV5eWxJ7tO2t87gPWeXvKvTzp22MT6KRgT4Y/j8/Hf/Fup6QV7/YGveMb81Qd75Krvkv/nmm0lR3gn2rozj0dWZj1OOWWI13fSRc5Fr8+PDE6wjyJ8U91NyRFlhkldYgAEYgIEWAwjycNHigmNwAQMwAAMwAAMwAAP3ZQBBflaQv2+CLhogXqBXgv2lvl67vRF7fvjb7xfvlHdll8coi+z20TQhx37HvHl2vBXx/Y+6JkH//lx89913aaf8999/P/z444/Dzz//7P/ce3dMbhC5ssvjFH2LN3jkvyp0/SDWy80eiYX8V0a8ieOEeP2fI769so7U5VXHl/fwAAMwAAMwcA0GEOTh6Boc0QYcwQAMwAAMwAAMwMB1GUCQHxGF9wZatVv+WO9YPsWna7d3St+u7JKd8st2DhOo2QAAIABJREFUxl93wJzqx9rlZae8CO+t11N3xq9tM+33zST5Jb8wAAMwsB0GEOS3kwvGBbmAARiAARiAARiAARgQBhDkOxHkXUL987oP+REz+fne5wF/7fYEuqWv7rnwTnT/3R9+Ofzm87fDbz9/69+7Y/PPjD/P56W2bamcey68E93fv38/vHv3zv+59+7YKc+M35JP2PI4/JJrcg0DMAAD6zGAIL9ebOGW2MIADMAADMAADMAADJzLAIJ8R4L8uRBQjwkEBmAABmAABmAABvpjAEG+v5wyTskpDMAADMAADMAADOyfAQR5BPnTny1OzIgZDMAADMAADMAADGyeAQT5/S/WWHCTQxiAARiAARiAARjojwEEeRaTm19MMvH0N/GQU3IKAzAAAzAAA+szgCC/fozhmBjDAAzAAAzAAAzAAAycygCCPII8gjwMwAAMwAAMwAAMwECHDCDIszg8dXFIeZiBARiAARiAARiAgfUZQJDvcPHFwFl/4BBjYgwDMAADMAADMLB1BhDkYXTrjGIfjMIADMAADMAADDwiAwjyCPLsiIMBGIABGIABGIABGOiQAQR5FriPuMDFZ7iHARiAARiAARjYOgMI8h0uvrYOHfYxMcIADMAADMAADMDA+gwgyK8fYzgmxjAAAzAAAzAAAzAAA6cygCCPIM+OOBiAARiAARiAARiAgQ4ZQJBncXjq4pDyMAMDMAADMAADMAAD6zOAIN/h4ouBs/7AIcbEGAZgAAZgAAZgYOsMIMjD6NYZxT4YhQEYgAEYgAEYeEQGEOQR5NkRBwMwAAMwAAMwAAMw0CEDCPIscB9xgYvPcA8DMAADMAADMLB1BhDkO1x8bR067GNihAEYgAEYgAEYgIH1GUCQXz/GcEyMYQAGYAAGYAAGYAAGTmUAQR5Bnh1xMAADMAADMAADMAADHTKAIM/i8NTFIeVhBgZgAAZgAAZgAAbWZwBBvsPFFwNn/YFDjIkxDMAADMAADMDA1hlAkIfRrTOKfTAKAzAAAzAAAzDwiAwgyCPIsyMOBmAABmAABmAABmCgQwYQ5FngPuICF5/hHgZgAAZgAAZgYOsMIMh3uPjaOnTYx8QIAzAAAzAAAzAAA+szgCC/fozhmBjDAAzAAAzAAAzAAAycygCCPII8O+JgAAZgAAZgAAZgAAY6ZABBnsXhqYtDysMMDMAADMAADMAADKzPAIJ8h4svBs76A4cYE2MYgAEYgAEYgIGtM4AgD6NbZxT7YBQGYAAGYAAGYOARGUCQR5BnRxwMwAAMwAAMwAAMwECHDCDIs8B9xAUuPsM9DMAADMAADMDA1hlAkO9w8bV16LCPiREGYAAGYAAGYAAG1mcAQX79GMMxMYYBGIABGIABGIABGDiVAQR5BHl2xMEADMAADMAADMAADHTIAII8i8NTF4eUhxkYgAEYgAEYgAEYWJ8BBPkOF18MnPUHDjEmxjAAAzAAAzAAA1tnAEEeRrfOKPbBKAzAAAzAAAzAwCMygCCPIM+OOBiAARiAARiAARiAgQ4ZQJBngfuIC1x8hnsYgAEYgAEYgIGtM4Ag3+Hia+vQYR8TIwzAAAzAAAzAAAyszwCC/PoxhmNiDAMwAAMwAAMwAAMwcCoDCPII8uyIgwEYgAEYgAEYgAEY6JABBHkWh6cuDikPMzAAAzAAAzAAAzCwPgMI8h0uvhg46w8cYkyMYQAGYAAGYAAGts4AgjyMbp1R7INRGIABGIABGICBR2QAQR5Bnh1xMAADMAADMAADMAADHTKAIM8C9xEXuPgM9zAAAzAAAzAAA1tnAEG+w8XX1qHDPiZGGIABGIABGIABGFifAQT59WMMx8QYBmAABmAABmAABmDgVAYQ5BHk2REHAzAAAzAAAzAAAzDQIQMI8iwOT10cUh5mYAAGYAAGYAAGYGB9BhDkO1x8MXDWHzjEmBjDAAzAAAzAAAxsnQEEeRjdOqPYB6MwAAMwAAMwAAOPyACCPII8O+JgAAZgAAZgAAZgAAY6ZABBngXuIy5w8RnuYQAGYAAGYAAGts4AgnyHi6+tQ4d9TIwwAAMwAAMwAAMwsD4DCPLrxxiOiTEMwAAMwAAMwAAMwMCpDCDII8izIw4GYAAGYAAGYAAGYKBDBhDkWRyeujikPMzAAAzAAAzAAAzAwPoMIMh3uPjqZeC8vr4Ov/rVr4b3798P796983/uvTvmzvXi56l+EJf2xPjP//7H4b//7/88/O4Pvxx++/nb4Tefv/Xv3TF37tQ491AeVtqs9JBbfCC3MAADSxhAkIeTJZxQBk5gAAZgAAZgAAZg4LYMIMgjyG9SqHSi++FwmPxzZR5twiAu7QnSie6//v0vJv9cmUfiBVbarDwSA/gKAzAAAwjyMMA8AAMwAAMwAAMwAAMwsD0GEOQ7EuRfPx6Gw8f97xz/7rvvkhD//fffDz/++OPw888/+z/33h0Tsd6VfZSJhbi0J9Af/vb7SSFeC/Wu7CPwAittVh4h9/hI7mEABjQDCPLwoHngPTzAAAzAAAzAAAzAwDYYQJBHkN+UQCm7er/55pvhp59+GrXNnXNlnDB/yk75t09PScx3dZ8+vRV9vA0vH9TO/A8vw9sGGFk7LnpCdjd2TFy+PJuYyc0Q/3rnG0BLdsZrQd69P3en/J/+7i+GX/9N+9E3U+d0bG/x/has+Jt/6T9YnofXDYyRW8SWPrZx4UIeyAMMLGcAQX55rOCKWMEADMAADMAADMAADNyKAQT5joSkve+Qd8+7FrF3SoyXweHKSPklz5QPYrwWD1+H50KU9zFMInwU5+8sOq8dF4mnexWh1QjyrTHiRfqn4eXr/SZr91z4Umxf+vnUZ8p7wd09EqchyE+d07G9xftbsFKOIztm7sfDLeJLH+QXBmBgbwwgyMPs3pjFXpiFARiAARiAARh4BAYQ5Fti406PVYJ8Y2dzElr9OS1OuwEfBGhbRu0WL8Traw8Q2dnrHkmztG15fM38LvnCt5hjLy6KAP/1ZXg6FCJz69iN+Vg3LjLRh5sTh8PT8PSh2CFf+VvfyFiar2uWO2d3vAj2y3fJ/9vwV3/tnk3/F8OzezWC/NQ5iettX9dnpTWOAg/PX27r6zVZoi1yBwMw0CsDCPKw3Svb+AXbMAADMAADMAADe2YAQb4SG/cLtBHkG0Jy2NkqgnNDVNV19HstXpeC9RXj9/79e7/j3T0nfumgcmXdLnlXd2kdXc4I8hM3Ke4pNt4iLj4O/j8BWoKrHRNb2RH9uz/88uwd8q6u5mD0/T/9MPz6rz8Pfzoeh7//m0KQnzp3xXExalujj/VZafGBIH9Kjihr5xPiQTxgYF0GEOTXjS/8El8YgAEYgAEYgAEYgIFzGECQb4ha5wRyC3WMIN/yqxDZjRh9PA7l58qnon51vtXnCcfevXvnxXX3A65L23ZlnSDv6i6tk8sFcVF+CLftf0uAvO1kc9u4zPjrGTgM97xBIfn7zedvzxbkf/v525N5qQR5xfbUObH3Fq+3YMWPk0P+75ry8y38pI/bzkHEm3jDwH4ZQJDfb+4Yd+QOBmAABmAABmAABvplAEFeiWp7B70tyIfdq/KsdfdIkvTcbyOwjwmxE/WvHLtbiIk6xz5epbAoj69Jvo3F5XaTwm3jMu1v+6bF7WKh8+dEdXkEzamvTszXbS15PyW6T51b0va1ytyKlSDCx8dZVWPmPjxcK4a0Q/5gAAZ6YgBBHp574hlf4BkGYAAGYAAGYKAXBhDkk/C6f6iNIB93MjshPj0T3gjwzl8lvvpzedfrcVH968Zs/cdtZHuDGK9uToz+h4CK0Z1YuWVcDBOVv/ePhZ54b/LIGhWDKdF96py2ee3367MSGJD/KvH+xN+q2MJ/TawdX9rPcyixIBYwsA8GEOT3kSfGE3mCARiAARiAARiAgcdiAEFeCW67gr8S14+DE5lFfG/uZPbCWVuEfvl4GLTItrT+NWO2/g9ShsHdEuO9Hxt9hvyt4hJyOSG6N5i7Zv5Pbes2P+qavxCmRPepc6f6dUn51VlpjpEw9+j54xIfqJuZIxbEAgZg4FIGEORh6FKGqA9DMAADMAADMAADMHB9BhDk9yrIH8sfZbU/rBgeKdHa8W4F+WNsx+2k1ztcl9e/HpSvr6/+efDOlp9++mn2kSKujDyKx9VdMkEEMV7FRee/JTi3juk6N3h/i7jk2E0I8iNibK57PRaWtPnP//7Hsx9Z4+ou6UOXmRLdp87pNtZ+vzorIwz4ceV/FPi2DKwdT9onnzAAA3tnAEEehvfOMPbDMAzAAAzAAAzAQI8MIMjfQFBdDRwvFsfnOOtH00Sfgvgs550QX4r4YVCPidRL61/TP9nh+80330yK8k6Md2WcIO/qLLGhusnQyL33OT0Tu/F4jkadJX1fWmbNuFjbxgX55n9N3CkeYvM5u+RdHal/yuuU6D517pQ+rlF2XVYaY8KL9PaG3jX8oA0uumAABmDgcgYQ5C+PIRwSQxiAARiAARiAARiAgWszgCB/Z0Hx2gntob3vvvsu7Xz//vvvhx9//HH4+eef/Z97747JznhXdpnP5Y/Tyo0K96p3zEfB8RDPJ3H+/pPPOnEp/RoX5P3Nig3ugv7hb79fvFPelV3GSxmX4zAluk+dO7e/S+qty0oxRvQPRTOfns3XJfmmbj1eiQkxgYHAAII8Y4GxAAMwAAMwAAMwAAMwsD0GEOQRkDYpIMkuXxHeW69Ld8b3NPEQl/YkumSn/Lk74/fKD6y0WdlrPrGbfMIADJzDAII83JzDDXXgBgZgAAZgAAZgAAbWZQBBHkF+k4K8G/juedhOVHz//v3w7t07/+feu2NLnxnf4wRCXNqTonsuvBPdf/eHXw6/+fzt8NvP3/r37tg5z4zvgR1YabPSQ27xgdzCAAwsYQBBHk6WcEIZOIEBGIABGIABGICB2zKAII8gv1lBnsngtpMB8SbeMAADMAADMNAXAwjyfeWT8Uk+YQAGYAAGYAAGYKAPBhDkEeQR5GEABmAABmAABmAABjpkAEG+jwUbC2/yCAMwAAMwAAMwAAN9MYAg3+Hii0Ha1yAln+QTBmAABmAABmDgHAYQ5OHmHG6oAzcwAAMwAAMwAAMwsC4DCPII8uyIgwEYgAEYgAEYgAEY6JABBPl1F1IsVIkvDMAADMAADMAADMDAOQwgyHe4+DoHBOowgcAADMAADMAADMBAXwwgyPeVT8Yn+YQBGIABGIABGICBPhhAkEeQZ0ccDMAADMAADMAADMBAhwwgyPexYGPhTR5hAAZgAAZgAAZgoC8GEOQ7XHwxSPsapOSTfMIADMAADMAADJzDAII83JzDDXXgBgZgAAZgAAZgAAbWZQBBHkGeHXEwAAMwAAMwAAMwAAMdMoAgv+5CioUq8YUBGIABGIABGIABGDiHAQT5Dhdf54BAHSYQGIABGIABGIABGOiLAQT5vvLJ+CSfMAADMAADMAADMNAHAwjyCPLsiIMBGIABGIABGIABGOiQAQT5PhZsLLzJIwzAAAzAAAzAAAz0xQCCfIeLLwZpX4OUfJJPGIABGIABGICBcxhAkIebc7ihDtzAAAzAAAzAAAzAwLoMIMgjyLMjDgZgAAZgAAZgAAZgoEMGEOTXXUixUCW+MAADMAADMAADMAAD5zCAIN/h4uscEKjDBAIDMAADMAADMAADfTGAIN9XPhmf5BMGYAAGYAAGYAAG+mAAQR5Bnh1xMAADMAADMAADMAADHTKAIN/Hgo2FN3mEARiAARiAARiAgb4YQJDvcPHFIO1rkJJP8gkDMAADMAADMHAOAwjycHMON9SBGxiAARiAARiAARhYlwEEeQR5dsTBAAzAAAzAAAzAAAx0yACC/LoLKRaqxBcGYAAGYAAGYAAGYOAcBhDkO1x8nQMCdZhAYAAGYAAGYAAGYKAvBhDk+8on45N8wgAMwAAMwAAMwEAfDCDII8izIw4GYAAGYAAGYAAGYKBDBhDk+1iwsfAmjzAAAzAAAzAAAzDQFwMI8h0uvhikfQ1S8kk+YQAGYAAGYAAGzmEAQR5uzuGGOnADAzAAAzAAAzAAA+sygCCPIM+OOBiAARiAARiAARiAgQ4ZQJBfdyHFQpX4wgAMwAAMwAAMwAAMnMMAgnyHi69zQKAOEwgMwAAMwAAMwAAM9MUAgnxf+WR8kk8YgAEYgAEYgAEY6IMBBHkEeXbEwQAMwAAMwAAMwAAMdMgAgnwfCzYW3uQRBmAABmAABmAABvpiAEG+w8UXg7SvQUo+yScMwAAMwAAMwMA5DCDIw8053FAHbmAABmAABmAABmBgXQYQ5BHk2REHAzAAAzAAAzAAAzDQIQMI8usupFioEl8YgAEYgAEYgAEYgIFzGECQ73DxdQ4I1GECgQEYgAEYgAEYgIG+GECQ7yufjE/yCQMwAAMwAAMwAAN9MIAgjyDPjjgYgAEYgAEYgAEYgIEOGUCQ72PBxsKbPMIADMAADMAADMBAXwwgyHe4+GKQ9jVIySf5hAEYgAEYgAEYOIcBBHm4OYcb6sANDMAADMAADMAADKzLAII8gjw74mAABmAABmAABmAABjpkAEF+3YUUC1XiCwMwAAMwAAMwAAMwcA4DCPIdLr7OAYE6TCAwAAMwAAMwAAMw0BcDCPJ95ZPxST5hAAZgAAZgAAZgoA8GEOQR5NkRBwMwAAMwAAMwAAMw0CEDCPJ9LNhYeJNHGIABGIABGIABGOiLAQT5DhdfDNK+Bin5JJ8wAAMwAAMwAAPnMIAgDzfncEMduIEBGIABGIABGICBdRlAkEeQZ0ccDMAADMAADMAADMBAhwwgyK+7kGKhSnxhAAZgAAZgAAZgAAbOYQBBvsPF1zkgUIcJBAZgAAZgAAZgAAb6YgBBvq98Mj7JJwzAAAzAAAzAAAz0wQCCPII8O+JgAAZgAAZgAAZgAAY6ZABBvo8FGwtv8ggDMAADMAADMAADfTGAIN/h4otB2tcgJZ/kEwZgAAZgAAZg4BwGEOTh5hxuqAM3MAADMAADMAADMLAuAwjyCPLsiIMBGIABGIABGIABGOiQAQT5dRdSLFSJLwzAAAzAAAzAAAzAwDkMIMh3uPg6BwTqMIHAAAzAAAzAAAzAQF8MIMj3lU/GJ/mEARiAARiAARiAgT4YQJBHkGdHHAzAAAzAAAzAAAzAQIcMIMj3sWBj4U0eYQAGYAAGYAAGYKAvBhDkO1x8MUj7GqTkk3zCAAzAAAzAAAycwwCCPNycww114AYGYAAGYAAGYAAG1mUAQR5Bnh1xMAADMAADMAADMAADHTKAIL/uQoqFKvGFARiAARiAARiAARg4hwEE+Q4XX+eAQB0mEBiAARiAARiAgf/f3v3jOG5sewDu8HppF84GuAvwUozZip0/vPgmDsYLcWDAeNFsYPRAiadYpEhK4r9mn/4CQz0tVbFY5yv21I+cNgO5DAjkc9XT+lRPBhhggAEGGGAghwGBvEDeE3EMMMAAAwwwwAADCQ0I5HNs2Gy81ZEBBhhggAEGGMhlQCCfcPNlkeZapOqpngwwwAADDDCwxIBAnpslbrThhgEGGGCAAQYY2NeAQF4g74k4BhhggAEGGGCAgYQGBPL7bqRsVM0vAwwwwAADDDDAwBIDAvmEm68lELRxAWGAAQYYYIABBnIZEMjnqqf1qZ4MMMAAAwwwwEAOAwJ5gbwn4hhggAEGGGCAAQYSGhDI59iw2XirIwMMMMAAAwwwkMuAQD7h5ssizbVI1VM9GWCAAQYYYGCJAYE8N0vcaMMNAwwwwAADDDCwrwGBvEDeE3EMMMAAAwwwwAADCQ0I5PfdSNmoml8GGGCAAQYYYICBJQYE8gk3X0sgaOMCwgADDDDAAAMM5DIgkM9VT+tTPRlggAEGGGCAgRwGBPICeU/EMcAAAwwwwAADDCQ0IJDPsWGz8VZHBhhggAEGGGAglwGBfMLNl0Waa5Gqp3oywAADDDDAwBIDAnlulrjRhhsGGGCAAQYYYGBfAwJ5gbwn4hhggAEGGGCAAQYSGhDI77uRslE1vwwwwAADDDDAAANLDAjkE26+lkDQxgWEAQYYYIABBhjIZUAgn6ue1qd6MsAAAwwwwAADOQwI5AXynohjgAEGGGCAAQYYSGhAIJ9jw2bjrY4MMMAAAwwwwEAuAwL5hJsvizTXIlVP9WSAAQYYYICBJQYE8twscaMNNwwwwAADDDDAwL4GBPICeU/EMcAAAwwwwAADDCQ0IJDfdyNlo2p+GWCAAQYYYIABBpYYEMgn3HwtgaCNCwgDDDDAAAMMMJDLgEA+Vz2tT/VkgAEGGGCAAQZyGBDIC+Q9EccAAwwwwAADDDCQ0IBAPseGzcZbHRlggAEGGGCAgVwGBPIJN18Waa5Fqp7qyQADDDDAAANLDAjkuVniRhtuGGCAAQYYYICBfQ0I5AXynohjgAEGGGCAAQYYSGhAIL/vRspG1fwywAADDDDAAAMMLDEgkE+4+VoCQRsXEAYYYIABBhhgIJcBgXyuelqf6skAAwwwwAADDOQwIJAXyHsijgEGGGCAAQYYYCChAYF8jg2bjbc6MsAAAwwwwAADuQwI5BNuvizSXItUPdWTAQYYYIABBpYYEMhzs8SNNtwwwAADDDDAAAP7GhDIC+Q9EccAAwwwwAADDDCQ0IBAft+NlI2q+WWAAQYYYIABBhhYYkAgn3DztQSCNi4gDDDAAAMMMMBALgMC+Vz1tD7VkwEGGGCAAQYYyGFAIC+Q90QcAwwwwAADDDDAQEIDAvkcGzYbb3VkgAEGGGCAAQZyGRDIJ9x8WaS5Fql6qicDDDDAAAMMLDEgkOdmiRttuGGAAQYYYIABBvY1IJAXyHsijgEGGGCAAQYYYCChAYH8vhspG1XzywADDDDAAAMMMLDEgEA+4eZrCQRtXEAYYIABBhhggIFcBgTyueppfaonAwwwwAADDDCQw4BAXiDviTgGGGCAAQYYYICBhAYE8jk2bDbe6sgAAwwwwAADDOQyIJBPuPmySHMtUvVUTwYYYIABBhhYYkAgz80SN9pwwwADDDDAAAMM7GtAIC+Q90QcAwwwwAADDDDAQEIDAvl9N1I2quaXAQYYYIABBhhgYIkBgXzCzdcSCNq4gDDAAAMMMMAAA7kMCORz1dP6VE8GGGCAAQYYYCCHAYG8QN4TcQwwwAADDDDAAAMJDQjkc2zYbLzVkQEGGGCAAQYYyGVAIJ9w82WR5lqk6qmeDDDAAAMMMLDEgECemyVutOGGAQYYYIABBhjY14BAXiDviTgGGGCAAQYYYICBhAYE8vtupGxUzS8DDDDAAAMMMMDAEgMC+YSbryUQtHEBYYABBhhggAEGchkQyOeqp/WpngwwwAADDDDAQA4DAnmBvCfiGGCAAQYYYIABBhIaEMjn2LDZeKsjAwwwwAADDDCQy4BAPuHmyyLNtUjVUz0ZYIABBhhgYIkBgTw3S9xoww0DDDDAAAMMMLCvAYG8QN4TcQwwwAADDDDAAAMJDQjk991I2aiaXwYYYIABBhhggIElBgTyCTdfSyBo4wLCAAMMMMAAAwzkMiCQz1VP61M9GWCAAQYYYICBHAYE8gJ5T8QxwAADDDDAAAMMJDQgkM+xYbPxVkcGGGCAAQYYYCCXAYF8ws2XRZprkaqnejLAAAMMMMDAEgMCeW6WuNGGGwYYYIABBhhgYF8DAnmBvCfiGGCAAQYYYIABBhIaEMjvu5GyUTW/DDDAAAMMMMAAA0sMCOQTbr6WQNDGBYQBBhhggAEGGMhlQCCfq57Wp3oywAADDDDAAAM5DAjkBfKeiGOAAQYYYIABBhhIaEAgn2PDZuOtjgwwwAADDDDAQC4DAvmEmy+LNNciVU/1ZIABBhhggIElBgTy3Cxxow03DDDAAAMMMMDAvgYE8gJ5T8QxwAADDDDAAAMMJDQgkN93I2Wjan4ZYIABBhhggAEGlhgQyCfcfC2BoI0LCAMMMMAAAwwwkMuAQD5XPa1P9WSAAQYYYIABBnIYEMgL5D0RxwADDDDAAAMMMJDQgEA+x4bNxlsdGWCAAQYYYICBXAYE8gk3XxZprkWqnurJAAMMMMAAA0sMCOS5WeJGG24YYIABBhhggIF9DQjkBfKeiGOAAQYYYIABBhhIaEAgv+9GykbV/DLAAAMMMMAAAwwsMSCQT7j5WgJBGxcQBhhggAEGGGAglwGBfK56Wp/qyQADDDDAAAMM5DAgkBfIeyKOAQYYYIABBhhgIKEBgXyODZuNtzoywAADDDDAAAO5DAjkE26+LNJci1Q91ZMBBhhggAEGlhgQyHOzxI023DDAAAMMMMAAA/saEMgL5D0RxwADDDDAAAMMMJDQgEB+342Ujar5ZYABBhhggAEGGFhiQCCfcPO1BII2LiAMMMAAAwwwwEAuAwL5XPW0PtWTAQYYYIABBhjIYUAgL5D3RBwDDDDAAAMMMMBAQgMC+RwbNhtvdWSAAQYYYIABBnIZEMgn3HxZpLkWqXqqJwMMMMAAAwwsMSCQ52aJG224YYABBhhggAEG9jUgkBfIeyKOAQYYYIABBhhgIKEBgfy+GykbVfPLAAMMMMAAAwwwsMSAQD7h5msJBG1cQBhggAEGGGCAgVwGBPK56ml9qicDDDDAAAMMMJDDgEBeIO+JOAYYYIABBhhggIGEBgTyOTZsNt7qyAADDDDAAAMM5DIgkE+4+bJIcy1S9VRPBhhggAEGGFhiQCDPzRI32nDDAAMMMMAAAwzsa0AgL5D3RBwDDDDAAAMMMMBAQgMC+X03Ujaq5pcBBhhggAEGGGBgiQGBfMLN1xII2riAMMAAAwwwwAADuQwI5HPV0/pUTwYYYIABBhhgIIcBgbxA3hNxDDDAAAMMMMAAAwkNCORzbNhsvNWRAQYYYIABBhjIZUAgn3DzZZHmWqTqqZ4MMMAAAwwwsMSAQJ6bJW604YYBBhhggAE5GtY2AAAeJ0lEQVQGGNjXgEBeIO+JOAYYYIABBhhggIGEBgTy+26kbFTNLwMMMMAAAwwwwMASAwL5hJuvJRC0cQFhgAEGGGCAAQZyGRDI56qn9ameDDDAAAMMMMBADgMCeYG8J+IYYIABBhhggAEGEhoQyOfYsNl4qyMDDDDAAAMMMJDLgEA+4ebLIs21SNVTPRlggAEGGGBgiQGBPDdL3GjDDQMMMMAAAwwwsK8BgbxA3hNxDDDAAAMMMMAAAwkNCOT33UjZqJpfBhhggAEGGGCAgSUGBPIJN19LIGjjAsIAAwwwwAADDOQyIJDPVU/rUz0ZYIABBhhggIEcBgTyAnlPxDHAAAMMMMAAAwwkNCCQz7Fhs/FWRwYYYIABBhhgIJcBgXzCzZdFmmuRqqd6MsAAAwwwwMASAwJ5bpa40YYbBhhggAEGGGBgXwNv//f9+8V/5oABBhhggAEGGGCAAQYYYIABBhhggAEGGGCAgX0NCOTdkHBDhgEGGGCAAQYYYIABBhhggAEGGGCAAQYYYOAAAwL5AybZXaV97yqZX/PLAAMMMMAAAwwwwAADDDDAAAMMMMAAAx/BgEBeIO/OFwMMMMAAAwwwwAADDDDAAAMMMMAAAwwwwMABBgTyB0zyR7gzY4zuIDLAAAMMMMAAAwwwwAADDDDAAAMMMMAAA/saEMgL5N35YoABBhhggAEGGGCAAQYYYIABBhhggAEGGDjAgED+gEl2V2nfu0rm1/wywAADDDDAAAMMMMAAAwwwwAADDDDAwEcwIJAXyLvzxQADDDDAAAMMMMAAAwwwwAADDDDAAAMMMHCAAYH8AZP8Ee7MGKM7iAwwwAADDDDAAAMMMMAAAwwwwAADDDDAwL4GBPICeXe+GGCAAQYYYIABBhhggAEGGGCAAQYYYIABBg4wIJA/YJLdVdr3rpL5Nb8MMMAAAwwwwAADDDDAAAMMMMAAAwww8BEMCOQF8u58McAAAwwwwAADDDDAAAMMMMAAAwwwwAADDBxgQCB/wCR/hDszxugOIgMMMMAAAwwwwAADDDDAAAMMMMAAAwwwsK8BgbxA3p0vBhhggAEGGGCAAQYYYIABBhhggAEGGGCAgQMMCOQPmGR3lfa9q2R+zS8DDDDAAAMMMMAAAwwwwAADDDDAAAMMfAQDAnmBvDtfDDDAAAMMMMAAAwwwwAADDDDAAAMMMMAAAwcYEMgfMMkf4c6MMbqDyAADDDDAAAMMMMAAAwwwwAADDDDAAAMM7GtAIC+Qd+eLAQYYYIABBhhggAEGGGCAAQYYYIABBhhg4AADAvkDJtldpX3vKplf88sAAwwwwAADDDDAAAMMMMAAAwwwwAADH8GAQF4g784XAwwwwAADDDDAAAMMMMAAAwwwwAADDDDAwAEGBPIHTPJHuDNjjO4gMsAAA98v//3jj8u/f/758q+ffrq8vb35zxwwsKGBZl0166tZZ1tcb6xX1yjX6VwGXCNy1XOr9bm1iy1+/ujDvokBBhhgYK0BgbxAfpNN8VqI2ruYMcDAextowj1BvDBgqwBBP9OWmnW2NpS3Xqfnlz1z89ENuEYwPGZ4Cxfv/XdNx7ffYYABBhgIAwJ5gbxAngEGGGDg+/frk7vNBvCXX365/PPPP5cfP374zxwwsKGBZl0166tZZ82T8vGX0SWvTXvr1TXKdTqXAdeIXPXcan1u6WLJzxtthGcMMMAAA3sYEMgL4lZtiPdAqU8XOwYYeA8D8XS8MF4gsFWIoJ97S836aoL0Zr2tWefW6/3c8mZOMhhwjeB4zPFWLtb83NHW/oQBBhhgYEsDAnmB/KoN8ZYY9eXixgAD72mgCQmb/8Y2gr4nIGBgOwOx1tas9+hDXbari7k0l2cxEOvbNYLJ2uQWLtaY0tY+hQEGGGBgSwMCeYG8QJ4BBhhg4Pv3axjfbPbqzZ+vhQEMbG9gi1Al+lCf7etjTs3pexuI9b1m0xt9vPe5OP526ylqusaFtsI0BhhggIGzGBDIC+IEcQwwwAADAnk3Ijb8XekCmPkAZotQJfow1/NzbX7Mz0c0EOt7zYY5+viI52/M4+s2arrGhbaCOAYYYICBsxgQyAviBHEMMMAAAwJ5gbxA/jADW4Qq0Yfgajy4Mi/m5SMbiPW9ZsMcfXzkeTD2/jqOmq5xoa0gjgEGGGDgLAYE8oI4QRwDDDDAgED+sDBWwNAPGD7jfGwRqkQfn3H+nLM1lN1ArO81G+boI/tcfabzi5qucaGtII4BBhhg4CwGBPKCOEEcAwwwwIBAXiDvCfnDDGwRqkQfnymMcq6C+M9iINb3mg1z9PFZ5uwznGfUdI0LbQVxDDDAAANnMSCQF8QJ4hhggAEGBPKHhbGfITRwjvPB6RahSvRhrufn2vyYn49oINb3mg1z9PERz9+Yx9dt1HSNC20FcQwwwAADZzEgkBfECeIYYIABBgTyAnlPyB9mYItQJfoQXI0HV+bFvHxkA7G+12yYo4+PPA/G3l/HUdM1LrQVxDHAAAMMnMWAQF4QJ4hjgAEGGBDIHxbGChj6AcNnnI8tQpXo4zPOn3O2hrIbiPW9ZsMcfWSfq890flHTNS60FcQxwAADDJzFgEBeECeIY4ABBhgQyAvkPSF/mIEtQpXo4zOFUc5VEP9ZDMT6XrNhjj4+y5x9hvOMmq5xoa0gjgEGGGDgLAYE8oI4QRwDDDDAgED+sDD2M4QGznE+ON0iVIk+zPX8XJsf8/MRDcT6XrNhjj4+4vkb8/i6jZqucaGtII4BBhhg4CwGBPKCOEEcAwwwwIBAXiDvCfnDDGwRqkQfgqvx4Mq8mJePbCDW95oNc/TxkefB2PvrOGq6xoW2gjgGGGCAgbMYEMgL4gRxDDDAAAMC+cPCWAFDP2D4jPOxRagSfXzG+XPO1lB2A7G+12yYo4/sc/WZzi9qusaFtoI4BhhggIGzGBDIC+IEcQwwwAADAnmBvCfkDzOwRagSfXymMMq5CuI/i4FY32s2zNHHZ5mzz3CeUdM1LrQVxDHAAAMMnMWAQF4QJ4hjgAEGGHiPQP7Pr5fYXHavXy/fBsHwt1/fRj5Xfy/afLt8fWu//+u3Qbjavff1z1uo9ffvXx70++Xy21+3zz4aQ/R5Fwj0zrHrLz73qN9mXr7+z2+XL3FeE69ffv97cL5LgrtujqIevX7/ejyOt7e2Fr3zrmvVfD0xD//57fL3oPYxT7u/Ds/tzs+S+ZxuE/O75i/D0ceec/P0Gqnmr2fmx9+X3/7T1j/qW302zqF+rddSOX60fejj3nAxWbd9MIa3wfEer9O4Bk3X/Jk6lfMt67zf7+NxvF1u81/Ne+mrWodD39f1er8unxnzos+MXR+GY5qtUX9ebmPozrk2NDq+kb7v2oyNsZ7LgZHR49TmXvw61sTZrxH1ed/5HdS0vD82d6UmI7Ut790M39WqmdvBZ2L+yuvgmI/X0sg4XqxhPTdbfR3ns8aFtoI4BhhggIGzGBDIC+IEcQwwwAADhwbyXXASm8vha73hfn7jXIdxw3Cpey/6LuFAHbL0vu76eDyGt0v0W2+8h+36YeWPy/D94Tw0fz4ikI+56J9DO2eDIKOc31yIN/Pe7Zz7Ycf1e1PHOSIE+eu3y9dyU+Pb5esgSCrnvNFYos5r/jIcfWw9trq/cBHHun8dWyNdbbv23eceBmeN+eFNs2dsPAhQe2vvUXjXXAeqYz5ep9051/P3/Nfjay3mL+aj3197HR21OvNee+69+ZhZr/1jrrvh0PR1O6fKw3VNteOt5jycjJ372DXk9vmvl6/NDdy6n8GavbUdHD881HN54JyMzXGstbNfI2LsYTXGXV6rOS2fGatP1CBu6lZ1K+3i53PVZxw/vJTjxmfr1+q4+6/p9WulnFs1F3F+a1xoK4hjgAEGGDiLAYG8IE4QxwADDDBwYCBfb4R7YUvZkDdPwXUBV/n82Ca82qj++NGF7tdNa7X5rt+LY5ZNfu9z45vouTFMvxfj+XL5+mv7NP7csUqg2J37dUNe5mUQIvXOfXzcYxv6u++1/ce89N5v3+uFd3HcucBq7r22TnWf1zmcm5s45l6vAvnRf2Hxyhqp19jbda2G/7fL7c+t0UnP1Y26dq0/ffzS5+BYP+qbXtX6KZ+vvhe2Rt6bXuMr1l0cL8Y44f927ME14dp2JnSPf5kwcc28zWvV5+x63eYcb9eV25jrtV+uN+28l+vQ8M/VfIW18tl6DufO5eF73c2gH3Of7Y1ly/np+toieI0+yhzvNu5urZfaXuev+VnerbHZ9VzWXeWydt7cqPs1/lXd8DP1E/Ld8cp5l7679/Ze0+XYG8951PQsQYpxCPUYYIABBtYYEMgL4gRxDDDAAAOHBfLdxr0OU8rm9bqJ72+2n984d33HprU7RvdefG82HBhsoufGMNlPBBJN0DYSCJRzjmPF56ubEdfPPNM2+ljwej23iTDwx4+/L9/+nPh1ONfxdgFH73zm3hsJC+fH0IVUvWPEuV7nZ2Ic8ZmJ12+/t78mRyC/QSD/43ILMatfjXJ9OrW/nrsnWe9rNlxLwz+P1j/C2OZYE47v1u/smrq/Vty1n/A0Nb7Z77djievS3Wf//Hb3a7xun1keyN+FzbPr9cH6a2+wTY6/N1e3uS2hbe+9wXFm52XYT/3n+uu6z7n5aj737fKt/ZcZ1/ldNSf1cZd9HT/DVm1y26fD70zNzfui925z3oy5c9DOd/W92fVc1uTU9aL5/thx2vkt7e+vK3EDpx7frmt60Rw+52QLF2tMaSt4Y4ABBhjY0oBAXhAniGOAAQYYOCqQv4Yc08HZWHDw/Ma526x/+U/8fvjY3HfvRWAwGw4MNtTTY+hCh95TwFVIeAufus9NhlExN4cG8rdxTY5pMA+9+swFVnPvbf2E/DWIGQth5gOOa00jwBXIbxPIx82W6tdExHordiaDs26NxFp6bo127SYdD9fW5Bjqmwqdqen1P2+snPPDdRTXqVf6a8979Cn4uffi18ZUx5xdr4/GdLu23tV54pzLXMbam/hc3LgZ7betX3lvMP7e2i79vzbOu5sWpZ9H87HN+1sEr9HHUw5XnV+3Bq/HnKjt7Houa7JyWX7FUfcvX4qfofvSvlu35bzL+u/em+xn1TxsU/sy7pGxRE23DEP0JVxjgAEGGHgvAwJ5QZwgjgEGGGDgoEB+dkM+svlsNqZl41yFfLEpbV67EK4O3buvb+93f44Qp4xlot8IBZ8ZQ/3P8m+b6ZnjTYQV3dPF/UAigqn6nPtfDz4/MY/jm/zbOLs5fCFQGIRgvf5n3rvVsz/m6/em5uXR+VyDmC5o6Y1jom1zvC+/f+v+h6NDR8OwZ6KfZ4419pmo35q//EYfY/1v9b1X1kg5ZgnGJm681e+Prr2uluX4szbu11oZS9StHLN1V/48fJq/+nNl4Plr0Avrpx3b7Rz76+Fu/HEevde50H3mvfbce2t+Zr0+Hstt/uO6+vjz49f0u/btOO++X276dHN2d/1oA9he28n+JmrW9hHrbPjam79eXSb6e/EzcbyzXyNKvUfXVLeWm8+V9Ty67mPtdXVt/oVW/E+hy3yXutSfq39lTfQz8nrQmi5z8mLNn2m3hYs1prQV2jHAAAMMbGlAIC+IE8QxwAADDLxrIN9tumOzWQfcz4dhg2CubNybUGDw3jPhwLOb9+pzZUNdjl2FBiWw6IcUs22aDX1pNxIwXION6hgvBwC3eSlhxyvtr+f46FzGxnw/3rtA7dE4yvyO9V//2oT7cKw51vz5+p+6hsmHAdqI/X6bER+znvs2Sl+HBvL3Y37+GnTvLeZy6vV2jv3znvps//szoXsVZHbX1G6t3PmfW8tja3G2ho/WVz1H3XX5Ns5qHuaOUXtoP9cL3+P8a5+jn6vHMvj61TkZm6cV34u6rdn0Rh99N4PzXDHGsX7H1krUpqznZwP5YqBek52Z6Pc6jvLZznmcf/33iRjz2Di7z79ieN/5jPHGa4xxjQtthWkMMMAAA2cxIJAXxAniGGCAAQYOCuTHnwJ/MpCvw5XREGG4Ua/6/fXr5WsbAsQmvoQDdbgz2m/1RGeMod78j7RftNkvIXMVSjXjKceqQ4mtQoDbHN0FdBPzEKHA9XUusBp5L+Y75r/u6zpfI/NYf2by6+v8PDk3zWcfHkcgH3MdNZv63ezxufJarFah2HC+y2ce1+y543frfNLxcG2NjKFes0Oj5b1Y/8+sj2c/cx3bYM0/1bY979Exjb3XXh+H9WiONbJeS00fjuXW73DOnm/fXsvaGpUatjV61G8xMhry1vP64jhXzcn66/MWwWv08XItHtb8ifMra6z7lzKlVmMGy+e7mpXPj9a2+zU21/Mr7bvrSlm31e+xj7ko742unyfOb4s5WtBH1PQsQYpxCPUYYIABBtYYEMgL4gRxDDDAAANHBfJz/1O26+Y0QvWRTfXDjXO0rZ6QLpv0LiCMgKds9sfCgcFGeXTz3gZI1w1yb2zdOGLzfP/ahQ4REIzfrNg7kG9vNszMwfXcx96fC6wm3rvNY1fbOPfJYwzqEJ/vvV5rfN9n7zN1P83YevUahi8C+Zi7V9ZI/eslrgF+tT5izV37LWvycc2ePX5Zn2NO6197FXUfHUMX7A+fqC39R/va09qv27H05qjuc/L9sdA9LE+8F+c9PI+J9RoO5l9fDLrrc+t9PRjz5HnHOTavgzZ1f3ftZz57bTd4f9Wc1GNc9nX8zFi1yW2D7Pn6LRtfr8+y1gc/1+L77bqcXc9hs/w/VNp6TIXx1+9X15DSvvpe+Bh+duyaUNs58ddbuFhjSlvBGwMMMMDAlgYE8oI4QRwDDDDAwGGBfP/3yA5DqBJ8vXWb6vK9YYh0t2nugvC639K+3djHe7PhwKDv0sdgDOX71Xgng/WmzxIaVDcN4lgRXpRAog1KSptuTnphSLRf+tr2H/PS67t9rzy1Wh9jLrCafK+t0SA4vc7j4Hu9cdTHHX59HeOLc9OM79ffyu8njpCjvA7q/PRYhmOb+HMcZ81faKOPrcdW9/fKGuncd7a79VEFdS94fvr4pc/uadw4j24M3bi6dThwU/dTGSh9VN+L/rd4nfN/O3Y1f8XUIEAu32+uG9PvxZz21vvken0mrH0hkJ89zm3M5VrT1qI3zt45dtfT8c+0c1BfV+aOf32vMjL32eE4dvhzrO+zXyOu/qt1U+oXBpufu0sC+dLnYI1e57r7WV+ON/X58v3+E/V7r+ktrgtjfWzhYo0pbQVxDDDAAANbGhDIC+IEcQwwwAADBwbyJSxqA/LYYPZeqxClbJwnPx8b9m6T3g9ouu83x4j3IpjqHXdwjPhsGcNdIFf13Y55+rNVUNYcZ9hXGwi9TQby3VP+d2Me9vViQBRzEed7CwLac6tq0QsI5gKrh+/1f0fvdc6mjvPiufTGONP2es4HHzPGFvVb8xfa6CP63OM1XMSxxl5vZqp10LM48v0SkMW6nQ59Hx6/rl9ZP+PrpAR3jYmZMdTHjPVQ1vTg+tDNx+Nzma/P+FqLscQ4+n1Mh+7lGturRcxz266+zsyt15k11B9P9D/3OnLs6P86hurGQ1uj8XO/HeNWl6pN9NW+3uavX5tbm/73iod6vg6bk/H5Cltnv0aEgbk1EjUMzxHQR9vra1mTt3rOfrZ+wj2uAaX9oLaD/19MjGVuvLe5j37C7MjfHYqXuM5Fm/Ga9s53YPXZ97ZwscaUtoI4BhhggIEtDQjkBXGCOAYYYICBQwP5drM6GqDdhyvPb5xjU9xtnGOTWzb3mwfy8fuXbyHgl9//t/yu+l4AWG2+u7EMzrXMx+D7JWgYDxqvG/QSDKwIAkaOM3UO13mdC6zm3qvClGfCkdkxVPMatX7l9dvvv13+XtnHK8eLz24RqkQf0ecer53VaXtNDbs1OrA7FoYVZ4/Dq4fHjzCu1LC7BsT83N3gaj47O4YugIu23flNzcPjc3mmPvfHuZ/Prp92nKNrf+696vxj/sq1Z+T84jNljldcY9o+Rus6PI+2RnGN6M47jt/WetiuHmfbx901ZOR8744z8pnOVDNP29T8/rxu5xfHWrPpjT6mjrH19+/r2p+j8v6YqbImG/PVGpyqb6lPe4zSvn/M2zlW/bU3ou7X2tB+9NO1DSPlPMrY4roTbcLo9q9R0zUutBWmMcAAAwycxYBAXhAniGOAAQYYeI9Avg5OfH3ZOhzR3/ZhyFZzukWoEn1sNSb9nNeL2ny+2sT6XrNhjj74yeMnarrGhbaCOAYYYICBsxgQyAviBHEMMMAAAwJ5gbibIocZ2CJUiT6EbXnCNrVUyzAQ63vNhjn6iD69fnxfUdM1LrQVxDHAAAMMnMWAQF4QJ4hjgAEGGBDIHxbGCkU+fiiytoZbhCrRx9qxaM8jA+czEOt7zYY5+lDf89V3aU2ipmtcaCuIY4ABBhg4iwGBvCBOEMcAAwwwIJAXyHtC/jADW4Qq0cfSYEe7PCGdWuarZazvNRvm6IOPPD6ipmtcaCuIY4ABBhg4iwGBvCBOEMcAAwwwIJA/LIwVjuQJR5bWcotQJfpYOgbtOGTgvAZifa/ZMEcf6nzeOr9am6jpGhfaCuIYYIABBs5iQCAviBPEMcAAAwwI5AXynpA/zMAWoUr08Wqg4/N5wjm1zFvLWN9rNszRByd5nERN17jQVhDHAAMMMHAWAwJ5QZwgjgEGGGBAIH9YGCscyROOLK3lFqFK9LF0DNpxyMB5DcT6XrNhjj7U+bx1frU2UdM1LrQVxDHAAAMMnMWAQF4QJ4hjgAEGGBDIC+Q9IX+YgS1Clejj1UDH5/OEc2qZt5axvtdsmKMPTvI4iZqucaGtII4BBhhg4CwGBPKCOEEcAwwwwIBA/rAwVjiSJxxZWsstQpXoY+kYtOOQgfMaiPW9ZsMcfajzeev8am2ipmtcaCuIY4ABBhg4iwGBvCBOEMcAAwwwIJAXyHtC/jADW4Qq0cergY7P5wnn1DJvLWN9r9kwRx+c5HESNV3jQltBHAMMMMDAWQwI5AVxgjgGGGCAAYH8YWGscCRPOLK0lluEKtHH0jFoxyED5zUQ63vNhjn6UOfz1vnV2kRN17jQVhDHAAMMMHAWAwJ5QZwgjgEGGGBAIC+Q94T8YQa2CFWij1cDHZ/PE86pZd5axvpes2GOPjjJ4yRqusaFtoI4BhhggIGzGBDIC+IEcQwwwAADAvnDwljhSJ5wZGkttwhVoo+lY9COQwbOayDW95oNc/Shzuet86u1iZqucaGtII4BBhhg4CwGBPKCOEEcAwwwwIBAXiDvCfnDDGwRqkQfrwY6Pp8nnFPLvLWM9b1mwxx9cJLHSdR0jQttBXEMMMAAA2cxIJAXxAniGGCAAQa+f7/866efLs1m759//jksmBQU5AkK1PK5Wjbrq1lnzXpb85dh6/W5+ebSPH00A64RzI6Z3crFmp872grxGGCAAQa2NCCQF8St2hBviVFfLm4MMPCeBv7988/XoPCXX34Rynta3E2ZHQw0gUqzvppAvllva9a79Sq0GwvtfO9ju3CN+Nj122v9belizc8dbe1TGGCAAQa2NCCQF8iv2hBviVFfLm4MMPCeBv77xx/lKfn4Z9Fe367hqXkwD1saaJ5ub9bbmvVuvTK5pUl9ncuTa8S56nGW9bGFizU/d7S1T2GAAQYY2NKAQF4gv2pDvCVGfbm4McDAextoQr7mydv4dRhn2YQah3Aig4FmXTXra20YH9cJ69W6yLAunEPn2DWimwsuurnY2kX8DPFq38EAAwww8J4GBPICeYE8AwwwwAADDDDAAAMMMMAAAwwwwAADDDDAwAEGBPIHTPJ73nFxbHf8GGCAAQYYYIABBhhggAEGGGCAAQYYYICBcxgQyAvk3fligAEGGGCAAQYYYIABBhhggAEGGGCAAQYYOMCAQP6ASXb36Rx3n9RBHRhggAEGGGCAAQYYYIABBhhggAEGGGDgPQ0I5AXy7nwxwAADDDDAAAMMMMAAAwwwwAADDDDAAAMMHGBAIH/AJL/nHRfHdsePAQYYYIABBhhggAEGGGCAAQYYYIABBhg4hwGBvEDenS8GGGCAAQYYYIABBhhggAEGGGCAAQYYYICBAwwI5A+YZHefznH3SR3UgQEGGGCAAQYYYIABBhhggAEGGGCAAQbe04BAXiDvzhcDDDDAAAMMMMAAAwwwwAADDDDAAAMMMMDAAQYE8gdM8nvecXFsd/wYYIABBhhggAEGGGCAAQYYYIABBhhggIFzGBDIC+Td+WKAAQYYYIABBhhggAEGGGCAAQYYYIABBhg4wMD/A45CjJDAT9MHAAAAAElFTkSuQmCC;" vertex="1" parent="1">
          <mxGeometry x="280" y="1120" width="798" height="508.01" as="geometry" />
        </mxCell>
        <mxCell id="Ysqgjk3QRdwO2fdqVnxJ-34" value="Tipo proyecto" style="rounded=0;whiteSpace=wrap;html=1;" vertex="1" parent="1">
          <mxGeometry x="40" y="1170" width="120" height="60" as="geometry" />
        </mxCell>
        <mxCell id="Ysqgjk3QRdwO2fdqVnxJ-35" value="" style="shape=flexArrow;endArrow=classic;html=1;rounded=0;entryX=1;entryY=0.5;entryDx=0;entryDy=0;fillColor=#f8cecc;strokeColor=#b85450;" edge="1" parent="1" target="Ysqgjk3QRdwO2fdqVnxJ-34">
          <mxGeometry width="50" height="50" relative="1" as="geometry">
            <mxPoint x="290" y="1240" as="sourcePoint" />
            <mxPoint x="700" y="1310" as="targetPoint" />
          </mxGeometry>
        </mxCell>
        <mxCell id="Ysqgjk3QRdwO2fdqVnxJ-36" value="Lenguaje" style="rounded=0;whiteSpace=wrap;html=1;" vertex="1" parent="1">
          <mxGeometry x="40" y="1100" width="120" height="60" as="geometry" />
        </mxCell>
        <mxCell id="Ysqgjk3QRdwO2fdqVnxJ-37" value="" style="shape=flexArrow;endArrow=classic;html=1;rounded=0;fillColor=#f8cecc;strokeColor=#b85450;exitX=0.251;exitY=0.217;exitDx=0;exitDy=0;exitPerimeter=0;entryX=1;entryY=0.75;entryDx=0;entryDy=0;" edge="1" parent="1" target="Ysqgjk3QRdwO2fdqVnxJ-36">
          <mxGeometry width="50" height="50" relative="1" as="geometry">
            <mxPoint x="490.148" y="1260.2381699999999" as="sourcePoint" />
            <mxPoint x="170" y="1290" as="targetPoint" />
          </mxGeometry>
        </mxCell>
        <mxCell id="Ysqgjk3QRdwO2fdqVnxJ-38" value="Configuración del proyecto" style="rounded=0;whiteSpace=wrap;html=1;" vertex="1" parent="1">
          <mxGeometry x="40" y="1344" width="120" height="60" as="geometry" />
        </mxCell>
        <mxCell id="Ysqgjk3QRdwO2fdqVnxJ-40" value="Empaquetado y versión, se recomienda LTS (8-11-17)" style="rounded=0;whiteSpace=wrap;html=1;" vertex="1" parent="1">
          <mxGeometry x="40" y="1460" width="120" height="60" as="geometry" />
        </mxCell>
        <mxCell id="Ysqgjk3QRdwO2fdqVnxJ-41" value="Se recomienda los LTS(solo número)" style="rounded=0;whiteSpace=wrap;html=1;" vertex="1" parent="1">
          <mxGeometry x="40" y="1250" width="120" height="60" as="geometry" />
        </mxCell>
        <mxCell id="Ysqgjk3QRdwO2fdqVnxJ-42" value="" style="shape=flexArrow;endArrow=classic;html=1;rounded=0;entryX=1;entryY=0.5;entryDx=0;entryDy=0;fillColor=#f8cecc;strokeColor=#b85450;" edge="1" parent="1" source="Ysqgjk3QRdwO2fdqVnxJ-33">
          <mxGeometry width="50" height="50" relative="1" as="geometry">
            <mxPoint x="290" y="1340" as="sourcePoint" />
            <mxPoint x="160" y="1300" as="targetPoint" />
          </mxGeometry>
        </mxCell>
        <mxCell id="Ysqgjk3QRdwO2fdqVnxJ-43" value="" style="shape=flexArrow;endArrow=classic;html=1;rounded=0;entryX=1;entryY=0.5;entryDx=0;entryDy=0;fillColor=#f8cecc;strokeColor=#b85450;" edge="1" parent="1">
          <mxGeometry width="50" height="50" relative="1" as="geometry">
            <mxPoint x="280" y="1387" as="sourcePoint" />
            <mxPoint x="160" y="1370" as="targetPoint" />
          </mxGeometry>
        </mxCell>
        <mxCell id="Ysqgjk3QRdwO2fdqVnxJ-44" value="" style="shape=flexArrow;endArrow=classic;html=1;rounded=0;entryX=1;entryY=0.5;entryDx=0;entryDy=0;fillColor=#f8cecc;strokeColor=#b85450;" edge="1" parent="1">
          <mxGeometry width="50" height="50" relative="1" as="geometry">
            <mxPoint x="280" y="1507" as="sourcePoint" />
            <mxPoint x="160" y="1490" as="targetPoint" />
          </mxGeometry>
        </mxCell>
      </root>
    </mxGraphModel>
  </diagram>
</mxfile>
